<svg width="178" height="57" viewBox="0 0 178 57" fill="none" xmlns="http://www.w3.org/2000/svg">
<rect width="178" height="57" rx="4" fill="#161B23"/>
<path d="M27.282 34V21.4H32.646C34.122 21.4 35.22 21.772 35.94 22.516C36.48 23.08 36.75 23.764 36.75 24.568C36.75 25.936 36.084 26.908 34.752 27.484C36.552 28.024 37.452 29.05 37.452 30.562C37.452 31.63 37.038 32.47 36.21 33.082C35.382 33.694 34.272 34 32.88 34H27.282ZM28.686 27.016H32.412C33.288 27.016 33.99 26.818 34.518 26.422C35.046 26.026 35.31 25.462 35.31 24.73C35.31 24.094 35.064 23.596 34.572 23.236C34.092 22.864 33.408 22.678 32.52 22.678H28.686V27.016ZM28.686 32.722H32.916C33.876 32.722 34.632 32.524 35.184 32.128C35.736 31.72 36.012 31.156 36.012 30.436C36.012 29.74 35.724 29.206 35.148 28.834C34.584 28.462 33.756 28.276 32.664 28.276H28.686V32.722ZM42.8102 34.198C41.8622 34.198 41.0462 33.94 40.3622 33.424C39.6782 32.908 39.3362 32.188 39.3362 31.264C39.3362 30.292 39.6962 29.542 40.4162 29.014C41.1362 28.486 42.1022 28.222 43.3142 28.222C44.2742 28.222 45.2222 28.354 46.1582 28.618V28.33C46.1582 27.514 45.9182 26.89 45.4382 26.458C44.9582 26.026 44.2802 25.81 43.4042 25.81C42.4922 25.81 41.5502 26.032 40.5782 26.476L40.1642 25.342C41.3162 24.814 42.4442 24.55 43.5482 24.55C44.8682 24.55 45.8702 24.892 46.5542 25.576C47.2022 26.224 47.5262 27.136 47.5262 28.312V34H46.1582V32.614C45.3302 33.67 44.2142 34.198 42.8102 34.198ZM43.0802 33.082C43.9442 33.082 44.6762 32.848 45.2762 32.38C45.8762 31.912 46.1762 31.312 46.1762 30.58V29.716C45.2642 29.452 44.3582 29.32 43.4582 29.32C42.6062 29.32 41.9402 29.494 41.4602 29.842C40.9802 30.178 40.7402 30.64 40.7402 31.228C40.7402 31.792 40.9622 32.242 41.4062 32.578C41.8622 32.914 42.4202 33.082 43.0802 33.082ZM54.6561 34.216C53.3121 34.216 52.1781 33.742 51.2541 32.794C50.3421 31.834 49.8861 30.688 49.8861 29.356C49.8861 28.024 50.3421 26.884 51.2541 25.936C52.1781 24.976 53.3121 24.496 54.6561 24.496C56.0961 24.496 57.3381 25.048 58.3821 26.152L57.5001 27.088C56.6361 26.176 55.6821 25.72 54.6381 25.72C53.7021 25.72 52.9101 26.074 52.2621 26.782C51.6261 27.478 51.3081 28.336 51.3081 29.356C51.3081 30.364 51.6321 31.222 52.2801 31.93C52.9401 32.626 53.7561 32.974 54.7281 32.974C55.7241 32.974 56.6601 32.506 57.5361 31.57L58.4541 32.416C57.3741 33.616 56.1081 34.216 54.6561 34.216ZM60.7453 34V20.86H62.1313V29.932L67.1533 24.694H68.8813L64.9753 28.69L69.0073 34H67.3513L64.0213 29.662L62.1313 31.57V34H60.7453ZM79.5038 34.162C78.6998 34.162 78.0578 33.952 77.5778 33.532C77.1098 33.1 76.8758 32.434 76.8758 31.534V25.918H75.5798V24.694H76.8758V21.886H78.2618V24.694H81.2138V25.918H78.2618V31.354C78.2618 32.386 78.7838 32.902 79.8278 32.902C80.2838 32.902 80.7338 32.794 81.1778 32.578V33.766C80.6738 34.03 80.1158 34.162 79.5038 34.162ZM91.1255 32.794C90.1895 33.742 89.0315 34.216 87.6515 34.216C86.2715 34.216 85.1195 33.742 84.1955 32.794C83.2835 31.846 82.8275 30.7 82.8275 29.356C82.8275 28.024 83.2895 26.884 84.2135 25.936C85.1495 24.976 86.3075 24.496 87.6875 24.496C89.0675 24.496 90.2195 24.97 91.1435 25.918C92.0675 26.866 92.5295 28.012 92.5295 29.356C92.5295 30.688 92.0615 31.834 91.1255 32.794ZM87.6875 32.974C88.6835 32.974 89.4995 32.626 90.1355 31.93C90.7835 31.234 91.1075 30.376 91.1075 29.356C91.1075 28.348 90.7715 27.49 90.0995 26.782C89.4395 26.074 88.6235 25.72 87.6515 25.72C86.6555 25.72 85.8395 26.074 85.2035 26.782C84.5675 27.478 84.2495 28.336 84.2495 29.356C84.2495 30.364 84.5795 31.222 85.2395 31.93C85.8995 32.626 86.7155 32.974 87.6875 32.974ZM100.671 34V21.4H102.093V26.998H109.365V21.4H110.787V34H109.365V28.33H102.093V34H100.671ZM121.834 32.794C120.898 33.742 119.74 34.216 118.36 34.216C116.98 34.216 115.828 33.742 114.904 32.794C113.992 31.846 113.536 30.7 113.536 29.356C113.536 28.024 113.998 26.884 114.922 25.936C115.858 24.976 117.016 24.496 118.396 24.496C119.776 24.496 120.928 24.97 121.852 25.918C122.776 26.866 123.238 28.012 123.238 29.356C123.238 30.688 122.77 31.834 121.834 32.794ZM118.396 32.974C119.392 32.974 120.208 32.626 120.844 31.93C121.492 31.234 121.816 30.376 121.816 29.356C121.816 28.348 121.48 27.49 120.808 26.782C120.148 26.074 119.332 25.72 118.36 25.72C117.364 25.72 116.548 26.074 115.912 26.782C115.276 27.478 114.958 28.336 114.958 29.356C114.958 30.364 115.288 31.222 115.948 31.93C116.608 32.626 117.424 32.974 118.396 32.974ZM125.749 34V24.694H127.135V26.26C127.915 25.084 128.917 24.496 130.141 24.496C131.533 24.496 132.529 25.114 133.129 26.35C133.933 25.114 135.025 24.496 136.405 24.496C137.473 24.496 138.313 24.832 138.925 25.504C139.549 26.176 139.861 27.088 139.861 28.24V34H138.475V28.564C138.475 27.664 138.259 26.974 137.827 26.494C137.407 26.002 136.819 25.756 136.063 25.756C135.331 25.756 134.719 26.014 134.227 26.53C133.735 27.046 133.489 27.748 133.489 28.636V34H132.121V28.528C132.121 27.664 131.905 26.986 131.473 26.494C131.053 26.002 130.471 25.756 129.727 25.756C128.983 25.756 128.365 26.032 127.873 26.584C127.381 27.136 127.135 27.838 127.135 28.69V34H125.749ZM143.698 29.914C143.794 30.862 144.148 31.618 144.76 32.182C145.384 32.734 146.122 33.01 146.974 33.01C148.09 33.01 149.068 32.572 149.908 31.696L150.772 32.47C149.728 33.634 148.45 34.216 146.938 34.216C145.63 34.216 144.526 33.766 143.626 32.866C142.738 31.954 142.294 30.784 142.294 29.356C142.294 28 142.72 26.854 143.572 25.918C144.424 24.97 145.486 24.496 146.758 24.496C148.09 24.496 149.146 24.964 149.926 25.9C150.706 26.836 151.096 28.012 151.096 29.428C151.096 29.608 151.09 29.77 151.078 29.914H143.698ZM143.698 28.798H149.692C149.608 27.898 149.308 27.154 148.792 26.566C148.288 25.966 147.598 25.666 146.722 25.666C145.93 25.666 145.252 25.96 144.688 26.548C144.124 27.136 143.794 27.886 143.698 28.798Z" fill="#C8F05A"/>
</svg>
