<svg width="266" height="57" viewBox="0 0 266 57" fill="none" xmlns="http://www.w3.org/2000/svg">
<rect width="266" height="57" rx="4" fill="#C8F05A"/>
<path d="M71.282 34V21.4H76.646C78.122 21.4 79.22 21.772 79.94 22.516C80.48 23.08 80.75 23.764 80.75 24.568C80.75 25.936 80.084 26.908 78.752 27.484C80.552 28.024 81.452 29.05 81.452 30.562C81.452 31.63 81.038 32.47 80.21 33.082C79.382 33.694 78.272 34 76.88 34H71.282ZM72.686 27.016H76.412C77.288 27.016 77.99 26.818 78.518 26.422C79.046 26.026 79.31 25.462 79.31 24.73C79.31 24.094 79.064 23.596 78.572 23.236C78.092 22.864 77.408 22.678 76.52 22.678H72.686V27.016ZM72.686 32.722H76.916C77.876 32.722 78.632 32.524 79.184 32.128C79.736 31.72 80.012 31.156 80.012 30.436C80.012 29.74 79.724 29.206 79.148 28.834C78.584 28.462 77.756 28.276 76.664 28.276H72.686V32.722ZM86.8102 34.198C85.8622 34.198 85.0462 33.94 84.3622 33.424C83.6782 32.908 83.3362 32.188 83.3362 31.264C83.3362 30.292 83.6962 29.542 84.4162 29.014C85.1362 28.486 86.1022 28.222 87.3142 28.222C88.2742 28.222 89.2222 28.354 90.1582 28.618V28.33C90.1582 27.514 89.9182 26.89 89.4382 26.458C88.9582 26.026 88.2802 25.81 87.4042 25.81C86.4922 25.81 85.5502 26.032 84.5782 26.476L84.1642 25.342C85.3162 24.814 86.4442 24.55 87.5482 24.55C88.8682 24.55 89.8702 24.892 90.5542 25.576C91.2022 26.224 91.5262 27.136 91.5262 28.312V34H90.1582V32.614C89.3302 33.67 88.2142 34.198 86.8102 34.198ZM87.0802 33.082C87.9442 33.082 88.6762 32.848 89.2762 32.38C89.8762 31.912 90.1762 31.312 90.1762 30.58V29.716C89.2642 29.452 88.3582 29.32 87.4582 29.32C86.6062 29.32 85.9402 29.494 85.4602 29.842C84.9802 30.178 84.7402 30.64 84.7402 31.228C84.7402 31.792 84.9622 32.242 85.4062 32.578C85.8622 32.914 86.4202 33.082 87.0802 33.082ZM98.6561 34.216C97.3121 34.216 96.1781 33.742 95.2541 32.794C94.3421 31.834 93.8861 30.688 93.8861 29.356C93.8861 28.024 94.3421 26.884 95.2541 25.936C96.1781 24.976 97.3121 24.496 98.6561 24.496C100.096 24.496 101.338 25.048 102.382 26.152L101.5 27.088C100.636 26.176 99.6821 25.72 98.6381 25.72C97.7021 25.72 96.9101 26.074 96.2621 26.782C95.6261 27.478 95.3081 28.336 95.3081 29.356C95.3081 30.364 95.6321 31.222 96.2801 31.93C96.9401 32.626 97.7561 32.974 98.7281 32.974C99.7241 32.974 100.66 32.506 101.536 31.57L102.454 32.416C101.374 33.616 100.108 34.216 98.6561 34.216ZM104.745 34V20.86H106.131V29.932L111.153 24.694H112.881L108.975 28.69L113.007 34H111.351L108.021 29.662L106.131 31.57V34H104.745ZM123.504 34.162C122.7 34.162 122.058 33.952 121.578 33.532C121.11 33.1 120.876 32.434 120.876 31.534V25.918H119.58V24.694H120.876V21.886H122.262V24.694H125.214V25.918H122.262V31.354C122.262 32.386 122.784 32.902 123.828 32.902C124.284 32.902 124.734 32.794 125.178 32.578V33.766C124.674 34.03 124.116 34.162 123.504 34.162ZM135.125 32.794C134.189 33.742 133.031 34.216 131.651 34.216C130.271 34.216 129.119 33.742 128.195 32.794C127.283 31.846 126.827 30.7 126.827 29.356C126.827 28.024 127.289 26.884 128.213 25.936C129.149 24.976 130.307 24.496 131.687 24.496C133.067 24.496 134.219 24.97 135.143 25.918C136.067 26.866 136.529 28.012 136.529 29.356C136.529 30.688 136.061 31.834 135.125 32.794ZM131.687 32.974C132.683 32.974 133.499 32.626 134.135 31.93C134.783 31.234 135.107 30.376 135.107 29.356C135.107 28.348 134.771 27.49 134.099 26.782C133.439 26.074 132.623 25.72 131.651 25.72C130.655 25.72 129.839 26.074 129.203 26.782C128.567 27.478 128.249 28.336 128.249 29.356C128.249 30.364 128.579 31.222 129.239 31.93C129.899 32.626 130.715 32.974 131.687 32.974ZM144.671 34V21.4H146.093V26.998H153.365V21.4H154.787V34H153.365V28.33H146.093V34H144.671ZM165.834 32.794C164.898 33.742 163.74 34.216 162.36 34.216C160.98 34.216 159.828 33.742 158.904 32.794C157.992 31.846 157.536 30.7 157.536 29.356C157.536 28.024 157.998 26.884 158.922 25.936C159.858 24.976 161.016 24.496 162.396 24.496C163.776 24.496 164.928 24.97 165.852 25.918C166.776 26.866 167.238 28.012 167.238 29.356C167.238 30.688 166.77 31.834 165.834 32.794ZM162.396 32.974C163.392 32.974 164.208 32.626 164.844 31.93C165.492 31.234 165.816 30.376 165.816 29.356C165.816 28.348 165.48 27.49 164.808 26.782C164.148 26.074 163.332 25.72 162.36 25.72C161.364 25.72 160.548 26.074 159.912 26.782C159.276 27.478 158.958 28.336 158.958 29.356C158.958 30.364 159.288 31.222 159.948 31.93C160.608 32.626 161.424 32.974 162.396 32.974ZM169.749 34V24.694H171.135V26.26C171.915 25.084 172.917 24.496 174.141 24.496C175.533 24.496 176.529 25.114 177.129 26.35C177.933 25.114 179.025 24.496 180.405 24.496C181.473 24.496 182.313 24.832 182.925 25.504C183.549 26.176 183.861 27.088 183.861 28.24V34H182.475V28.564C182.475 27.664 182.259 26.974 181.827 26.494C181.407 26.002 180.819 25.756 180.063 25.756C179.331 25.756 178.719 26.014 178.227 26.53C177.735 27.046 177.489 27.748 177.489 28.636V34H176.121V28.528C176.121 27.664 175.905 26.986 175.473 26.494C175.053 26.002 174.471 25.756 173.727 25.756C172.983 25.756 172.365 26.032 171.873 26.584C171.381 27.136 171.135 27.838 171.135 28.69V34H169.749ZM187.698 29.914C187.794 30.862 188.148 31.618 188.76 32.182C189.384 32.734 190.122 33.01 190.974 33.01C192.09 33.01 193.068 32.572 193.908 31.696L194.772 32.47C193.728 33.634 192.45 34.216 190.938 34.216C189.63 34.216 188.526 33.766 187.626 32.866C186.738 31.954 186.294 30.784 186.294 29.356C186.294 28 186.72 26.854 187.572 25.918C188.424 24.97 189.486 24.496 190.758 24.496C192.09 24.496 193.146 24.964 193.926 25.9C194.706 26.836 195.096 28.012 195.096 29.428C195.096 29.608 195.09 29.77 195.078 29.914H187.698ZM187.698 28.798H193.692C193.608 27.898 193.308 27.154 192.792 26.566C192.288 25.966 191.598 25.666 190.722 25.666C189.93 25.666 189.252 25.96 188.688 26.548C188.124 27.136 187.794 27.886 187.698 28.798Z" fill="#161B23"/>
</svg>
