<svg width="62" height="62" viewBox="0 0 62 62" fill="none" xmlns="http://www.w3.org/2000/svg">
<rect width="62" height="62" rx="4" fill="#C8F05A"/>
<path d="M33.0393 26.1358C32.2761 26.6799 31.3421 27 30.3334 27C27.756 27 25.6667 24.9107 25.6667 22.3333C25.6667 19.756 27.756 17.6667 30.3334 17.6667C32.004 17.6667 33.4696 18.5445 34.294 19.8642M23 41.7829H26.4804C26.9342 41.7829 27.3852 41.8369 27.8251 41.9449L31.5025 42.8385C32.3005 43.0329 33.1317 43.0518 33.938 42.8952L38.004 42.1041C39.0781 41.8949 40.0661 41.3806 40.8405 40.6273L43.7172 37.8289C44.5387 37.0311 44.5387 35.7366 43.7172 34.9374C42.9776 34.2179 41.8063 34.1369 40.9695 34.7471L37.6168 37.1931C37.1367 37.5441 36.5524 37.7331 35.9516 37.7331H32.714L34.7748 37.733C35.9363 37.733 36.8772 36.8178 36.8772 35.6879V35.2789C36.8772 34.3407 36.2208 33.5226 35.2855 33.2958L32.1048 32.5223C31.5872 32.3968 31.0571 32.3333 30.5242 32.3333C29.2378 32.3333 26.9092 33.3984 26.9092 33.3984L23 35.0332M41.6667 23.6667C41.6667 26.244 39.5773 28.3333 37 28.3333C34.4227 28.3333 32.3334 26.244 32.3334 23.6667C32.3334 21.0893 34.4227 19 37 19C39.5773 19 41.6667 21.0893 41.6667 23.6667ZM17.6667 34.4667L17.6667 42.2C17.6667 42.9467 17.6667 43.3201 17.812 43.6053C17.9398 43.8562 18.1438 44.0602 18.3947 44.188C18.6799 44.3333 19.0533 44.3333 19.8 44.3333H20.8667C21.6134 44.3333 21.9868 44.3333 22.272 44.188C22.5229 44.0602 22.7269 43.8562 22.8547 43.6053C23 43.3201 23 42.9467 23 42.2V34.4667C23 33.7199 23 33.3466 22.8547 33.0613C22.7269 32.8105 22.5229 32.6065 22.272 32.4786C21.9868 32.3333 21.6134 32.3333 20.8667 32.3333L19.8 32.3333C19.0533 32.3333 18.6799 32.3333 18.3947 32.4786C18.1438 32.6065 17.9398 32.8105 17.812 33.0613C17.6667 33.3466 17.6667 33.7199 17.6667 34.4667Z" stroke="#161B23" stroke-width="2" stroke-linecap="round" stroke-linejoin="round"/>
</svg>
