<svg width="62" height="62" viewBox="0 0 62 62" fill="none" xmlns="http://www.w3.org/2000/svg">
<rect width="62" height="62" rx="4" fill="#C8F05A"/>
<path d="M43 43H21.1333C20.3866 43 20.0132 43 19.728 42.8547C19.4771 42.7268 19.2732 42.5229 19.1453 42.272C19 41.9868 19 41.6134 19 40.8667V19M43 24.3333L35.7542 31.5791C35.4902 31.8431 35.3582 31.9751 35.206 32.0246C35.0721 32.0681 34.9279 32.0681 34.794 32.0246C34.6418 31.9751 34.5098 31.8431 34.2458 31.5791L31.7542 29.0876C31.4902 28.8236 31.3582 28.6916 31.206 28.6421C31.0721 28.5986 30.9279 28.5986 30.794 28.6421C30.6418 28.6916 30.5098 28.8236 30.2458 29.0876L24.3333 35M43 24.3333H37.6667M43 24.3333V29.6667" stroke="#161B23" stroke-width="2" stroke-linecap="round" stroke-linejoin="round"/>
</svg>
