<svg width="670" height="670" viewBox="0 0 670 670" fill="none" xmlns="http://www.w3.org/2000/svg">
<path opacity="0.7" d="M91.0262 223.901C91.0262 223.901 53.667 320.381 106.168 417.531C158.669 514.681 266.807 566.003 353.358 609.888C439.909 653.773 529.782 632.4 572.488 560.522C615.194 488.644 556.623 437.336 556.542 334.839C556.462 232.343 571.885 205.208 516.342 118.617C460.799 32.026 324.642 12.8506 221.676 77.0768C118.711 141.303 91.0262 223.901 91.0262 223.901Z" fill="white"/>
<path d="M259.96 32.7094C214.4 40.2 170.89 56.7088 133.879 85.2374C80.0382 126.777 50.183 188.779 47.0608 256.248C45.0106 300.79 55.6368 344.219 68.5008 386.51C85.0096 440.86 95.676 502.889 130.181 549.4C183.915 621.76 287.752 652.285 374.597 639.341C430.703 630.966 489.984 599.141 507.257 541.521C513.649 520.201 516.758 497.301 527.679 477.589C540.77 453.979 564.502 440.19 582.525 420.961C604.796 397.216 613.76 367.629 619.308 336.34C631.448 267.839 614.872 195.278 574.847 138.449C533.079 79.1672 471.117 47.3288 400.767 34.84C393.049 33.5 385.29 32.3074 377.505 31.3292C338.859 26.465 298.686 26.3042 259.96 32.7094Z" fill="#92E3A9"/>
<path d="M259.96 32.7094C214.4 40.2 170.89 56.7088 133.879 85.2374C80.0382 126.777 50.183 188.779 47.0608 256.248C45.0106 300.79 55.6368 344.219 68.5008 386.51C85.0096 440.86 95.676 502.889 130.181 549.4C183.915 621.76 287.752 652.285 374.597 639.341C430.703 630.966 489.984 599.141 507.257 541.521C513.649 520.201 516.758 497.301 527.679 477.589C540.77 453.979 564.502 440.19 582.525 420.961C604.796 397.216 613.76 367.629 619.308 336.34C631.448 267.839 614.872 195.278 574.847 138.449C533.079 79.1672 471.117 47.3288 400.767 34.84C393.049 33.5 385.29 32.3074 377.505 31.3292C338.859 26.465 298.686 26.3042 259.96 32.7094Z" fill="#ECFFA6"/>
<path opacity="0.2" d="M269.715 512.764L381.9 491.847C381.9 491.847 407.28 571.925 412.398 582.284L409.718 588.568L411.407 599.087L299.919 624.44L290.981 617.392L269.715 512.764Z" fill="black" fill-opacity="0.7"/>
<path d="M373.75 483.264L265.3 508.941L290.977 617.39L399.426 591.714L373.75 483.264Z" fill="#ECFFA6"/>
<mask id="mask0_2820_7121" style="mask-type:luminance" maskUnits="userSpaceOnUse" x="265" y="483" width="135" height="135">
<path d="M373.75 483.264L265.3 508.941L290.977 617.39L399.426 591.714L373.75 483.264Z" fill="white"/>
</mask>
<g mask="url(#mask0_2820_7121)">
<path opacity="0.2" d="M380.681 512.523L398.677 588.515L295.256 612.996C282.794 581.815 273.266 542.553 273.266 542.553L380.681 512.523Z" fill="black" fill-opacity="0.7"/>
</g>
<path d="M373.75 483.264L265.3 508.941L290.977 617.39L399.426 591.714L373.75 483.264Z" stroke="#263238" stroke-linecap="round" stroke-linejoin="round"/>
<path d="M402.817 584.803C375.709 591.221 337.318 597.251 314.163 600.655C302.103 602.424 294.063 603.469 294.063 603.469C283.799 584.709 265.28 508.945 265.28 508.945L373.726 483.271C373.94 484.196 374.128 485.12 374.329 486.031C387.26 544.63 402.817 584.803 402.817 584.803Z" fill="white"/>
<mask id="mask1_2820_7121" style="mask-type:luminance" maskUnits="userSpaceOnUse" x="265" y="483" width="138" height="121">
<path d="M402.817 584.803C375.709 591.221 337.318 597.251 314.163 600.655C302.103 602.424 294.063 603.469 294.063 603.469C283.799 584.709 265.28 508.945 265.28 508.945L373.726 483.271C373.94 484.196 374.128 485.12 374.329 486.031C387.26 544.63 402.817 584.803 402.817 584.803Z" fill="white"/>
</mask>
<g mask="url(#mask1_2820_7121)">
<path opacity="0.4" d="M402.817 584.803C375.709 591.221 337.318 597.251 314.163 600.655C296.743 589.091 292.576 577.754 292.79 566.941C293.018 554.103 348.949 566.646 360.634 553.929C368.969 544.857 368.674 506.359 374.356 486.031C387.26 544.63 402.817 584.803 402.817 584.803Z" fill="#C8F05A"/>
</g>
<path d="M402.817 584.803C375.709 591.221 337.318 597.251 314.163 600.655C302.103 602.424 294.063 603.469 294.063 603.469C283.799 584.709 265.28 508.945 265.28 508.945L373.726 483.271C373.94 484.196 374.128 485.12 374.329 486.031C387.26 544.63 402.817 584.803 402.817 584.803Z" stroke="#263238" stroke-linecap="round" stroke-linejoin="round"/>
<path d="M283.611 525.347C285.082 523.632 286.847 522.194 288.824 521.099L290.432 525.226L296.046 523.19C297.922 522.506 300.066 521.622 300.723 519.759C301.755 522.211 305.319 521.796 307.852 520.992C325.387 515.347 343.298 510.946 361.452 507.82" stroke="#263238" stroke-linecap="round" stroke-linejoin="round"/>
<path d="M286.331 540.355C285.165 539.752 286.13 537.675 287.443 537.755C288.757 537.836 289.601 539.283 289.708 540.596C290.289 540.533 290.835 540.287 291.268 539.895C291.701 539.503 291.999 538.984 292.12 538.412L293.983 539.752C293.827 539.521 293.721 539.261 293.671 538.987C293.62 538.714 293.626 538.432 293.688 538.161C293.751 537.89 293.868 537.635 294.032 537.41C294.197 537.186 294.406 536.998 294.646 536.858C294.887 536.718 295.153 536.628 295.429 536.595C295.706 536.561 295.986 536.585 296.253 536.664C296.519 536.743 296.767 536.876 296.98 537.054C297.194 537.233 297.368 537.453 297.493 537.702C297.359 536.174 297.949 533.977 299.436 534.325C299.9 534.516 300.323 534.793 300.683 535.142C301.137 535.419 301.65 535.584 302.18 535.625C302.71 535.666 303.242 535.581 303.733 535.377C304.224 535.174 304.66 534.857 305.005 534.453C305.351 534.049 305.596 533.569 305.721 533.052C307.182 534.714 309.741 534.486 311.979 534.111L331.489 530.787C331.677 529.555 332.293 527.973 333.526 528.107C334.236 528.215 334.705 528.898 335.322 529.273C336.271 529.671 337.334 529.709 338.31 529.38C347.099 527.476 355.724 524.882 364.105 521.622" stroke="#263238" stroke-linecap="round" stroke-linejoin="round"/>
<path d="M293.058 557.44C295.664 557.668 298.289 557.306 300.736 556.381C300.303 555.466 300.193 554.431 300.425 553.446C300.656 552.46 301.214 551.582 302.009 550.954L304.368 552.469C313.864 552.243 323.305 550.939 332.508 548.583C336.621 547.524 340.695 546.264 344.755 544.991L367.884 537.782" stroke="#263238" stroke-linecap="round" stroke-linejoin="round"/>
<path opacity="0.2" d="M472.27 82.4234L470.112 82.5574C469.119 82.6727 468.116 82.4278 467.288 81.8672C466.459 81.3066 465.859 80.4675 465.596 79.5022C462.3 67.5092 450.24 60.769 436.317 61.64C423.748 62.4172 410.496 70.35 402.817 81.3112C401.874 82.7481 400.624 83.9582 399.158 84.8548C397.691 85.7514 396.044 86.3123 394.335 86.497L383.615 87.167C382.151 87.3023 380.683 86.9638 379.426 86.2015C378.169 85.4391 377.19 84.2932 376.634 82.9326C372.306 72.7084 361.331 66.2898 348.748 67.067C334.799 67.9246 320.381 76.2996 313.212 88.9492C312.645 89.9673 311.841 90.8338 310.869 91.4752C309.896 92.1167 308.783 92.5143 307.624 92.6342L305.466 92.7682C304.96 92.8239 304.486 93.042 304.114 93.3898C303.742 93.7376 303.492 94.1965 303.403 94.6978L302.559 100.058C302.507 100.238 302.493 100.426 302.519 100.611C302.545 100.797 302.609 100.975 302.707 101.134C302.806 101.293 302.936 101.429 303.091 101.535C303.245 101.64 303.42 101.712 303.604 101.746L306.203 102.537C307.212 102.837 308.084 103.478 308.671 104.351C309.258 105.224 309.522 106.274 309.419 107.321C308.508 124.486 320.622 137.095 337.868 136.037C354.497 135.005 370.322 121.578 375.495 105.029C375.932 103.689 376.694 102.479 377.714 101.506C378.734 100.533 379.978 99.8285 381.337 99.4548C385.024 98.4835 388.86 98.2108 392.647 98.6508C393.853 98.7914 394.963 99.3808 395.755 100.302C396.547 101.223 396.963 102.408 396.921 103.622C396.921 119.903 408.754 131.642 425.41 130.61C442.682 129.565 459.057 115.24 463.64 97.82C463.97 96.6141 464.577 95.5017 465.412 94.5712C466.247 93.6408 467.287 92.9179 468.451 92.46L471.358 91.3478C471.765 91.2094 472.127 90.965 472.407 90.6399C472.687 90.3148 472.876 89.9209 472.953 89.4986L473.811 84.1386C473.88 83.9166 473.891 83.6803 473.842 83.4529C473.792 83.2256 473.684 83.015 473.529 82.8419C473.373 82.6688 473.176 82.5392 472.955 82.4659C472.734 82.3925 472.498 82.3778 472.27 82.4234ZM338.605 131.508C322.525 132.499 311.657 119.876 314.257 103.368C316.856 86.8588 332.025 72.5476 348.065 71.623C364.105 70.6984 375.012 83.2542 372.399 99.763C369.786 116.272 354.644 130.516 338.605 131.508ZM377.183 96.279C377.246 95.3857 377.273 94.4611 377.264 93.5052C377.28 93.1233 377.432 92.7598 377.693 92.4799C377.953 92.1999 378.304 92.0219 378.684 91.9776L397.873 90.7984C398.039 90.7826 398.207 90.8104 398.36 90.8791C398.512 90.9477 398.645 91.0549 398.743 91.19C398.842 91.3252 398.904 91.4837 398.923 91.65C398.942 91.8162 398.917 91.9846 398.851 92.1384C398.556 93.063 398.288 93.9876 398.047 94.9256C389.793 92.527 381.552 94.6844 377.183 96.279ZM426.12 126.081C410.04 127.072 399.173 114.449 401.786 97.9406C404.399 81.4318 419.541 67.1206 435.58 66.196C451.62 65.2714 462.528 77.8272 459.928 94.336C457.329 110.845 442.2 125.089 426.12 126.081Z" fill="black" fill-opacity="0.7"/>
<path d="M458.508 85.76L335.549 102.081C332.646 102.467 329.856 103.457 327.358 104.987C324.861 106.517 322.712 108.554 321.051 110.965L303.054 137.149C302.889 137.392 302.781 137.67 302.739 137.961C302.696 138.252 302.719 138.548 302.806 138.829C302.894 139.11 303.044 139.367 303.244 139.582C303.445 139.797 303.692 139.964 303.966 140.07C305.171 140.534 306.498 140.577 307.731 140.193C308.964 139.808 310.031 139.019 310.759 137.953L327.402 113.833C328.392 112.389 329.672 111.167 331.16 110.244C332.648 109.321 334.312 108.718 336.045 108.473L458.95 91.053L458.508 85.76Z" fill="#263238"/>
<path d="M292.629 96.1048L416.633 94.0546C419.565 94.0134 422.474 94.5884 425.17 95.7426C427.866 96.8967 430.29 98.6043 432.284 100.755L453.965 123.99C454.165 124.205 454.314 124.463 454.4 124.744C454.486 125.025 454.507 125.321 454.462 125.611C454.417 125.902 454.306 126.178 454.139 126.419C453.972 126.661 453.752 126.861 453.496 127.005C452.374 127.645 451.069 127.887 449.792 127.692C448.516 127.498 447.342 126.878 446.461 125.933L426.428 104.493C425.23 103.208 423.777 102.187 422.162 101.495C420.547 100.803 418.805 100.455 417.048 100.473L292.911 101.411L292.629 96.1048Z" fill="#263238"/>
<path d="M367.79 103.997C369.317 104.279 369.25 114.717 365.793 118.242C362.336 121.766 358.798 113.19 359.696 110.108C360.594 107.026 363.006 103.086 367.79 103.997Z" fill="#ECFFA6" stroke="#263238" stroke-linecap="round" stroke-linejoin="round"/>
<path d="M389.337 102.657C387.863 103.14 389.216 113.377 393.076 116.553C396.935 119.729 399.4 110.671 398.127 107.736C396.854 104.801 393.96 101.17 389.337 102.657Z" fill="#ECFFA6" stroke="#263238" stroke-linecap="round" stroke-linejoin="round"/>
<path opacity="0.5" d="M312.515 79.5692C319 74.0216 332.735 64.5746 347.77 73.566C362.805 82.5574 367.991 92.326 364.909 105.552C361.827 118.778 352.353 136.466 330.069 133.384C307.785 130.302 292.375 96.8016 312.515 79.5692Z" fill="#ECFFA6"/>
<path opacity="0.5" d="M400.191 75.2946C406.677 69.747 420.398 60.2866 435.433 69.278C450.468 78.2694 455.667 88.038 452.572 101.264C449.476 114.49 440.029 132.178 417.732 129.096C395.434 126.014 380.037 92.46 400.191 75.2946Z" fill="#ECFFA6"/>
<path d="M461.067 83.884L458.91 84.018C457.841 84.0886 456.775 83.8461 455.842 83.3201C454.909 82.7941 454.15 82.0075 453.657 81.0566C447.681 69.4254 433.999 62.913 420.05 63.7706C413.889 64.1724 407.933 66.1442 402.749 69.4983C397.566 72.8524 393.327 77.4772 390.436 82.9326C389.742 84.351 388.689 85.5633 387.383 86.4495C386.076 87.3356 384.56 87.8647 382.985 87.9844L372.265 88.641C370.685 88.7241 369.11 88.3903 367.699 87.6729C366.288 86.9556 365.09 85.8801 364.225 84.554C360.682 79.4971 355.904 75.4311 350.345 72.7431C344.786 70.0551 338.631 68.8345 332.467 69.1976C318.518 70.0686 305.748 78.2158 301.259 90.5036C300.885 91.5069 300.228 92.3796 299.366 93.015C298.505 93.6504 297.477 94.021 296.408 94.0814L294.251 94.2154C293.78 94.2464 293.341 94.4627 293.029 94.8168C292.718 95.171 292.56 95.6341 292.589 96.1048L292.911 101.344C292.938 101.736 293.093 102.108 293.352 102.403C293.611 102.699 293.96 102.901 294.344 102.979L297.158 103.729C298.25 104.006 299.239 104.589 300.009 105.411C300.778 106.233 301.296 107.259 301.5 108.366C302.778 116.446 306.969 123.78 313.282 128.984C319.595 134.187 327.594 136.9 335.77 136.612C343.946 136.323 351.734 133.053 357.664 127.418C363.595 121.782 367.259 114.171 367.964 106.021C368.111 104.755 368.639 103.565 369.48 102.607C370.32 101.65 371.432 100.971 372.667 100.661C376.345 99.6897 380.172 99.417 383.95 99.8568C385.228 100.021 386.426 100.57 387.383 101.432C388.341 102.294 389.013 103.427 389.31 104.681C390.977 112.723 395.54 119.872 402.132 124.771C408.725 129.669 416.887 131.975 425.067 131.251C433.248 130.527 440.878 126.822 446.507 120.842C452.136 114.861 455.372 107.021 455.6 98.8116C455.66 97.6918 456.041 96.6129 456.697 95.7031C457.352 94.7933 458.255 94.0909 459.298 93.6794L461.978 92.5806C462.35 92.4554 462.67 92.2121 462.89 91.8879C463.11 91.5637 463.218 91.1764 463.198 90.785L462.863 85.5456C462.839 85.0895 462.637 84.6607 462.302 84.3505C461.967 84.0402 461.524 83.8729 461.067 83.884ZM336.34 131.762C330.587 132.12 324.856 130.764 319.874 127.864C314.893 124.964 310.883 120.651 308.353 115.471C305.823 110.292 304.887 104.478 305.663 98.7657C306.439 93.0537 308.892 87.7002 312.712 83.383C316.532 79.0658 321.547 75.9789 327.122 74.513C332.697 73.0471 338.581 73.2681 344.03 75.1481C349.48 77.0281 354.249 80.4825 357.734 85.0741C361.219 89.6657 363.264 95.1881 363.609 100.942C364.06 108.641 361.445 116.204 356.335 121.98C351.225 127.755 344.036 131.272 336.34 131.762ZM367.696 97.5118C367.549 96.6006 367.374 95.7028 367.16 94.8318C367.118 94.6594 367.115 94.4799 367.151 94.3062C367.187 94.1325 367.26 93.9687 367.367 93.8267C367.473 93.6847 367.609 93.5678 367.766 93.4844C367.922 93.4011 368.095 93.3533 368.272 93.3444L387.461 92.1518C387.642 92.1303 387.826 92.1501 387.998 92.2098C388.171 92.2695 388.327 92.3676 388.456 92.4966C388.585 92.6256 388.683 92.7822 388.743 92.9546C388.803 93.127 388.823 93.3106 388.801 93.4918C388.707 94.3762 388.64 95.2874 388.6 96.1718C381.675 94.4466 374.384 94.9148 367.736 97.5118H367.696ZM423.896 126.335C418.142 126.693 412.412 125.337 407.43 122.437C402.448 119.537 398.439 115.224 395.909 110.044C393.379 104.865 392.443 99.0507 393.219 93.3387C393.995 87.6267 396.448 82.2732 400.268 77.956C404.087 73.6388 409.102 70.5519 414.677 69.086C420.252 67.6201 426.137 67.8411 431.586 69.7211C437.035 71.6011 441.804 75.0555 445.29 79.6471C448.775 84.2387 450.819 89.7611 451.165 95.5152C451.62 103.208 449.011 110.768 443.909 116.543C438.807 122.318 431.626 125.839 423.936 126.335H423.896Z" fill="#757575" stroke="#263238" stroke-linecap="round" stroke-linejoin="round"/>
<path opacity="0.4" d="M314.9 121.458C314.9 121.458 304.18 107.267 311.738 90.785C318.558 75.9646 334.518 74.2762 342.089 77.385L325.62 106.222C327.135 99.1782 329.404 92.3181 332.387 85.76C332.387 85.76 317.835 100.5 314.9 121.458Z" fill="white"/>
<path opacity="0.4" d="M402.241 115.24C402.241 115.24 391.521 101.063 399.079 84.5808C405.899 69.747 421.859 68.0586 429.416 71.1808L412.894 99.964C414.14 89.6326 419.728 79.529 419.728 79.529C419.728 79.529 405.162 94.2556 402.241 115.24Z" fill="white"/>
<path opacity="0.2" d="M87.904 365.606L91.79 383.066L96.2254 363.301L84.5674 165.879H76.6212L87.904 365.606Z" fill="black" fill-opacity="0.7"/>
<path d="M80.802 163.48L91.79 362.068L87.77 378.403L81.9544 362.617L70.9396 164.016C70.9141 163.685 70.9549 163.353 71.0595 163.038C71.1642 162.723 71.3305 162.433 71.5489 162.183C71.7673 161.934 72.0333 161.73 72.3314 161.585C72.6294 161.439 72.9535 161.355 73.2846 161.336L78.1756 161.068C78.5074 161.05 78.8394 161.098 79.1521 161.211C79.4648 161.323 79.752 161.496 79.9967 161.721C80.2414 161.946 80.4387 162.217 80.577 162.519C80.7153 162.821 80.7918 163.148 80.802 163.48Z" fill="#ECFFA6"/>
<mask id="mask2_2820_7121" style="mask-type:luminance" maskUnits="userSpaceOnUse" x="70" y="161" width="22" height="218">
<path d="M80.802 163.48L91.79 362.068L87.77 378.403L81.9544 362.617L70.9396 164.016C70.9141 163.685 70.9549 163.353 71.0595 163.038C71.1642 162.723 71.3305 162.433 71.5489 162.183C71.7673 161.934 72.0333 161.73 72.3314 161.585C72.6294 161.439 72.9535 161.355 73.2846 161.336L78.1756 161.068C78.5074 161.05 78.8394 161.098 79.1521 161.211C79.4648 161.323 79.752 161.496 79.9967 161.721C80.2414 161.946 80.4387 162.217 80.577 162.519C80.7153 162.821 80.7918 163.148 80.802 163.48Z" fill="white"/>
</mask>
<g mask="url(#mask2_2820_7121)">
<path opacity="0.2" d="M87.7432 378.403L81.9276 362.617L70.9396 164.016C70.9141 163.685 70.9549 163.353 71.0595 163.038C71.1642 162.723 71.3305 162.433 71.5489 162.183C71.7673 161.934 72.0333 161.73 72.3314 161.585C72.6294 161.439 72.9535 161.355 73.2846 161.336H73.968L85.0364 361.385L87.7432 378.403Z" fill="black" fill-opacity="0.7"/>
</g>
<path d="M80.802 163.48L91.79 362.068L87.77 378.403L81.9544 362.617L70.9396 164.016C70.9141 163.685 70.9549 163.353 71.0595 163.038C71.1642 162.723 71.3305 162.433 71.5489 162.183C71.7673 161.934 72.0333 161.73 72.3314 161.585C72.6294 161.439 72.9535 161.355 73.2846 161.336L78.1756 161.068C78.5074 161.05 78.8394 161.098 79.1521 161.211C79.4648 161.323 79.752 161.496 79.9967 161.721C80.2414 161.946 80.4387 162.217 80.577 162.519C80.7153 162.821 80.7918 163.148 80.802 163.48Z" stroke="#263238" stroke-width="0.51" stroke-linecap="round" stroke-linejoin="round"/>
<path d="M74.1556 164.82L84.8756 359.777C84.8876 359.998 84.9433 360.216 85.0394 360.416C85.1355 360.616 85.2702 360.796 85.4358 360.944C85.6013 361.092 85.7945 361.206 86.0042 361.279C86.2139 361.353 86.436 361.384 86.6578 361.371H87.837" fill="#D1E872"/>
<path d="M74.1556 164.82L84.8756 359.777C84.8876 359.998 84.9433 360.216 85.0394 360.416C85.1355 360.616 85.2702 360.796 85.4358 360.944C85.6013 361.092 85.7945 361.206 86.0042 361.279C86.2139 361.353 86.436 361.384 86.6578 361.371H87.837" stroke="#263238" stroke-width="0.51" stroke-linecap="round" stroke-linejoin="round"/>
<path opacity="0.2" d="M122.945 402.616L159.272 165.262C160.392 157.965 164.363 151.411 170.314 147.042C176.264 142.672 183.706 140.844 191.004 141.96L539.819 195.359C543.433 195.91 546.903 197.167 550.03 199.06C553.158 200.952 555.882 203.442 558.047 206.388C560.212 209.333 561.776 212.676 562.649 216.226C563.522 219.776 563.687 223.463 563.135 227.076L526.794 464.431C526.246 468.046 524.991 471.519 523.1 474.649C521.208 477.779 518.719 480.505 515.773 482.672C512.827 484.839 509.482 486.403 505.931 487.277C502.38 488.15 498.691 488.314 495.076 487.76L146.248 434.348C138.951 433.228 132.397 429.257 128.027 423.306C123.657 417.356 121.829 409.914 122.945 402.616Z" fill="black" fill-opacity="0.7"/>
<path d="M150.94 174.192L153.699 156.165C153.752 155.813 153.943 155.498 154.23 155.287C154.516 155.077 154.875 154.989 155.226 155.043L162.829 156.206L159.667 176.87L152.064 175.706C151.715 175.653 151.401 175.464 151.191 175.18C150.98 174.897 150.89 174.542 150.94 174.192Z" fill="#ECFFA6" stroke="#263238" stroke-width="0.51" stroke-linecap="round" stroke-linejoin="round"/>
<path d="M198.168 136.224L216.196 138.982C216.547 139.036 216.863 139.227 217.073 139.514C217.283 139.8 217.371 140.158 217.318 140.51L216.154 148.113L195.491 144.951L196.654 137.348C196.708 136.999 196.897 136.685 197.18 136.474C197.464 136.264 197.819 136.174 198.168 136.224Z" fill="#ECFFA6" stroke="#263238" stroke-width="0.51" stroke-linecap="round" stroke-linejoin="round"/>
<path d="M222.738 139.976L240.765 142.735C241.117 142.789 241.432 142.98 241.643 143.266C241.853 143.553 241.941 143.911 241.887 144.262L240.724 151.865L220.06 148.703L221.224 141.1C221.277 140.751 221.466 140.437 221.75 140.227C222.033 140.016 222.388 139.926 222.738 139.976Z" fill="#ECFFA6" stroke="#263238" stroke-width="0.51" stroke-linecap="round" stroke-linejoin="round"/>
<path d="M118.925 397.256L155.252 159.902C156.372 152.605 160.343 146.051 166.294 141.682C172.244 137.312 179.686 135.484 186.984 136.6L535.799 189.999C539.413 190.55 542.883 191.807 546.01 193.7C549.138 195.592 551.862 198.082 554.027 201.028C556.192 203.973 557.756 207.316 558.629 210.866C559.502 214.416 559.667 218.103 559.115 221.716L522.774 459.071C522.226 462.686 520.971 466.159 519.08 469.289C517.188 472.419 514.699 475.145 511.753 477.312C508.807 479.479 505.462 481.043 501.911 481.917C498.36 482.79 494.671 482.954 491.056 482.4L142.228 428.988C134.931 427.868 128.377 423.897 124.007 417.946C119.637 411.996 117.809 404.554 118.925 397.256Z" fill="#ECFFA6" stroke="#263238" stroke-width="0.51" stroke-linecap="round" stroke-linejoin="round"/>
<path d="M492.423 479.439L141.799 425.772C138.707 425.301 135.739 424.225 133.063 422.606C130.387 420.987 128.057 418.857 126.205 416.337C124.354 413.817 123.017 410.956 122.271 407.919C121.525 404.882 121.386 401.728 121.86 398.637L158.468 159.46C159.423 153.218 162.818 147.61 167.907 143.871C172.995 140.132 179.361 138.567 185.603 139.521L536.241 193.188C542.483 194.149 548.088 197.548 551.827 202.637C555.565 207.727 557.131 214.093 556.18 220.336L519.572 459.499C519.099 462.592 518.022 465.56 516.402 468.236C514.781 470.912 512.65 473.242 510.129 475.094C507.607 476.945 504.746 478.282 501.708 479.028C498.67 479.773 495.515 479.913 492.423 479.439Z" fill="#757575" stroke="#263238" stroke-linecap="round" stroke-linejoin="round"/>
<path d="M146.06 279.953C146.016 280.212 145.896 280.453 145.715 280.644C145.535 280.836 145.302 280.97 145.046 281.03C144.79 281.091 144.522 281.074 144.275 280.983C144.029 280.892 143.814 280.73 143.658 280.518C143.503 280.306 143.413 280.053 143.401 279.79C143.388 279.527 143.453 279.266 143.588 279.04C143.723 278.814 143.921 278.633 144.158 278.519C144.395 278.405 144.66 278.363 144.921 278.398C145.099 278.423 145.271 278.483 145.425 278.575C145.58 278.667 145.714 278.789 145.82 278.934C145.927 279.079 146.003 279.244 146.044 279.419C146.085 279.594 146.09 279.776 146.06 279.953Z" fill="#999999" stroke="#263238" stroke-linecap="round" stroke-linejoin="round"/>
<path d="M145.403 292.428C145.268 293.084 144.886 293.664 144.336 294.046C143.786 294.429 143.111 294.586 142.448 294.484C141.786 294.383 141.188 294.031 140.778 293.501C140.368 292.971 140.177 292.304 140.244 291.638C140.38 290.981 140.761 290.402 141.311 290.019C141.861 289.637 142.537 289.48 143.2 289.582C143.862 289.683 144.46 290.035 144.87 290.565C145.28 291.095 145.471 291.762 145.403 292.428Z" fill="#263238"/>
<path d="M150 262.399C149.865 263.055 149.483 263.634 148.933 264.017C148.383 264.4 147.707 264.556 147.044 264.455C146.382 264.353 145.784 264.001 145.374 263.472C144.964 262.942 144.773 262.275 144.841 261.608C144.876 261.256 144.984 260.914 145.155 260.604C145.327 260.294 145.561 260.023 145.841 259.806C146.121 259.589 146.442 259.431 146.785 259.342C147.128 259.254 147.486 259.236 147.836 259.289C148.186 259.343 148.522 259.467 148.823 259.655C149.123 259.842 149.383 260.089 149.585 260.38C149.788 260.671 149.929 261 150 261.347C150.071 261.694 150.071 262.052 150 262.399Z" fill="#263238"/>
<path d="M143.38 300.857C143.323 301.229 143.157 301.575 142.903 301.853C142.648 302.13 142.318 302.326 141.952 302.415C141.587 302.505 141.203 302.484 140.85 302.356C140.496 302.227 140.189 301.997 139.966 301.694C139.743 301.39 139.615 301.028 139.599 300.652C139.582 300.276 139.677 299.904 139.871 299.582C140.066 299.26 140.352 299.003 140.693 298.844C141.033 298.684 141.414 298.629 141.785 298.686C142.033 298.724 142.27 298.81 142.484 298.939C142.698 299.069 142.885 299.239 143.033 299.441C143.181 299.642 143.288 299.871 143.348 300.114C143.407 300.357 143.418 300.61 143.38 300.857Z" fill="#263238"/>
<path d="M547.377 216.222L509.95 460.799C509.478 463.882 507.801 466.65 505.289 468.497C502.776 470.344 499.633 471.118 496.55 470.648L202.809 425.691L196.444 424.78L172.498 421.108L160.907 419.34L144.157 416.74L140.499 416.177C137.417 415.705 134.648 414.028 132.801 411.516C130.955 409.003 130.181 405.86 130.65 402.777L168.09 158.12C168.322 156.593 168.853 155.128 169.652 153.807C170.452 152.486 171.504 151.336 172.749 150.422C173.994 149.508 175.406 148.849 176.906 148.482C178.406 148.116 179.964 148.048 181.49 148.284L291.142 165.061L307.731 167.607L323.583 170.033L343.951 173.141L351.321 174.267L537.581 202.769C539.108 203.009 540.572 203.547 541.891 204.353C543.21 205.159 544.356 206.217 545.266 207.466C546.176 208.716 546.83 210.132 547.192 211.634C547.555 213.137 547.617 214.696 547.377 216.222Z" fill="#263238"/>
<g opacity="0.1">
<path d="M272.02 423.44L147.4 404.372C146.59 404.246 145.863 403.805 145.379 403.144C144.894 402.484 144.691 401.658 144.814 400.848L157.182 320.005C157.311 319.195 157.755 318.468 158.418 317.983C159.08 317.499 159.908 317.296 160.72 317.419L285.34 336.487C285.741 336.548 286.127 336.687 286.475 336.897C286.823 337.107 287.125 337.384 287.366 337.712C287.606 338.039 287.779 338.411 287.875 338.806C287.971 339.2 287.989 339.61 287.926 340.012L275.558 420.854C275.496 421.256 275.355 421.642 275.143 421.99C274.932 422.338 274.654 422.64 274.325 422.881C273.997 423.121 273.624 423.294 273.228 423.39C272.833 423.486 272.422 423.503 272.02 423.44ZM160.599 318.491C160.338 318.451 160.071 318.463 159.814 318.527C159.558 318.59 159.316 318.703 159.103 318.86C158.89 319.017 158.71 319.214 158.574 319.441C158.437 319.667 158.347 319.918 158.308 320.18L145.939 401.008C145.899 401.27 145.911 401.536 145.975 401.793C146.038 402.05 146.151 402.292 146.308 402.504C146.465 402.717 146.662 402.897 146.889 403.034C147.115 403.17 147.366 403.261 147.628 403.3L272.181 422.368C272.442 422.408 272.709 422.396 272.966 422.333C273.222 422.269 273.464 422.156 273.677 421.999C273.89 421.842 274.07 421.645 274.206 421.419C274.342 421.192 274.433 420.941 274.472 420.68L286.854 339.851C286.931 339.322 286.797 338.784 286.482 338.353C286.166 337.922 285.693 337.632 285.165 337.546L160.599 318.491Z" fill="white"/>
</g>
<path opacity="0.4" d="M198.186 367.415L226.085 383.24C229.039 377.822 230.412 371.684 230.047 365.524C229.682 359.364 227.594 353.431 224.021 348.4L198.186 367.415Z" fill="#ECFFA6"/>
<path opacity="0.6" d="M198.454 365.82L223.378 347.502C220.01 343.065 215.57 339.556 210.474 337.305L205.556 348.963L198.454 365.82Z" fill="#ECFFA6"/>
<path d="M202.702 335L198.387 363.14L209.482 336.836C207.294 335.985 205.021 335.37 202.702 335Z" fill="#ECFFA6"/>
<path opacity="0.1" d="M196.712 367.08L201.63 334.92C195.982 334.148 190.23 334.857 184.939 336.977C179.647 339.098 174.997 342.557 171.445 347.015C167.893 351.474 165.561 356.779 164.677 362.411C163.792 368.042 164.387 373.807 166.401 379.14L196.712 367.08Z" fill="white"/>
<path opacity="0.2" d="M192.21 399.99C198.712 400.984 205.363 400.008 211.305 397.188C217.247 394.367 222.208 389.831 225.549 384.165L197.154 368.085L166.79 380.078C168.958 385.302 172.436 389.879 176.888 393.367C181.341 396.855 186.618 399.136 192.21 399.99Z" fill="#ECFFA6"/>
<path d="M248.92 348.061L245.224 347.495C244.763 347.425 244.332 347.741 244.262 348.202L243.696 351.898C243.626 352.358 243.942 352.789 244.403 352.86L248.099 353.425C248.56 353.496 248.99 353.179 249.061 352.718L249.626 349.023C249.697 348.562 249.38 348.131 248.92 348.061Z" fill="#ECFFA6"/>
<path d="M269.005 353.157L252.858 350.678C252.777 350.667 252.698 350.639 252.628 350.597C252.557 350.555 252.496 350.499 252.447 350.433C252.399 350.367 252.364 350.291 252.344 350.212C252.325 350.132 252.322 350.049 252.335 349.968C252.347 349.886 252.374 349.808 252.416 349.738C252.459 349.667 252.514 349.606 252.58 349.557C252.647 349.508 252.722 349.473 252.802 349.454C252.882 349.435 252.965 349.432 253.046 349.445L269.126 351.924C269.207 351.936 269.285 351.963 269.356 352.005C269.426 352.047 269.488 352.103 269.536 352.169C269.585 352.235 269.62 352.311 269.639 352.391C269.658 352.47 269.661 352.553 269.648 352.634C269.62 352.783 269.54 352.917 269.422 353.013C269.304 353.109 269.157 353.16 269.005 353.157Z" fill="#ECFFA6"/>
<path d="M263.658 355.1L252.443 353.385C252.361 353.373 252.283 353.346 252.212 353.304C252.142 353.262 252.08 353.206 252.032 353.14C251.983 353.074 251.948 352.998 251.929 352.918C251.91 352.839 251.907 352.756 251.92 352.675C251.946 352.512 252.036 352.366 252.168 352.268C252.301 352.171 252.467 352.129 252.63 352.152L263.846 353.867C263.927 353.879 264.006 353.906 264.076 353.948C264.147 353.99 264.208 354.046 264.257 354.112C264.305 354.178 264.34 354.254 264.36 354.334C264.379 354.413 264.382 354.496 264.369 354.577C264.357 354.659 264.33 354.737 264.288 354.808C264.245 354.878 264.19 354.94 264.124 354.988C264.057 355.037 263.982 355.072 263.902 355.091C263.822 355.11 263.739 355.113 263.658 355.1Z" fill="#ECFFA6"/>
<path opacity="0.6" d="M247.084 360.067L243.389 359.501C242.928 359.431 242.497 359.747 242.427 360.208L241.861 363.904C241.791 364.364 242.107 364.795 242.568 364.866L246.263 365.431C246.724 365.502 247.155 365.185 247.226 364.724L247.791 361.029C247.862 360.568 247.545 360.137 247.084 360.067Z" fill="#ECFFA6"/>
<path d="M267.169 365.15L251.009 362.684C250.848 362.655 250.704 362.565 250.607 362.433C250.51 362.301 250.467 362.137 250.486 361.974C250.513 361.811 250.602 361.666 250.735 361.568C250.867 361.47 251.033 361.428 251.196 361.452L267.357 363.931C267.437 363.943 267.514 363.971 267.583 364.013C267.652 364.055 267.713 364.11 267.761 364.176C267.808 364.241 267.843 364.315 267.862 364.394C267.882 364.472 267.885 364.554 267.873 364.634C267.86 364.714 267.832 364.791 267.79 364.86C267.748 364.93 267.693 364.99 267.628 365.038C267.563 365.086 267.488 365.12 267.41 365.14C267.331 365.159 267.249 365.162 267.169 365.15Z" fill="#ECFFA6"/>
<path d="M261.823 367.08L250.58 365.364C250.435 365.321 250.31 365.226 250.229 365.098C250.148 364.97 250.116 364.817 250.139 364.667C250.162 364.517 250.238 364.38 250.353 364.282C250.469 364.184 250.616 364.13 250.768 364.132L261.983 365.847C262.065 365.858 262.143 365.886 262.214 365.928C262.284 365.97 262.346 366.026 262.394 366.092C262.443 366.158 262.478 366.233 262.497 366.313C262.516 366.393 262.519 366.476 262.506 366.557C262.483 366.716 262.398 366.86 262.271 366.957C262.143 367.055 261.982 367.099 261.823 367.08Z" fill="#ECFFA6"/>
<path opacity="0.4" d="M245.249 372.073L241.554 371.507C241.093 371.437 240.662 371.753 240.591 372.214L240.026 375.909C239.955 376.37 240.272 376.801 240.733 376.872L244.428 377.437C244.889 377.508 245.32 377.191 245.391 376.73L245.956 373.035C246.027 372.574 245.71 372.143 245.249 372.073Z" fill="#ECFFA6"/>
<path d="M265.32 377.156L249.24 374.691C249.095 374.647 248.97 374.552 248.889 374.424C248.808 374.296 248.776 374.143 248.799 373.993C248.822 373.843 248.898 373.706 249.013 373.608C249.129 373.51 249.276 373.457 249.428 373.458L265.508 375.924C265.589 375.935 265.667 375.963 265.738 376.005C265.808 376.047 265.87 376.103 265.918 376.169C265.967 376.235 266.002 376.31 266.021 376.39C266.04 376.47 266.043 376.553 266.03 376.634C266.019 376.715 265.991 376.793 265.949 376.864C265.907 376.934 265.851 376.996 265.785 377.045C265.719 377.093 265.644 377.128 265.564 377.147C265.484 377.167 265.401 377.17 265.32 377.156Z" fill="#ECFFA6"/>
<path d="M259.96 379.086L248.744 377.371C248.599 377.327 248.474 377.232 248.393 377.104C248.312 376.976 248.28 376.823 248.303 376.673C248.326 376.523 248.402 376.386 248.518 376.288C248.633 376.19 248.78 376.137 248.932 376.138L260.148 377.853C260.293 377.897 260.417 377.992 260.498 378.12C260.579 378.248 260.611 378.401 260.589 378.551C260.566 378.701 260.49 378.838 260.374 378.936C260.259 379.034 260.112 379.087 259.96 379.086Z" fill="#ECFFA6"/>
<path opacity="0.2" d="M243.414 384.079L239.718 383.513C239.258 383.443 238.827 383.759 238.756 384.22L238.191 387.915C238.12 388.376 238.437 388.807 238.898 388.878L242.593 389.443C243.054 389.514 243.485 389.197 243.555 388.736L244.121 385.041C244.191 384.58 243.875 384.149 243.414 384.079Z" fill="#ECFFA6"/>
<path d="M263.484 389.163L247.404 386.697C247.241 386.671 247.096 386.582 246.998 386.449C246.9 386.316 246.858 386.15 246.882 385.987C246.893 385.906 246.921 385.827 246.963 385.757C247.005 385.686 247.061 385.625 247.127 385.576C247.193 385.528 247.268 385.493 247.348 385.473C247.428 385.454 247.511 385.451 247.592 385.464L263.739 387.93C263.82 387.941 263.898 387.969 263.969 388.011C264.04 388.053 264.101 388.109 264.15 388.175C264.198 388.241 264.233 388.316 264.252 388.396C264.272 388.476 264.275 388.559 264.261 388.64C264.251 388.729 264.222 388.814 264.175 388.89C264.129 388.966 264.067 389.031 263.993 389.08C263.919 389.13 263.836 389.163 263.748 389.177C263.66 389.192 263.57 389.187 263.484 389.163Z" fill="#ECFFA6"/>
<path d="M258.151 391.092L246.935 389.377C246.854 389.366 246.776 389.338 246.705 389.296C246.635 389.254 246.573 389.198 246.524 389.132C246.476 389.066 246.441 388.991 246.422 388.911C246.402 388.831 246.399 388.748 246.413 388.667C246.424 388.586 246.452 388.507 246.494 388.437C246.536 388.366 246.592 388.305 246.658 388.256C246.724 388.208 246.799 388.173 246.879 388.153C246.959 388.134 247.042 388.131 247.123 388.144L258.339 389.86C258.501 389.886 258.647 389.975 258.745 390.108C258.843 390.241 258.884 390.407 258.861 390.57C258.85 390.651 258.822 390.729 258.78 390.8C258.738 390.87 258.682 390.932 258.616 390.981C258.55 391.029 258.475 391.064 258.395 391.083C258.315 391.103 258.232 391.106 258.151 391.092Z" fill="#ECFFA6"/>
<path opacity="0.1" d="M241.579 396.098L237.883 395.532C237.422 395.462 236.992 395.778 236.921 396.239L236.356 399.935C236.285 400.396 236.602 400.826 237.062 400.897L240.758 401.463C241.219 401.533 241.65 401.217 241.72 400.756L242.286 397.06C242.356 396.599 242.04 396.168 241.579 396.098Z" fill="#ECFFA6"/>
<path d="M261.648 401.169L245.568 398.704C245.406 398.677 245.26 398.588 245.162 398.455C245.064 398.322 245.023 398.157 245.046 397.993C245.057 397.912 245.085 397.834 245.127 397.763C245.169 397.693 245.225 397.631 245.291 397.583C245.357 397.534 245.432 397.499 245.512 397.48C245.592 397.461 245.675 397.457 245.756 397.471L261.903 399.936C261.984 399.948 262.063 399.975 262.133 400.017C262.204 400.06 262.265 400.115 262.314 400.181C262.362 400.248 262.397 400.323 262.417 400.403C262.436 400.483 262.439 400.565 262.426 400.647C262.415 400.735 262.386 400.82 262.34 400.896C262.293 400.972 262.231 401.037 262.157 401.087C262.083 401.136 262 401.17 261.912 401.184C261.824 401.198 261.734 401.193 261.648 401.169Z" fill="#ECFFA6"/>
<path d="M256.315 403.099L245.086 401.384C245.006 401.371 244.929 401.342 244.86 401.299C244.791 401.256 244.731 401.2 244.684 401.134C244.636 401.068 244.603 400.994 244.584 400.915C244.566 400.835 244.563 400.753 244.577 400.673C244.586 400.591 244.613 400.512 244.654 400.44C244.696 400.369 244.752 400.307 244.818 400.258C244.885 400.209 244.961 400.174 245.042 400.156C245.122 400.137 245.206 400.136 245.287 400.151L256.503 401.866C256.593 401.867 256.682 401.887 256.764 401.925C256.845 401.964 256.918 402.019 256.976 402.088C257.035 402.156 257.078 402.237 257.103 402.323C257.127 402.41 257.133 402.501 257.12 402.59C257.106 402.68 257.073 402.765 257.024 402.84C256.975 402.916 256.91 402.98 256.833 403.028C256.757 403.076 256.671 403.108 256.582 403.12C256.493 403.132 256.402 403.125 256.315 403.099Z" fill="#ECFFA6"/>
<g opacity="0.1">
<path d="M506.734 370.349L304.18 339.355C303.368 339.232 302.541 339.434 301.878 339.919C301.215 340.403 300.771 341.13 300.642 341.941L299.785 347.516L299.624 348.588L298.472 356.105L298.311 357.177L297.158 364.681L296.998 365.74L295.845 373.257L295.684 374.316L294.532 381.833L294.371 382.905L293.219 390.409L293.058 391.481L291.906 398.985L291.745 400.057L290.592 407.561L290.432 408.633L289.279 416.137L289.118 417.209L288.274 422.783C288.211 423.186 288.228 423.596 288.324 423.992C288.42 424.387 288.593 424.76 288.834 425.089C289.074 425.417 289.377 425.695 289.724 425.907C290.072 426.118 290.458 426.259 290.86 426.321L493.375 457.315C494.185 457.434 495.009 457.228 495.667 456.74C496.325 456.253 496.763 455.525 496.885 454.716L497.743 449.141L497.904 448.069L499.056 440.565L499.217 439.493L500.369 431.976L500.53 430.917L501.683 423.413L501.843 422.341L502.996 414.837L503.157 413.765L504.309 406.248L504.47 405.189L505.622 397.672L505.783 396.613L506.935 389.109L507.096 388.037L508.249 380.52L508.409 379.448L509.267 373.873C509.391 373.071 509.196 372.252 508.722 371.593C508.248 370.934 507.534 370.487 506.734 370.349ZM495.88 454.555C495.798 455.081 495.511 455.554 495.082 455.87C494.653 456.186 494.116 456.32 493.589 456.243L291.088 425.249C290.558 425.166 290.082 424.878 289.764 424.446C289.445 424.015 289.309 423.475 289.386 422.944L290.244 417.37L496.725 448.98L495.88 454.555ZM496.899 447.855L290.405 416.258L291.557 408.74L498.038 440.351L496.899 447.855ZM498.239 439.279L291.718 407.735L292.87 400.218L499.351 431.815L498.239 439.279ZM499.579 430.703L293.085 399.092L294.237 391.588L500.718 423.185L499.579 430.703ZM500.919 422.127L294.425 390.516L295.577 383.012L502.058 414.623L500.919 422.127ZM502.259 413.551L295.765 381.94L296.917 374.423L503.398 406.033L502.259 413.551ZM503.599 404.961L297.105 373.364L298.257 365.86L504.738 397.457L503.599 404.961ZM504.939 396.385L298.284 364.842L299.436 357.338L505.917 388.935L504.939 396.385ZM506.279 387.823L299.597 356.266L300.75 348.748L507.23 380.359L506.279 387.823ZM301.111 347.623L301.969 342.062C302.008 341.8 302.099 341.549 302.235 341.323C302.372 341.096 302.552 340.899 302.764 340.742C302.977 340.585 303.219 340.472 303.476 340.409C303.732 340.345 303.999 340.333 304.26 340.373L506.52 371.421C507.046 371.504 507.517 371.791 507.831 372.221C508.145 372.65 508.276 373.187 508.195 373.713L507.337 379.287L301.111 347.623Z" fill="white"/>
</g>
<g opacity="0.1">
<path d="M528.362 226.085L183.285 173.262C182.827 173.192 182.359 173.212 181.908 173.323C181.458 173.434 181.034 173.633 180.66 173.908C180.287 174.183 179.971 174.529 179.732 174.927C179.493 175.324 179.334 175.765 179.265 176.223L159.929 302.545C159.79 303.469 160.022 304.41 160.575 305.163C161.127 305.916 161.955 306.42 162.877 306.565L507.967 359.388C508.891 359.527 509.832 359.295 510.585 358.742C511.338 358.19 511.842 357.363 511.987 356.44L531.323 230.105C531.394 229.646 531.373 229.178 531.262 228.728C531.151 228.278 530.953 227.853 530.677 227.48C530.402 227.106 530.056 226.791 529.659 226.552C529.262 226.312 528.821 226.154 528.362 226.085ZM246.962 244.242L270.921 247.9L268.831 261.514L244.831 257.843L246.962 244.242ZM243.813 257.642L219.76 254.037L221.85 240.409L245.85 244.081L243.813 257.642ZM272.02 248.088L296.033 251.759L293.942 265.387L269.943 261.715L272.02 248.088ZM396.479 266.044L372.48 262.372L374.557 248.744L398.57 252.416L396.479 266.044ZM399.628 252.644L423.641 256.315L421.551 269.943L397.551 266.271L399.628 252.644ZM322.163 255.833L346.176 259.504L344.085 273.132L320.046 269.34L322.163 255.833ZM319.014 269.233L295.014 265.561L297.051 251.92L321.064 255.592L319.014 269.233ZM347.234 259.612L371.18 263.27L369.09 276.898L345.09 273.226L347.234 259.612ZM372.306 263.444L396.318 267.116L394.228 280.743L370.229 277.072L372.306 263.444ZM371.408 262.211L347.408 258.54L349.485 244.912L373.498 248.597L371.408 262.211ZM346.336 258.379L322.337 254.707L324.414 241.079L348.4 244.738L346.336 258.379ZM321.225 254.6L297.225 250.915L299.302 237.18L323.315 240.852L321.225 254.6ZM296.14 250.687L272.141 247.016L274.218 233.388L298.23 237.059L296.14 250.687ZM293.728 266.459L291.651 280.06L267.652 276.388L269.742 262.761L293.728 266.459ZM294.8 266.62L318.799 270.291L316.709 283.919L292.71 280.248L294.8 266.62ZM319.871 270.452L343.871 274.124L341.78 287.752L317.794 284.08L319.871 270.452ZM344.943 274.285L368.942 277.97L366.852 291.584L342.852 287.912L344.943 274.285ZM370.014 278.13L394.014 281.802L391.923 295.43L367.924 291.758L370.014 278.13ZM395.086 281.963L419.085 285.634L416.995 299.262L392.995 295.591L395.086 281.963ZM395.246 280.904L397.323 267.276L421.336 270.948L419.246 284.576L395.246 280.904ZM422.395 271.109L446.408 274.78L444.317 288.408L420.318 284.737L422.395 271.109ZM447.466 274.941L471.479 278.626L469.389 292.241L445.389 288.569L447.466 274.941ZM447.64 273.883L449.717 260.255L473.744 263.98L471.68 277.554L447.64 273.883ZM446.568 273.722L422.569 270.037L424.646 256.409L448.659 260.094L446.568 273.722ZM424.78 255.35L426.87 241.723L450.87 245.394L448.9 259.022L424.78 255.35ZM423.721 255.19L399.722 251.505L401.799 237.89L425.798 241.562L423.721 255.19ZM398.65 251.344L374.637 247.672L376.728 234.044L400.727 237.716L398.65 251.344ZM373.579 247.511L349.606 243.88L351.696 230.252L375.696 233.924L373.579 247.511ZM348.507 243.666L324.548 239.994L326.625 226.366L350.624 230.051L348.507 243.666ZM323.476 239.86L299.477 236.188L301.5 222.534L325.62 226.205L323.476 239.86ZM298.405 236.028L274.392 232.356L276.482 218.728L300.482 222.44L298.405 236.028ZM273.36 232.155L249.361 228.483L251.438 214.856L275.437 218.541L273.36 232.155ZM273.199 233.227L271.109 246.855L247.109 243.183L249.186 229.555L273.199 233.227ZM246.037 243.022L222.038 239.337L224.115 225.71L248.128 229.395L246.037 243.022ZM220.966 239.177L196.98 235.505L199.057 221.877L223.07 225.549L220.966 239.177ZM220.805 240.249L218.715 253.876L194.715 250.205L196.806 236.577L220.805 240.249ZM218.554 254.989L216.464 268.616L192.464 264.945L194.555 251.317L218.554 254.989ZM219.626 255.163L243.625 258.834L241.535 272.462L217.536 268.777L219.626 255.163ZM244.697 258.995L268.67 262.64L266.58 276.268L242.54 272.569L244.697 258.995ZM266.419 277.38L264.328 291.008L240.329 287.323L242.419 273.695L266.419 277.38ZM267.491 277.541L291.49 281.212L289.44 294.8L265.427 291.128L267.491 277.541ZM292.562 281.373L316.562 285.045L314.471 298.673L290.472 295.001L292.562 281.373ZM317.58 285.152L341.7 288.824L339.61 302.451L315.543 298.82L317.58 285.152ZM342.651 288.984L366.651 292.656L364.56 306.284L340.561 302.612L342.651 288.984ZM367.723 292.817L391.722 296.502L389.632 310.116L365.632 306.445L367.723 292.817ZM392.794 296.663L416.794 300.334L414.703 313.962L390.704 310.29L392.794 296.663ZM417.866 300.495L441.919 304.18L439.828 317.808L415.829 314.136L417.866 300.495ZM418.026 299.423L420.117 285.809L444.17 289.44L442.079 303.068L418.026 299.423ZM445.188 289.641L469.188 293.313L467.097 306.94L443.098 303.269L445.188 289.641ZM470.34 293.46L494.339 297.132L492.249 310.759L468.25 307.088L470.34 293.46ZM470.501 292.401L472.578 278.774L496.591 282.445L494.46 296.14L470.501 292.401ZM472.752 277.661L474.829 264.034L498.842 267.705L496.725 281.4L472.752 277.661ZM474.99 262.921L477.04 249.401L501.039 253.072L498.976 266.66L474.99 262.921ZM473.931 262.747L449.918 259.076L452.009 245.448L475.981 249.24L473.931 262.747ZM452.17 244.389L454.26 230.869L478.233 234.5L476.156 248.128L452.17 244.389ZM451.111 244.215L427.098 240.543L429.189 226.916L453.188 230.601L451.111 244.215ZM426.04 240.383L402 236.818L404.09 223.19L428.09 226.862L426.04 240.383ZM400.968 236.55L376.955 232.879L379.046 219.251L403.045 222.922L400.968 236.55ZM375.897 232.704L351.857 229.14L353.948 215.512L377.947 219.184L375.897 232.704ZM350.825 228.872L326.813 225.2L328.876 211.72L352.876 215.392L350.825 228.872ZM325.727 225.12L301.714 221.435L303.805 207.821L327.804 211.492L325.727 225.12ZM300.656 221.274L276.643 217.603L278.72 204.002L302.733 207.7L300.656 221.274ZM275.584 217.442L251.572 213.77L253.662 200.142L277.661 203.814L275.584 217.442ZM250.58 213.623L226.46 209.951L228.55 196.323L252.55 200.008L250.58 213.623ZM250.406 214.695L248.329 228.323L224.329 224.651L226.406 211.023L250.406 214.695ZM223.257 224.49L199.258 220.805L201.335 207.191L225.334 210.862L223.257 224.49ZM198.186 220.644L174.187 216.973L176.264 203.345L200.276 207.017L198.186 220.644ZM198.025 221.716L195.935 235.344L171.935 231.673L174.012 218.045L198.025 221.716ZM195.774 236.456L193.684 250.084L169.684 246.413L171.775 232.785L195.774 236.456ZM193.523 251.196L191.432 264.824L167.433 261.153L169.523 247.525L193.523 251.196ZM191.272 265.936L189.195 279.551L165.182 275.879L167.272 262.251L191.272 265.936ZM192.344 266.097L216.343 269.769L214.266 283.397L190.253 279.725L192.344 266.097ZM217.415 269.93L241.414 273.601L239.324 287.229L215.325 283.557L217.415 269.93ZM239.163 288.301L237.086 301.929L213.06 298.123L215.15 284.495L239.163 288.301ZM240.235 288.462L264.235 292.133L262.158 305.761L238.145 302.09L240.235 288.462ZM265.24 292.12L289.239 295.805L287.162 309.419L263.149 305.748L265.24 292.12ZM290.311 295.966L314.31 299.637L312.22 313.305L288.207 309.634L290.311 295.966ZM315.382 299.798L339.382 303.47L337.305 317.098L313.292 313.426L315.382 299.798ZM340.454 303.644L364.48 307.356L362.403 320.984L338.39 317.299L340.454 303.644ZM365.525 307.476L389.525 311.148L387.448 324.776L363.435 321.104L365.525 307.476ZM390.597 311.309L414.596 314.98L412.519 328.608L388.506 324.937L390.597 311.309ZM415.668 315.155L439.667 318.92L437.59 332.548L413.578 328.876L415.668 315.155ZM440.739 318.987L464.739 322.659L462.662 336.34L438.649 332.668L440.739 318.987ZM440.9 317.915L442.991 304.287L466.99 307.972L464.9 321.6L440.9 317.915ZM468.062 308.2L492.061 311.872L489.971 325.499L465.972 321.828L468.062 308.2ZM493.12 312.006L517.119 315.677L515.029 329.305L491.043 325.62L493.12 312.006ZM493.281 310.947L495.371 297.319L519.371 300.991L517.24 314.619L493.281 310.947ZM495.532 296.207L497.609 282.579L521.622 286.251L519.531 299.879L495.532 296.207ZM497.783 281.467L499.82 268L523.94 271.605L521.863 285.232L497.783 281.467ZM500.021 266.727L502.125 253.26L526.124 256.932L524.047 270.559L500.021 266.727ZM502.272 251.987L504.376 238.52L528.375 242.192L526.298 255.819L502.272 251.987ZM501.214 251.826L477.201 248.155L479.291 234.527L503.291 238.198L501.214 251.826ZM479.452 233.455L481.542 219.84L505.542 223.512L503.451 237.14L479.452 233.455ZM478.38 233.294L454.381 229.622L456.471 215.995L480.47 219.666L478.38 233.294ZM453.309 229.462L429.309 225.79L431.48 212.336L455.479 216.008L453.309 229.462ZM428.237 225.629L404.238 221.944L406.328 208.33L430.328 212.001L428.237 225.629ZM403.166 221.783L379.22 218.286L381.31 204.658L405.31 208.33L403.166 221.783ZM378.094 217.951L354.108 214.4L356.199 200.772L380.198 204.444L378.094 217.951ZM353.023 214.105L329.024 210.434L331.127 196.98L355.1 200.665L353.023 214.105ZM327.965 210.273L303.952 206.601L306.043 192.973L330.042 196.645L327.965 210.273ZM302.894 206.44L278.881 202.755L280.971 189.141L304.984 192.96L302.894 206.44ZM277.809 202.595L253.809 198.923L255.94 185.469L279.939 189.141L277.809 202.595ZM252.751 198.762L228.738 195.091L230.828 181.463L254.828 185.134L252.751 198.762ZM227.679 194.93L203.68 191.419L205.77 177.805L229.77 181.476L227.679 194.93ZM227.505 195.988L225.428 209.616L201.415 205.945L203.506 192.317L227.505 195.988ZM200.357 205.784L176.357 202.34L178.448 188.712L202.447 192.384L200.357 205.784ZM164.954 276.817L188.94 280.489L186.863 294.117L162.85 290.445L164.954 276.817ZM190.025 280.65L214.025 284.321L211.948 297.949L187.935 294.277L190.025 280.65ZM211.72 299.021L209.643 312.649L185.644 308.977L187.721 295.349L211.72 299.021ZM212.792 299.182L236.845 302.84L234.768 316.468L210.769 312.796L212.792 299.182ZM237.863 303.028L261.863 306.699L259.786 320.327L235.84 316.642L237.863 303.028ZM262.988 306.86L286.988 310.532L284.911 324.159L260.898 320.488L262.988 306.86ZM288.1 310.692L312.099 314.377L310.022 327.992L285.983 324.28L288.1 310.692ZM313.171 314.538L337.171 318.21L335 331.838L310.987 328.166L313.171 314.538ZM338.243 318.371L362.242 322.042L360.165 335.67L336.152 331.998L338.243 318.371ZM363.314 322.203L387.26 325.888L385.183 339.502L361.17 335.831L363.314 322.203ZM388.386 326.049L412.385 329.72L410.308 343.348L386.295 339.677L388.386 326.049ZM413.457 329.881L437.456 333.553L435.379 347.181L411.38 343.509L413.457 329.881ZM438.528 333.727L462.528 337.399L460.411 351.08L436.398 347.395L438.528 333.727ZM463.6 337.559L487.599 341.231L485.522 354.859L461.509 351.187L463.6 337.559ZM463.761 336.487L465.851 322.86L489.85 326.545L487.76 340.159L463.761 336.487ZM490.922 326.705L514.922 330.377L512.845 344.005L488.792 340.36L490.922 326.705ZM530.292 229.944L528.536 241.2L504.537 237.528L506.627 223.901L528.201 227.197C528.834 227.296 529.403 227.639 529.786 228.153C530.169 228.666 530.336 229.309 530.251 229.944H530.292ZM183.232 174.334L204.806 177.63L202.729 191.258L178.609 187.6L180.324 176.398C180.371 176.078 180.481 175.771 180.648 175.493C180.815 175.216 181.035 174.975 181.295 174.783C181.555 174.591 181.851 174.453 182.165 174.376C182.479 174.299 182.805 174.285 183.124 174.334H183.232ZM161.095 302.706L162.81 291.504L186.809 295.189L184.732 308.803L163.038 305.52C162.393 305.418 161.815 305.064 161.431 304.537C161.047 304.009 160.887 303.351 160.988 302.706H161.095ZM508.128 358.329L486.541 355.02L488.631 341.392L512.63 345.063L510.915 356.279C510.816 356.92 510.467 357.495 509.945 357.88C509.423 358.264 508.769 358.426 508.128 358.329Z" fill="white"/>
</g>
<path opacity="0.5" d="M516.972 316.749L510.915 356.252C510.869 356.558 510.764 356.852 510.604 357.116C510.444 357.381 510.234 357.612 509.985 357.795C509.736 357.978 509.453 358.11 509.153 358.183C508.852 358.257 508.541 358.27 508.235 358.222L162.957 305.373C162.653 305.325 162.361 305.218 162.098 305.058C161.834 304.898 161.605 304.687 161.424 304.438C161.242 304.189 161.111 303.907 161.039 303.607C160.966 303.308 160.953 302.997 161.001 302.693L161.805 297.413C161.805 297.413 178.032 284.335 188.19 285.889C200.183 287.725 202.34 294.532 213.06 296.14C223.78 297.748 235.518 272.958 245.22 274.432C250.459 275.236 251.799 279.269 254.359 282.968C255.457 284.668 256.914 286.108 258.626 287.186C260.339 288.265 262.267 288.956 264.275 289.212L264.677 289.279C277.809 291.289 295.577 221.582 313.64 224.343C321.68 225.562 324.856 240.945 327.255 257.937C330.297 279.377 332.012 303.497 340.387 304.716C355.368 307.007 360.487 276.576 374.396 278.76C383.146 280.1 386.335 296.314 393.705 309.165C398.06 316.763 403.889 323.195 413.216 324.615C421.698 325.955 427.366 323.945 431.775 320.85C440.418 314.806 444.277 304.488 455.077 306.11C461.483 307.088 463.814 312.019 466.199 316.669C468.276 320.689 470.394 324.575 475.325 325.325C481.127 326.223 486.045 317.915 491.311 310.585C495.612 304.528 500.101 299.088 505.435 299.865C510.768 300.642 514.118 307.249 515.739 311.925C516.245 313.507 516.657 315.118 516.972 316.749Z" fill="#ECFFA6"/>
<path opacity="0.5" d="M525.28 262.466L510.915 356.266C510.869 356.572 510.764 356.865 510.604 357.13C510.444 357.395 510.234 357.625 509.985 357.808C509.736 357.991 509.453 358.123 509.153 358.197C508.852 358.27 508.541 358.283 508.235 358.236L162.957 305.373C162.653 305.325 162.361 305.218 162.098 305.058C161.834 304.898 161.605 304.687 161.424 304.438C161.242 304.189 161.111 303.907 161.039 303.607C160.966 303.308 160.953 302.997 161.001 302.693L161.805 297.413C176.143 299.611 183.794 288.877 193.416 290.351C203.037 291.825 208.022 298.539 217.026 299.919C226.031 301.299 239.927 280.221 249.776 281.735C251.32 281.959 252.829 282.383 254.265 282.995C258.057 284.576 260.67 287.122 264.181 289.239C266.944 290.914 270.015 292.017 273.213 292.482C284.75 294.237 307.838 252.483 321.225 254.533C323.542 254.952 325.641 256.165 327.161 257.963C335.067 266.58 337.104 288.127 348.253 289.829C361.773 291.906 369.009 269.916 382.128 271.913C395.246 273.909 399.106 296.529 414.288 298.847C429.47 301.165 445.939 259.679 461.71 262.091C477.482 264.503 481.985 285.822 495.693 287.912C510.741 290.217 525.28 262.466 525.28 262.466Z" fill="#ECFFA6"/>
<path d="M518.58 306.069L510.888 356.252C510.843 356.558 510.737 356.852 510.577 357.116C510.418 357.381 510.207 357.612 509.958 357.795C509.709 357.978 509.426 358.11 509.126 358.183C508.826 358.256 508.514 358.27 508.208 358.222L162.957 305.373C162.653 305.325 162.361 305.218 162.098 305.058C161.834 304.898 161.605 304.687 161.424 304.438C161.242 304.189 161.111 303.907 161.039 303.607C160.966 303.308 160.953 302.997 161.001 302.693L161.39 300.106C161.885 299.637 170.019 291.959 178.274 293.219C186.809 294.559 186.836 302.17 198.735 303.939C210.635 305.708 214.105 296.341 230.989 298.927C247.873 301.513 247.82 313.319 265.28 315.999C282.74 318.679 286.345 304.515 298.78 306.418C311.215 308.321 310.344 315.543 317.392 316.615C324.441 317.687 328.541 306.646 337.211 307.972C345.881 309.299 352.514 327.469 362.282 328.97C369.143 330.015 381.27 316.428 393.652 309.138C398.878 306.056 404.171 304.1 409.102 304.863C419.299 306.418 425.249 314.377 431.721 320.823C435.741 324.843 440.069 328.327 445.724 329.198C453.764 330.431 459.942 323.114 466.146 316.682C471.184 311.443 476.263 306.78 482.44 307.718C485.53 308.111 488.519 309.074 491.257 310.558C496.617 313.56 498.024 317.607 504.43 318.598C512.135 319.818 518.58 306.069 518.58 306.069Z" fill="#C8F05A"/>
<path d="M203.747 169.188L185.201 166.348C184.773 166.282 184.361 166.133 183.99 165.908C183.619 165.683 183.296 165.388 183.04 165.038C182.783 164.688 182.598 164.291 182.496 163.87C182.393 163.448 182.374 163.011 182.441 162.582C182.573 161.715 183.044 160.936 183.75 160.416C184.456 159.896 185.339 159.678 186.206 159.808L204.739 162.649C205.604 162.785 206.381 163.256 206.9 163.961C207.419 164.667 207.64 165.548 207.512 166.415C207.377 167.28 206.905 168.057 206.2 168.576C205.495 169.095 204.614 169.316 203.747 169.188Z" fill="#ECFFA6"/>
<path d="M213.985 165.45H214.279L232.825 168.291C233.089 168.324 233.343 168.411 233.573 168.544C233.804 168.677 234.005 168.856 234.165 169.068C234.469 169.49 234.598 170.013 234.527 170.528C234.451 170.991 234.215 171.413 233.86 171.719C233.505 172.026 233.053 172.197 232.584 172.203H232.276L213.743 169.363C213.239 169.307 212.776 169.058 212.452 168.668C212.128 168.277 211.968 167.776 212.006 167.27C212.045 166.765 212.278 166.293 212.657 165.956C213.036 165.619 213.531 165.442 214.038 165.463M214.038 164.123C213.192 164.101 212.371 164.406 211.743 164.973C211.115 165.54 210.73 166.327 210.666 167.17C210.603 168.014 210.866 168.85 211.401 169.505C211.936 170.16 212.703 170.584 213.542 170.689L232.075 173.53H232.584C233.415 173.525 234.215 173.208 234.823 172.641C235.431 172.074 235.804 171.298 235.866 170.469C235.929 169.64 235.677 168.817 235.16 168.165C234.644 167.513 233.901 167.08 233.08 166.951L214.534 164.123C214.369 164.11 214.203 164.11 214.038 164.123Z" fill="#ECFFA6"/>
<path d="M242.259 169.778H242.54L261.072 172.619C261.558 172.699 261.995 172.959 262.299 173.346C262.603 173.733 262.751 174.219 262.714 174.71C262.677 175.201 262.458 175.66 262.099 175.997C261.741 176.334 261.269 176.525 260.777 176.532H260.483L241.937 173.691C241.673 173.658 241.418 173.572 241.188 173.438C240.958 173.305 240.757 173.126 240.597 172.914C240.445 172.705 240.336 172.469 240.276 172.218C240.216 171.968 240.207 171.707 240.249 171.453C240.322 170.992 240.555 170.573 240.909 170.268C241.262 169.964 241.712 169.795 242.178 169.791M242.178 168.451C241.333 168.43 240.511 168.734 239.883 169.301C239.256 169.868 238.87 170.655 238.806 171.499C238.743 172.342 239.006 173.178 239.541 173.833C240.076 174.488 240.843 174.912 241.682 175.017L260.228 177.858C260.393 177.871 260.559 177.871 260.724 177.858C261.555 177.854 262.355 177.536 262.963 176.969C263.571 176.402 263.944 175.626 264.006 174.797C264.069 173.968 263.817 173.145 263.3 172.494C262.784 171.842 262.041 171.408 261.22 171.279L242.687 168.451C242.518 168.438 242.348 168.438 242.178 168.451Z" fill="#ECFFA6"/>
<path d="M530.988 216.289L531.216 214.842L530.144 214.588C530.12 214.348 530.061 214.114 529.97 213.891L530.801 213.167L529.943 211.988L528.992 212.564C528.806 212.416 528.604 212.29 528.389 212.189L528.456 211.09L527.009 210.876L526.754 211.948C526.52 211.973 526.291 212.027 526.071 212.109L525.334 211.278L524.154 212.149L524.731 213.087C524.582 213.274 524.46 213.482 524.369 213.703L523.27 213.623L523.042 215.07L524.114 215.338C524.139 215.573 524.198 215.803 524.288 216.021L523.458 216.745L524.329 217.924L525.267 217.348C525.452 217.496 525.655 217.622 525.87 217.723L525.803 218.822L527.25 219.036L527.504 217.978C527.741 217.941 527.975 217.882 528.201 217.804L528.925 218.634L530.104 217.763L529.528 216.825C529.674 216.641 529.795 216.438 529.89 216.222L530.988 216.289ZM526.875 216.638C526.542 216.586 526.232 216.437 525.984 216.209C525.737 215.981 525.562 215.685 525.482 215.358C525.403 215.031 525.422 214.688 525.538 214.372C525.653 214.056 525.86 213.781 526.132 213.582C526.403 213.384 526.728 213.27 527.064 213.256C527.4 213.242 527.733 213.328 528.021 213.503C528.308 213.678 528.538 213.934 528.679 214.239C528.821 214.544 528.869 214.885 528.818 215.217C528.783 215.438 528.706 215.65 528.59 215.841C528.473 216.032 528.321 216.198 528.14 216.33C527.96 216.462 527.755 216.557 527.538 216.61C527.321 216.663 527.096 216.672 526.875 216.638Z" fill="#ECFFA6"/>
<path opacity="0.2" d="M322.574 375.745L318.626 375.141L314.289 403.488L318.236 404.092L322.574 375.745Z" fill="#ECFFA6"/>
<path d="M321.923 380.005L317.975 379.401L315.934 392.739L319.882 393.343L321.923 380.005Z" fill="#ECFFA6"/>
<path opacity="0.2" d="M312.62 381.527L308.673 380.923L304.335 409.27L308.283 409.874L312.62 381.527Z" fill="#ECFFA6"/>
<path d="M307.494 388.391L305.451 401.742L309.398 402.346L311.441 388.995L307.494 388.391Z" fill="#ECFFA6"/>
<path opacity="0.2" d="M305.489 374.915L301.536 374.316L297.234 402.705L301.188 403.304L305.489 374.915Z" fill="#ECFFA6"/>
<path d="M302.926 385.403L298.979 384.799L296.936 398.151L300.883 398.755L302.926 385.403Z" fill="#ECFFA6"/>
<path opacity="0.2" d="M330.595 382.693L326.648 382.089L322.31 410.435L326.257 411.039L330.595 382.693Z" fill="#ECFFA6"/>
<path d="M329.957 386.952L326.01 386.348L323.967 399.7L327.914 400.304L329.957 386.952Z" fill="#ECFFA6"/>
<path opacity="0.2" d="M340.746 375.667L336.799 375.063L332.461 403.409L336.409 404.013L340.746 375.667Z" fill="#ECFFA6"/>
<path d="M340.255 378.864L336.308 378.26L334.265 391.612L338.212 392.216L340.255 378.864Z" fill="#ECFFA6"/>
<path opacity="0.2" d="M348.511 384.339L344.564 383.735L340.226 412.081L344.173 412.685L348.511 384.339Z" fill="#ECFFA6"/>
<path d="M348.339 385.412L344.392 384.808L342.348 398.159L346.296 398.763L348.339 385.412Z" fill="#ECFFA6"/>
<path opacity="0.2" d="M359.639 370.875L355.692 370.271L351.354 398.617L355.302 399.221L359.639 370.875Z" fill="#ECFFA6"/>
<path d="M359.492 371.95L355.544 371.346L353.503 384.685L357.45 385.289L359.492 371.95Z" fill="#ECFFA6"/>
<path opacity="0.2" d="M365.787 390.088L361.84 389.484L357.503 417.83L361.45 418.434L365.787 390.088Z" fill="#ECFFA6"/>
<path d="M365.136 394.361L361.189 393.757L359.146 407.109L363.093 407.713L365.136 394.361Z" fill="#ECFFA6"/>
<path opacity="0.2" d="M374.411 393.101L370.464 392.497L366.126 420.843L370.073 421.447L374.411 393.101Z" fill="#ECFFA6"/>
<path d="M372.776 403.783L368.828 403.179L366.785 416.53L370.733 417.134L372.776 403.783Z" fill="#ECFFA6"/>
<path opacity="0.2" d="M386.024 376.645L382.077 376.041L377.739 404.387L381.686 404.991L386.024 376.645Z" fill="#ECFFA6"/>
<path d="M384.215 388.404L380.268 387.8L378.226 401.139L382.174 401.743L384.215 388.404Z" fill="#ECFFA6"/>
<path opacity="0.2" d="M392.977 390.484L389.03 389.88L384.693 418.226L388.64 418.83L392.977 390.484Z" fill="#ECFFA6"/>
<path d="M392.153 395.832L388.205 395.228L386.164 408.567L390.112 409.171L392.153 395.832Z" fill="#ECFFA6"/>
<path opacity="0.2" d="M402.982 384.443L399.035 383.839L394.697 412.185L398.645 412.789L402.982 384.443Z" fill="#ECFFA6"/>
<path d="M403.425 388.795L399.472 388.196L397.446 401.568L401.399 402.167L403.425 388.795Z" fill="#ECFFA6"/>
<path opacity="0.2" d="M413.811 373.066L409.864 372.462L405.526 400.809L409.474 401.413L413.811 373.066Z" fill="#ECFFA6"/>
<path d="M413.797 373.077L409.85 372.473L407.807 385.825L411.754 386.429L413.797 373.077Z" fill="#ECFFA6"/>
<path opacity="0.2" d="M419.943 392.383L415.996 391.779L411.658 420.125L415.606 420.729L419.943 392.383Z" fill="#ECFFA6"/>
<path d="M419.439 395.594L415.492 394.99L413.449 408.341L417.396 408.945L419.439 395.594Z" fill="#ECFFA6"/>
<path opacity="0.2" d="M426.899 406.209L422.951 405.605L418.614 433.951L422.561 434.555L426.899 406.209Z" fill="#ECFFA6"/>
<path d="M426.408 409.406L422.461 408.802L420.418 422.154L424.365 422.758L426.408 409.406Z" fill="#ECFFA6"/>
<path opacity="0.2" d="M438.066 392.564L434.119 391.96L429.782 420.306L433.729 420.91L438.066 392.564Z" fill="#ECFFA6"/>
<path d="M436.444 403.221L432.497 402.617L430.454 415.969L434.401 416.573L436.444 403.221Z" fill="#ECFFA6"/>
<path opacity="0.2" d="M449.401 377.899L445.454 377.295L441.117 405.641L445.064 406.245L449.401 377.899Z" fill="#ECFFA6"/>
<path d="M447.432 390.705L443.485 390.101L441.442 403.453L445.389 404.057L447.432 390.705Z" fill="#ECFFA6"/>
<path opacity="0.2" d="M455.824 395.272L451.877 394.668L447.539 423.014L451.486 423.618L455.824 395.272Z" fill="#ECFFA6"/>
<path d="M456.374 399.56L452.42 398.961L450.394 412.333L454.348 412.932L456.374 399.56Z" fill="#ECFFA6"/>
<path opacity="0.2" d="M463.962 401.352L460.015 400.748L455.677 429.094L459.625 429.698L463.962 401.352Z" fill="#ECFFA6"/>
<path d="M462.18 413.098L458.233 412.494L456.19 425.846L460.137 426.45L462.18 413.098Z" fill="#ECFFA6"/>
<path opacity="0.2" d="M474.197 393.86L470.25 393.256L465.912 421.602L469.859 422.206L474.197 393.86Z" fill="#ECFFA6"/>
<path d="M474.196 393.872L470.249 393.268L468.206 406.62L472.153 407.224L474.196 393.872Z" fill="#ECFFA6"/>
<path opacity="0.2" d="M481.72 404.06L477.773 403.456L473.435 431.802L477.382 432.406L481.72 404.06Z" fill="#ECFFA6"/>
<path d="M481.387 406.195L477.44 405.591L475.397 418.943L479.344 419.547L481.387 406.195Z" fill="#ECFFA6"/>
<path opacity="0.2" d="M491.19 401.593L487.243 400.989L482.905 429.336L486.852 429.94L491.19 401.593Z" fill="#ECFFA6"/>
<path d="M491.018 402.666L487.07 402.062L485.027 415.414L488.975 416.018L491.018 402.666Z" fill="#ECFFA6"/>
<path opacity="0.2" d="M499.49 406.598L495.543 405.994L491.206 434.34L495.153 434.944L499.49 406.598Z" fill="#ECFFA6"/>
<path d="M498.665 420.474L494.712 419.875L492.685 433.247L496.639 433.846L498.665 420.474Z" fill="#ECFFA6"/>
<path d="M356.172 445.968L281.836 434.593L281.484 436.898L355.819 448.273L356.172 445.968Z" fill="#999999" stroke="#263238" stroke-linecap="round" stroke-linejoin="round"/>
<path d="M112.533 45.6643L74.9577 33.2157C73.1171 32.6059 71.1307 33.6037 70.521 35.4442L58.0723 73.0194C57.4625 74.86 58.4603 76.8464 60.3009 77.4562L97.876 89.9048C99.7166 90.5146 101.703 89.5168 102.313 87.6762L114.761 50.1011C115.371 48.2605 114.373 46.2741 112.533 45.6643Z" stroke="#263238" stroke-width="0.51" stroke-linecap="round" stroke-linejoin="round"/>
<path d="M98.3158 55.5966L74.5308 67.536" stroke="#263238" stroke-width="0.51" stroke-linecap="round" stroke-linejoin="round"/>
<path d="M84.6612 50.6788C84.9541 51.2638 85.0671 51.9226 84.9858 52.5718C84.9045 53.221 84.6327 53.8315 84.2046 54.3263C83.7765 54.821 83.2114 55.1778 82.5806 55.3516C81.9499 55.5253 81.2817 55.5083 80.6607 55.3025C80.0396 55.0967 79.4935 54.7115 79.0912 54.1955C78.689 53.6795 78.4487 53.0558 78.4008 52.4033C78.3528 51.7508 78.4993 51.0987 78.8217 50.5294C79.1442 49.9602 79.6281 49.4992 80.2124 49.2048C80.6008 49.0071 81.0246 48.8884 81.4592 48.8556C81.8938 48.8227 82.3306 48.8764 82.7444 49.0135C83.1581 49.1506 83.5406 49.3683 83.8696 49.6542C84.1986 49.94 84.4677 50.2883 84.6612 50.6788Z" stroke="#263238" stroke-width="0.51" stroke-linecap="round" stroke-linejoin="round"/>
<path d="M94.1082 69.4656C94.4052 70.0528 94.5212 70.715 94.4414 71.3682C94.3617 72.0214 94.0898 72.6362 93.6602 73.1348C93.2306 73.6333 92.6627 73.993 92.0285 74.1684C91.3942 74.3438 90.7222 74.327 90.0975 74.12C89.4729 73.913 88.9237 73.5253 88.5197 73.0059C88.1156 72.4864 87.8749 71.8588 87.828 71.2024C87.7811 70.546 87.9301 69.8905 88.2561 69.3189C88.5822 68.7473 89.0706 68.2853 89.6594 67.9916C90.4459 67.6033 91.3536 67.5402 92.1862 67.8161C93.0188 68.0919 93.7093 68.6845 94.1082 69.4656Z" stroke="#263238" stroke-width="0.51" stroke-linecap="round" stroke-linejoin="round"/>
<path d="M616.207 63.9307L577.473 72.0862C575.575 72.4857 574.361 74.3477 574.76 76.245L582.916 114.979C583.315 116.877 585.177 118.091 587.075 117.692L625.809 109.536C627.707 109.136 628.921 107.275 628.521 105.377L620.366 66.6428C619.966 64.7455 618.104 63.5312 616.207 63.9307Z" stroke="#263238" stroke-width="0.51" stroke-linecap="round" stroke-linejoin="round"/>
<path d="M599.704 81.4854L603.616 100.085" stroke="#263238" stroke-width="0.51" stroke-linecap="round" stroke-linejoin="round"/>
<path d="M610.96 88.8286L592.36 92.7548" stroke="#263238" stroke-width="0.51" stroke-linecap="round" stroke-linejoin="round"/>
<path opacity="0.2" d="M403.42 283.919C403.42 283.919 393.344 289.507 399.762 304.649C406.181 319.791 445.215 344.688 444.424 357.338C444.424 357.338 404.345 332.36 393.21 346.779C393.21 346.779 423.48 376.138 426.629 398.221C429.778 420.304 440.029 430.1 463.72 442.696C487.412 455.292 538.921 521.756 538.921 521.756L531.216 410.134L456.176 325.446L419.085 304.301L403.42 283.919Z" fill="black" fill-opacity="0.7"/>
<path d="M607.02 482.936L540.958 526.325H540.851C540.79 526.322 540.731 526.301 540.681 526.266C540.631 526.23 540.592 526.181 540.569 526.124C540.275 525.347 511.089 447.346 504.054 441.262C500.093 437.682 497.207 433.07 495.72 427.942C495.72 427.942 495.72 427.875 495.72 427.835C495.465 426.978 495.344 426.415 495.318 426.267C491.432 418.365 485.471 411.667 478.072 406.891C473.126 403.894 467.902 401.382 462.474 399.387C454.166 396.024 445.617 392.553 439.574 386.134C438.538 385.037 437.593 383.859 436.746 382.61C427.138 368.54 412.305 353.01 407.36 349.82C402.415 346.631 393.317 347.06 393.236 347.06C393.162 347.068 393.088 347.047 393.028 347.003C392.968 346.958 392.928 346.892 392.915 346.819C392.754 345.592 392.865 344.345 393.24 343.167C393.615 341.988 394.245 340.906 395.086 339.998C396.348 338.522 397.916 337.338 399.682 336.528C401.447 335.719 403.368 335.302 405.31 335.308C412.948 335.308 423.467 339.328 428.773 344.38C434.08 349.432 446.354 353.144 447.761 353.572C449.758 352.393 454.461 354.912 456.19 355.998C454.139 348.695 454.97 345.881 455.292 345.171C450.897 339.476 428.009 322.618 415.856 314.163C412.506 311.818 409.986 310.143 408.888 309.486C403.219 306.15 398.529 295.711 399.441 288.422C399.485 287.432 399.748 286.464 400.212 285.588C400.675 284.712 401.327 283.95 402.121 283.356C403.261 282.64 404.596 282.298 405.94 282.378C406.485 282.392 407.028 282.46 407.561 282.579C407.615 282.602 407.665 282.634 407.708 282.673C407.816 282.82 419.192 296.314 423.132 298.431C425.061 299.463 435.326 304.649 445.081 309.473L449.476 311.644C449.45 307.395 449.673 303.149 450.146 298.927C450.521 297.266 453.175 294.907 456.19 293.567C457.597 292.924 460.21 291.999 462.126 293.018C462.863 293.433 464.605 294.505 467.017 296.006L471.037 298.498C471.892 297.183 472.94 296.004 474.146 295.001C475.151 294.411 480.712 293.38 482.695 294.076C484.423 294.706 489.971 298.23 495.84 301.956L498.373 303.55C498.681 302.974 499.405 301.768 500.088 301.5C502.985 300.43 506.138 300.262 509.133 301.018C511.116 301.741 517.923 306.766 524.516 311.63C528.134 314.31 531.605 316.87 533.896 318.411C533.973 318.431 534.04 318.479 534.084 318.545C534.74 318.987 535.29 319.335 535.705 319.577C540.556 322.35 552.482 384.902 552.603 385.531C553.38 389.726 556.221 394.054 559.222 398.637C562.619 403.408 565.397 408.59 567.49 414.06C571.309 425.222 580.006 441.557 592.749 461.523C593.901 463.31 595.09 465.145 596.313 467.03C599.757 472.243 603.429 477.683 607.02 482.936Z" fill="white"/>
<path opacity="0.4" d="M459.808 363.14C457.248 365.163 438.676 363.247 436.398 369.492C435.058 373.177 436.049 378.751 439.533 386.108C438.498 385.011 437.552 383.832 436.706 382.583C427.098 368.513 412.264 352.983 407.32 349.794C402.375 346.604 393.317 347.06 393.236 347.06C393.162 347.068 393.088 347.047 393.028 347.003C392.968 346.958 392.928 346.892 392.915 346.819C392.754 345.592 392.865 344.345 393.24 343.167C393.615 341.988 394.245 340.906 395.086 339.998C396.348 338.522 397.916 337.338 399.682 336.528C401.447 335.719 403.368 335.302 405.31 335.308C412.948 335.308 423.467 339.328 428.773 344.38C434.08 349.432 446.354 353.144 447.761 353.572C449.758 352.393 454.461 354.912 456.19 355.998C454.139 348.695 454.97 345.881 455.292 345.171C450.897 339.476 428.009 322.618 415.856 314.163C412.506 311.818 409.986 310.143 408.888 309.486C403.219 306.15 398.529 295.711 399.441 288.422C399.485 287.432 399.748 286.464 400.212 285.588C400.675 284.712 401.327 283.95 402.121 283.356C403.261 282.64 404.596 282.298 405.94 282.378C405.018 282.738 404.166 283.255 403.42 283.906C399.695 287.082 408.579 303.845 413.578 308.481C418.804 313.319 442.307 325.325 450.749 332.481C455.386 336.407 461.469 342.357 461.469 342.357C457.757 348.681 462.3 361.157 459.808 363.14Z" fill="#C8F05A"/>
<path d="M546.104 260.67C546.104 260.55 546.104 260.523 546.104 260.576C546.113 260.59 546.119 260.606 546.119 260.623C546.119 260.64 546.113 260.657 546.104 260.67Z" fill="#92E3A9"/>
<path opacity="0.4" d="M592.749 461.456C582.793 451.982 567.972 437.229 565.199 430.756C560.964 420.84 558.137 411.688 552.871 405.015C547.604 398.342 536.925 327.228 533.856 327.027C530.787 326.826 537.715 355.167 538.077 356.614C537.782 355.716 533.95 343.643 530.278 329.881C526.473 315.583 522.627 314.806 522.627 314.806C517.521 315.825 517.495 319.456 514.882 319.402C512.269 319.349 503.304 312.984 503.304 312.984C494.607 314.243 461.978 293.232 461.978 293.232C454.555 294.237 452.813 300.723 459.151 306.806C465.489 312.89 474.963 320.26 474.963 320.26C468.853 323.235 446.421 310.652 446.421 310.652L445.081 309.446L449.476 311.617C449.45 307.369 449.673 303.122 450.146 298.9C450.521 297.239 453.175 294.88 456.19 293.54C457.597 292.897 460.21 291.973 462.126 292.991C462.863 293.406 464.605 294.478 467.017 295.979L471.037 298.472C471.892 297.157 472.94 295.978 474.146 294.974C475.151 294.385 480.712 293.353 482.695 294.05C484.423 294.679 489.971 298.204 495.84 301.929L498.373 303.523C498.681 302.947 499.405 301.741 500.088 301.473C502.985 300.403 506.138 300.235 509.133 300.991C511.116 301.714 517.923 306.739 524.516 311.604C528.134 314.284 531.605 316.843 533.896 318.384C533.973 318.404 534.04 318.452 534.084 318.518C534.74 318.96 535.29 319.309 535.705 319.55C540.556 322.324 552.482 384.875 552.603 385.505C553.38 389.699 556.221 394.027 559.222 398.61C562.621 403.389 565.399 408.581 567.49 414.06C571.309 425.155 580.006 441.49 592.749 461.456Z" fill="#C8F05A"/>
<path d="M540.851 526.057C540.851 526.057 511.371 447.265 504.255 441.074C499.875 437.115 496.84 431.887 495.572 426.12C491.659 418.139 485.634 411.382 478.152 406.583C465.436 398.208 446.207 396.037 436.907 382.463C427.607 368.889 412.707 352.983 407.427 349.579C402.147 346.176 393.156 346.792 393.156 346.792C392.231 341.512 398.114 335.63 405.216 335.63C412.318 335.63 422.891 339.342 428.478 344.621C434.066 349.901 447.707 353.921 447.707 353.921C449.878 352.366 456.592 356.681 456.592 356.681C453.912 347.609 455.533 345.157 455.533 345.157C450.267 338.028 414.207 312.367 408.941 309.259C403.675 306.15 398.704 295.926 399.628 288.475C399.651 287.55 399.888 286.642 400.321 285.824C400.753 285.006 401.369 284.299 402.121 283.758C402.873 283.218 403.74 282.86 404.653 282.711C405.567 282.562 406.503 282.627 407.387 282.901C407.387 282.901 418.857 296.542 422.891 298.713C426.924 300.884 458.561 316.709 463.211 318.558C464.502 319.109 465.907 319.34 467.307 319.233C468.706 319.126 470.059 318.683 471.251 317.942" stroke="#263238" stroke-linecap="round" stroke-linejoin="round"/>
<path d="M449.771 312.126C449.771 312.126 449.771 301.808 450.441 299.008C451.111 296.207 458.575 291.383 461.978 293.232C465.382 295.081 490.52 311.617 497.073 312.354" stroke="#263238" stroke-linecap="round" stroke-linejoin="round"/>
<path d="M471.131 298.82C472.021 297.46 473.094 296.229 474.32 295.162C475.244 294.612 480.752 293.594 482.614 294.264C486.34 295.604 508.289 310.746 512.001 311.684" stroke="#263238" stroke-linecap="round" stroke-linejoin="round"/>
<path d="M498.48 303.939C498.48 303.939 499.431 302.036 500.195 301.728C503.023 300.679 506.103 300.515 509.026 301.259C512.443 302.505 531.203 317.339 535.544 319.791C539.886 322.243 550.753 377.17 552.294 385.545C553.835 393.92 563.162 402.295 567.182 414.087C571.202 425.879 580.836 443.862 596.032 467.124C598.712 471.144 601.499 475.392 604.3 479.492" stroke="#263238" stroke-linecap="round" stroke-linejoin="round"/>
<path d="M468.893 333.982C468.893 333.982 470.233 327.697 474.012 324.91C477.79 322.123 482.856 326.545 486.567 327" stroke="#263238" stroke-linecap="round" stroke-linejoin="round"/>
<path d="M494.246 323.985C494.246 323.985 496.336 316.763 500.061 315.141C503.786 313.52 509.522 318.397 512.001 318.625" stroke="#263238" stroke-linecap="round" stroke-linejoin="round"/>
<path d="M518.674 317.459C518.674 317.459 521.461 314.779 522.627 314.779C523.793 314.779 528.67 319.885 529.729 320.233C530.787 320.582 532.047 318.665 533.856 318.639" stroke="#263238" stroke-linecap="round" stroke-linejoin="round"/>
<path d="M510.192 310.88C512.229 310.729 514.261 311.231 515.994 312.314" stroke="#263238" stroke-linecap="round" stroke-linejoin="round"/>
<path d="M455.6 345.144C455.6 345.144 453.751 340.373 454.675 337.935" stroke="#263238" stroke-linecap="round" stroke-linejoin="round"/>
<path d="M459.231 310.143C459.231 310.143 461.442 312.729 461.563 314.806C461.684 316.883 466.923 319.402 466.923 319.402" stroke="#263238" stroke-linecap="round" stroke-linejoin="round"/>
<path d="M494.701 311.724C494.701 311.724 497.743 310.639 499.364 311.724" stroke="#263238" stroke-linecap="round" stroke-linejoin="round"/>
<path d="M455.6 351.428C455.496 349.896 455.771 348.361 456.4 346.959C457.028 345.557 457.991 344.331 459.205 343.388" stroke="#263238" stroke-linecap="round" stroke-linejoin="round"/>
<path d="M456.685 356.668C456.685 356.668 453.228 359.643 453.228 361.505" stroke="#263238" stroke-linecap="round" stroke-linejoin="round"/>
<path d="M440.766 351.428C444.867 352.956 448.27 359.334 450.749 360.42" stroke="#263238" stroke-linecap="round" stroke-linejoin="round"/>
<path d="M490.44 331.114C492.919 334.678 498.48 360.594 504.081 368.795" stroke="#263238" stroke-linecap="round" stroke-linejoin="round"/>
<path d="M511.237 323.798C511.706 324.106 514.962 334.183 514.962 334.183" stroke="#263238" stroke-linecap="round" stroke-linejoin="round"/>
<path d="M552.871 387.649C553.687 392.805 555.173 397.832 557.293 402.603" stroke="#263238" stroke-linecap="round" stroke-linejoin="round"/>
<path d="M495.988 427.875C495.572 426.174 493.777 415.011 491.566 411.286" stroke="#263238" stroke-linecap="round" stroke-linejoin="round"/>
<path opacity="0.2" d="M120.453 602.049C120.453 602.049 164.056 543.424 196.94 532.69C229.823 521.957 231.445 507.391 230.105 480.216C228.765 453.041 229.756 425.651 220.725 422.381C211.693 419.112 231.552 383.629 222.065 369.572L159.849 467.312L120.453 602.049Z" fill="black" fill-opacity="0.7"/>
<path d="M109.88 618.383L109.223 618.169L110.161 618.691L109.88 618.383ZM215.874 438.542C210.514 436.036 199.874 424.284 198.548 422.81C205.248 411.527 211.867 400.647 214.159 398.034C218.916 392.674 224.718 377.036 222.36 369.478C220.202 362.537 213.14 363.649 212.176 363.837H212.068C212.032 363.842 211.998 363.856 211.967 363.877C211.937 363.898 211.912 363.925 211.894 363.957C211.747 364.212 197.369 388.453 192.906 394.255C190.776 397.015 185.871 403.3 180.846 409.598L179.359 409.37C176.242 408.885 173.063 408.976 169.979 409.638L169.671 409.745C168.076 410.433 166.539 411.249 165.075 412.184L164.016 411.742C161.899 410.857 157.517 409.156 155.44 409.062C152.907 408.928 143.983 413.082 138.65 416.432C134.973 415.315 131.141 414.795 127.3 414.891C123.213 415.065 114.878 418.455 108.178 421.175C105.203 422.381 102.631 423.427 101.13 423.855L99.7898 424.257C95.7698 425.45 93.599 426.12 90.8118 431.694C87.9174 437.483 84.7952 459.071 83.2944 469.442L83.0934 470.849C82.5172 474.869 82.611 481.918 82.7048 489.435C82.8522 499.887 82.9996 510.687 81.4452 514.895C79.3455 520.196 76.5711 525.204 73.1908 529.796C72.7486 530.426 72.3466 531.015 71.9714 531.578C69.8793 534.843 68.2089 538.359 67 542.043C65.8744 545.018 64.4674 548.288 63.1006 551.276C60.5814 556.81 58.2364 561.38 58.2364 561.38C58.2364 561.38 105.739 613.787 109.88 618.383C110.103 618.469 110.331 618.541 110.563 618.598C110.724 618.33 119.488 603.348 128.774 588.568C136.814 575.811 145.162 563.202 148.74 560.308C153.646 556.098 157.214 550.546 159.004 544.335C160.934 538.131 173.249 530.479 185.161 523.082C198.333 514.908 211.961 506.453 212.417 499.458C212.671 495.84 213.502 489.85 214.467 482.896C217.08 464.055 220.323 440.592 215.874 438.542ZM193.308 468.665L187.453 474.36C186.622 469.67 180.927 463.439 180.029 462.488C180.479 460.233 180.77 457.949 180.9 455.654C181.114 453.041 181.342 450.294 181.985 449.851C182.629 449.409 185.59 444.491 190.414 436.451C190.816 442.12 195.774 448.364 196.444 449.262L193.308 468.665Z" fill="white"/>
<path opacity="0.4" d="M123.776 451.258C122.047 466.695 106.919 504.992 106.919 504.992L104.239 466.414C104.239 466.414 92.46 518.768 89.2306 520.657C86.0012 522.546 80.333 532.556 77.1706 540.502C75.04 545.862 67.7906 549.507 63.2212 551.343C64.5612 548.355 65.995 545.085 67.1206 542.11C68.3295 538.426 69.9999 534.91 72.092 531.645C72.4672 531.082 72.8692 530.493 73.3114 529.863C76.6917 525.271 79.4661 520.263 81.5658 514.962C83.1202 510.728 82.9058 499.927 82.8254 489.502C82.7316 481.985 82.6378 474.883 83.214 470.916L83.415 469.509C84.9158 459.138 88.038 437.55 90.9324 431.761C93.7196 426.187 95.9172 425.517 99.9104 424.324L101.25 423.922C102.751 423.453 105.27 422.408 108.299 421.242C114.999 418.562 123.334 415.132 127.421 414.958C131.241 414.878 135.05 415.407 138.703 416.526C144.063 413.162 152.961 409.022 155.494 409.156C157.571 409.249 161.952 410.951 164.07 411.836C155.172 416.418 140.204 427.46 140.204 427.46C123.28 431.132 123.776 451.258 123.776 451.258Z" fill="#C8F05A"/>
<path opacity="0.4" d="M153.765 430.756C158.146 427.724 162.686 424.928 167.366 422.381C171.708 420.345 173.101 412.224 170.046 409.933C169.932 409.848 169.798 409.792 169.657 409.772L169.966 409.665C173.05 409.002 176.229 408.912 179.346 409.397C173.731 417.825 169.336 424.284 168.17 425.678C164.311 430.368 153.765 430.756 153.765 430.756Z" fill="#C8F05A"/>
<path opacity="0.4" d="M215.874 438.542C210.514 436.036 199.874 424.284 198.548 422.81C205.248 411.527 211.867 400.647 214.159 398.034C218.916 392.674 224.718 377.036 222.36 369.478C220.202 362.537 213.14 363.649 212.176 363.837V364.132C212.176 364.132 219.814 365.083 219.8 376.125C219.787 387.166 199.955 409.048 199.955 409.048C199.955 409.048 179.56 447.305 178.22 446.729C176.88 446.153 173.892 472.296 173.892 472.296C173.892 472.296 179.573 477.134 178.22 483.646C178.149 483.968 178.082 484.263 178.019 484.531L186.756 488.296C186.756 488.296 195.519 482.145 199.968 491.19C204.417 500.235 157.195 532.556 153.484 537.34C153.484 537.34 152.961 555.363 146.073 558.016C141.611 559.731 133.745 576.776 128.774 588.582C136.814 575.825 145.162 563.215 148.74 560.321C153.646 556.112 157.214 550.56 159.004 544.348C160.934 538.144 173.249 530.493 185.161 523.096C198.333 514.922 211.961 506.466 212.417 499.472C212.671 495.854 213.502 489.864 214.467 482.909C217.08 464.055 220.323 440.592 215.874 438.542ZM193.308 468.665L187.453 474.36C186.622 469.67 180.927 463.439 180.029 462.488C180.479 460.233 180.77 457.949 180.9 455.654C181.114 453.041 181.342 450.294 181.985 449.851C182.629 449.409 185.59 444.491 190.414 436.451C190.816 442.12 195.774 448.364 196.444 449.262L193.308 468.665Z" fill="#C8F05A"/>
<path d="M158.736 431.105C162.388 430.321 165.707 428.425 168.237 425.678C172.257 421.162 188.605 400.338 193.134 394.456C197.663 388.573 212.135 364.132 212.135 364.132C212.135 364.132 219.827 362.323 222.092 369.572C224.356 376.821 218.929 392.191 213.944 397.846C208.96 403.501 183.62 448.31 181.784 449.664C179.949 451.017 181.342 463.707 177.764 466.414" stroke="#263238" stroke-linecap="round" stroke-linejoin="round"/>
<path d="M179.707 462.608C179.707 462.608 186.796 470.032 187.252 475.003L193.576 468.812L196.752 449.208C196.752 449.208 190.494 441.677 190.682 435.487" stroke="#263238" stroke-linecap="round" stroke-linejoin="round"/>
<path d="M198.199 422.85C198.199 422.85 209.871 436.09 215.753 438.81C221.636 441.53 213.073 486.326 212.135 499.445C211.197 512.563 162.81 531.096 158.736 544.241C156.972 550.407 153.43 555.916 148.552 560.08C140.7 566.445 110.309 618.464 110.309 618.464" stroke="#263238" stroke-linecap="round" stroke-linejoin="round"/>
<path d="M181.021 409.933C181.021 409.933 174.12 408.66 170.046 409.933C165.972 411.206 148.74 423.44 144.72 425.678C140.7 427.916 134.764 428.358 133.41 431.105" stroke="#263238" stroke-linecap="round" stroke-linejoin="round"/>
<path d="M165.088 412.532C165.088 412.532 158.12 409.504 155.44 409.37C152.76 409.236 141.866 414.368 136.894 417.986C133.072 420.789 128.779 422.886 124.218 424.177" stroke="#263238" stroke-linecap="round" stroke-linejoin="round"/>
<path d="M138.663 416.74C135.009 415.598 131.194 415.06 127.367 415.145C121.471 415.4 106.088 422.636 101.264 424.15C96.4398 425.664 94.1752 425.798 91.1602 431.842C88.1452 437.885 84.822 461.55 83.4686 470.903C82.1152 480.256 84.5272 507.632 81.807 515.029C79.0868 522.426 74.8926 527.96 72.36 531.806C67.201 539.471 67.7772 545.206 58.3838 561.447" stroke="#263238" stroke-linecap="round" stroke-linejoin="round"/>
<path d="M127.742 433.142C121.86 438.354 122.945 448.31 123.722 451.258C124.499 454.206 120.895 465.998 119.702 472.296" stroke="#263238" stroke-linecap="round" stroke-linejoin="round"/>
<path d="M165.088 438.18C154.368 438.408 151.045 445.644 150.348 450.401" stroke="#263238" stroke-linecap="round" stroke-linejoin="round"/>
<path d="M119.823 427.46C116.647 427.232 108.5 432.217 106.919 440.364" stroke="#263238" stroke-linecap="round" stroke-linejoin="round"/>
<path d="M196.752 449.208C196.752 449.208 198.333 444.692 199.915 444.237" stroke="#263238" stroke-linecap="round" stroke-linejoin="round"/>
<path opacity="0.4" d="M193.576 468.812C192.796 471.468 191.829 474.065 190.682 476.584C189.342 479.264 190.682 483.539 190.682 483.539" fill="#C8F05A"/>
<path d="M187.252 475.003C187.024 479.532 182.039 484.383 181.021 483.539" stroke="#263238" stroke-linecap="round" stroke-linejoin="round"/>
<path d="M144.64 467.312C144.479 472.296 135.434 508.718 135.434 508.718" stroke="#263238" stroke-linecap="round" stroke-linejoin="round"/>
</svg>
