<svg width="555" height="675" viewBox="0 0 555 675" fill="none" xmlns="http://www.w3.org/2000/svg">
<path d="M461.984 59.6151C381.578 1.87007 244.32 -13.0628 172.72 11.079C43.5932 54.6487 22.8858 139.313 24.2832 215.005C25.6805 290.696 122.702 355.697 148.528 421.86C174.353 488.022 221.71 576.963 313.177 549.724C404.643 522.484 400.72 423.998 428.431 357.499C456.142 290.999 528.618 222.816 524.678 161.772C521.934 119.145 497.506 85.2215 461.984 59.6151Z" fill="#C6FF00"/>
<path opacity="0.7" d="M461.984 59.6151C381.578 1.87007 244.32 -13.0628 172.72 11.079C43.5932 54.6487 22.8858 139.313 24.2832 215.005C25.6805 290.696 122.702 355.697 148.528 421.86C174.353 488.022 221.71 576.963 313.177 549.724C404.643 522.484 400.72 423.998 428.431 357.499C456.142 290.999 528.618 222.816 524.678 161.772C521.934 119.145 497.506 85.2215 461.984 59.6151Z" fill="white"/>
<path opacity="0.2" d="M242.755 116.367H21.5895C13.6399 116.367 7.19537 122.811 7.19537 130.761V290.359C7.19537 298.309 13.6399 304.754 21.5895 304.754H242.755C250.704 304.754 257.149 298.309 257.149 290.359V130.761C257.149 122.811 250.704 116.367 242.755 116.367Z" fill="black"/>
<path d="M236.559 106.451H15.3942C7.44449 106.451 1 112.895 1 120.845V280.443C1 288.393 7.44449 294.838 15.3942 294.838H236.559C244.509 294.838 250.953 288.393 250.953 280.443V120.845C250.953 112.895 244.509 106.451 236.559 106.451Z" fill="white" stroke="#263238" stroke-linecap="round" stroke-linejoin="round"/>
<path d="M81.8093 192.614L28.3741 209.954C23.7688 195.773 24.9841 180.344 31.7529 167.059C38.5216 153.774 50.2896 143.721 64.469 139.111C70.0571 137.24 75.9164 136.307 81.8093 136.35V192.614Z" fill="#ECFFA6" stroke="#263238" stroke-linecap="round" stroke-linejoin="round"/>
<path d="M81.8093 192.614L114.857 238.069C102.796 246.827 87.7508 250.436 73.0295 248.103C58.3082 245.77 45.1161 237.685 36.3541 225.628C32.8469 220.88 30.1504 215.583 28.3741 209.954L81.8093 192.614Z" fill="white" stroke="#263238" stroke-linecap="round" stroke-linejoin="round"/>
<path d="M81.8093 192.614L135.278 175.24C139.086 186.512 139.159 198.712 135.487 210.03C131.815 221.348 124.592 231.18 114.891 238.069L81.8093 192.614Z" fill="#263238" stroke="#263238" stroke-linecap="round" stroke-linejoin="round"/>
<path d="M81.8093 192.614V136.384C93.7153 136.249 105.348 139.956 114.98 146.955C124.612 153.955 131.73 163.874 135.278 175.24L81.8093 192.614Z" fill="white" stroke="#263238" stroke-linecap="round" stroke-linejoin="round"/>
<path d="M81.8935 227.631C101.252 227.631 116.945 211.938 116.945 192.58C116.945 173.222 101.252 157.529 81.8935 157.529C62.5354 157.529 46.8425 173.222 46.8425 192.58C46.8425 211.938 62.5354 227.631 81.8935 227.631Z" fill="white" stroke="#263238" stroke-linecap="round" stroke-linejoin="round"/>
<path d="M230.886 132.949H153.864V139.33H230.886V132.949Z" fill="#ECFFA6" stroke="#263238" stroke-linecap="round" stroke-linejoin="round"/>
<path d="M214.32 146.603H153.864V152.984H214.32V146.603Z" fill="#263238" stroke="#263238" stroke-linecap="round" stroke-linejoin="round"/>
<path d="M198.293 160.256H153.864V166.637H198.293V160.256Z" fill="white" stroke="#263238" stroke-linecap="round" stroke-linejoin="round"/>
<path d="M216.997 173.91H153.864V180.29H216.997V173.91Z" fill="#ECFFA6" stroke="#263238" stroke-linecap="round" stroke-linejoin="round"/>
<path d="M183.865 187.563H153.864V193.944H183.865V187.563Z" fill="#263238" stroke="#263238" stroke-linecap="round" stroke-linejoin="round"/>
<path d="M230.886 201.233H153.864V207.614H230.886V201.233Z" fill="white" stroke="#263238" stroke-linecap="round" stroke-linejoin="round"/>
<path d="M210.582 214.887H153.864V221.267H210.582V214.887Z" fill="#ECFFA6" stroke="#263238" stroke-linecap="round" stroke-linejoin="round"/>
<path d="M203.427 228.54H153.864V234.921H203.427V228.54Z" fill="#263238" stroke="#263238" stroke-linecap="round" stroke-linejoin="round"/>
<path d="M230.886 242.194H153.864V248.574H230.886V242.194Z" fill="white" stroke="#263238" stroke-linecap="round" stroke-linejoin="round"/>
<path d="M53.223 260.797H112.921" stroke="#263238" stroke-linecap="round" stroke-linejoin="round"/>
<path d="M44.7717 269.214H121.372" stroke="#263238" stroke-linecap="round" stroke-linejoin="round"/>
<path d="M155.918 260.797H215.616" stroke="#263238" stroke-linecap="round" stroke-linejoin="round"/>
<path d="M147.467 269.214H224.067" stroke="#263238" stroke-linecap="round" stroke-linejoin="round"/>
<path opacity="0.2" d="M243.984 383.324H54.0479C46.0982 383.324 39.6537 389.768 39.6537 397.718V533.781C39.6537 541.73 46.0982 548.175 54.0479 548.175H243.984C251.933 548.175 258.378 541.73 258.378 533.781V397.718C258.378 389.768 251.933 383.324 243.984 383.324Z" fill="black"/>
<path d="M236.542 374.67H46.6068C38.6571 374.67 32.2126 381.115 32.2126 389.065V525.127C32.2126 533.077 38.6571 539.521 46.6068 539.521H236.542C244.492 539.521 250.937 533.077 250.937 525.127V389.065C250.937 381.115 244.492 374.67 236.542 374.67Z" fill="white" stroke="#263238" stroke-linecap="round" stroke-linejoin="round"/>
<path d="M47.196 453.039H76.3716" stroke="#263238" stroke-linecap="round" stroke-linejoin="round"/>
<path d="M47.196 459.638H93.3416" stroke="#263238" stroke-linecap="round" stroke-linejoin="round"/>
<path d="M47.196 466.221H76.3716" stroke="#263238" stroke-linecap="round" stroke-linejoin="round"/>
<path d="M47.196 472.803H89.2842" stroke="#263238" stroke-linecap="round" stroke-linejoin="round"/>
<path d="M47.196 479.403H76.3716" stroke="#263238" stroke-linecap="round" stroke-linejoin="round"/>
<path d="M47.196 485.985H98.7457" stroke="#263238" stroke-linecap="round" stroke-linejoin="round"/>
<path d="M120.261 453.039H149.437" stroke="#263238" stroke-linecap="round" stroke-linejoin="round"/>
<path d="M120.261 459.638H166.407" stroke="#263238" stroke-linecap="round" stroke-linejoin="round"/>
<path d="M120.261 466.221H149.437" stroke="#263238" stroke-linecap="round" stroke-linejoin="round"/>
<path d="M120.261 472.803H162.349" stroke="#263238" stroke-linecap="round" stroke-linejoin="round"/>
<path d="M120.261 479.403H149.437" stroke="#263238" stroke-linecap="round" stroke-linejoin="round"/>
<path d="M120.261 485.985H171.811" stroke="#263238" stroke-linecap="round" stroke-linejoin="round"/>
<path d="M193.326 453.039H222.502" stroke="#263238" stroke-linecap="round" stroke-linejoin="round"/>
<path d="M193.326 459.638H239.455" stroke="#263238" stroke-linecap="round" stroke-linejoin="round"/>
<path d="M193.326 466.221H222.502" stroke="#263238" stroke-linecap="round" stroke-linejoin="round"/>
<path d="M193.326 472.803H235.398" stroke="#263238" stroke-linecap="round" stroke-linejoin="round"/>
<path d="M193.326 479.403H222.502" stroke="#263238" stroke-linecap="round" stroke-linejoin="round"/>
<path d="M193.326 485.985H244.876" stroke="#263238" stroke-linecap="round" stroke-linejoin="round"/>
<path d="M101.793 431.389H45.3273V442.685H101.793V431.389Z" fill="#263238"/>
<path d="M176.137 431.389H119.672V442.685H176.137V431.389Z" fill="#263238"/>
<path d="M250.482 431.389H194.016V442.685H250.482V431.389Z" fill="#263238"/>
<path d="M110.598 430.732V487.888" stroke="#263238" stroke-linecap="round" stroke-linejoin="round"/>
<path d="M184.336 430.732V487.888" stroke="#263238" stroke-linecap="round" stroke-linejoin="round"/>
<path d="M68.3411 404.621L80.5635 400.647C81.3475 403.063 81.3976 405.658 80.7076 408.102C80.0175 410.546 78.6182 412.731 76.6865 414.381C74.7549 416.03 72.3777 417.07 69.8553 417.368C67.3329 417.667 64.7786 417.211 62.5153 416.058C60.252 414.905 58.3812 413.107 57.1396 410.892C55.8979 408.676 55.341 406.142 55.5393 403.609C55.7376 401.077 56.6821 398.66 58.2536 396.665C59.825 394.669 61.9528 393.185 64.368 392.398C65.649 391.973 66.9915 391.763 68.3411 391.775V404.621Z" fill="#ECFFA6" stroke="#263238" stroke-width="0.5" stroke-miterlimit="10"/>
<path d="M68.3411 404.62V391.775C71.0619 391.742 73.7207 392.587 75.9227 394.186C78.1246 395.784 79.7522 398.05 80.5635 400.647L68.3411 404.62Z" fill="#263238" stroke="#263238" stroke-width="0.5" stroke-miterlimit="10"/>
<path d="M192.08 404.621L204.303 400.647C205.088 403.064 205.139 405.659 204.449 408.105C203.759 410.55 202.36 412.736 200.427 414.386C198.495 416.036 196.117 417.076 193.593 417.374C191.07 417.672 188.515 417.215 186.251 416.061C183.988 414.906 182.117 413.107 180.877 410.89C179.636 408.672 179.081 406.137 179.281 403.604C179.481 401.071 180.429 398.654 182.003 396.659C183.577 394.665 185.707 393.182 188.124 392.398C189.399 391.973 190.736 391.763 192.08 391.775V404.621Z" fill="#ECFFA6" stroke="#263238" stroke-width="0.5" stroke-miterlimit="10"/>
<path d="M192.08 404.62V391.775C194.802 391.739 197.462 392.583 199.664 394.182C201.867 395.781 203.494 398.049 204.303 400.647L192.08 404.62Z" fill="#263238" stroke="#263238" stroke-width="0.5" stroke-miterlimit="10"/>
<path d="M109.621 404.62V417.466C106.214 417.466 102.947 416.112 100.538 413.703C98.1293 411.295 96.7759 408.027 96.7759 404.62C96.7759 401.214 98.1293 397.946 100.538 395.537C102.947 393.129 106.214 391.775 109.621 391.775V404.62Z" fill="#ECFFA6" stroke="#263238" stroke-width="0.5" stroke-miterlimit="10"/>
<path d="M109.621 404.62V391.775C113.028 391.775 116.295 393.129 118.704 395.537C121.113 397.946 122.467 401.214 122.467 404.62C122.467 408.027 121.113 411.295 118.704 413.703C116.295 416.112 113.028 417.466 109.621 417.466V404.62Z" fill="#263238" stroke="#263238" stroke-width="0.5" stroke-miterlimit="10"/>
<path d="M150.834 404.62L163.056 408.594C162.535 410.199 161.702 411.685 160.606 412.968C159.509 414.252 158.171 415.306 156.667 416.072C155.163 416.838 153.523 417.301 151.841 417.433C150.158 417.565 148.466 417.365 146.861 416.843C145.256 416.321 143.769 415.488 142.486 414.392C141.203 413.296 140.148 411.957 139.382 410.454C138.616 408.95 138.154 407.31 138.021 405.627C137.889 403.945 138.09 402.252 138.612 400.647C139.423 398.05 141.05 395.784 143.252 394.186C145.454 392.587 148.113 391.742 150.834 391.775V404.62Z" fill="#ECFFA6" stroke="#263238" stroke-width="0.5" stroke-miterlimit="10"/>
<path d="M150.834 404.62V391.775C152.522 391.773 154.194 392.104 155.755 392.748C157.315 393.393 158.733 394.339 159.928 395.532C161.122 396.725 162.07 398.141 162.717 399.701C163.363 401.26 163.696 402.932 163.696 404.62C163.703 405.971 163.487 407.313 163.056 408.594L150.834 404.62Z" fill="#263238" stroke="#263238" stroke-width="0.5" stroke-miterlimit="10"/>
<path d="M233.327 404.62L245.549 408.594C245.028 410.199 244.195 411.685 243.098 412.968C242.002 414.252 240.664 415.306 239.16 416.072C237.656 416.838 236.016 417.301 234.334 417.433C232.651 417.565 230.959 417.365 229.354 416.843C227.749 416.321 226.262 415.488 224.979 414.392C223.696 413.296 222.641 411.957 221.875 410.454C221.109 408.95 220.647 407.31 220.514 405.627C220.382 403.945 220.583 402.252 221.104 400.647C221.916 398.05 223.543 395.784 225.745 394.186C227.947 392.587 230.606 391.742 233.327 391.775V404.62Z" fill="#ECFFA6" stroke="#263238" stroke-width="0.5" stroke-miterlimit="10"/>
<path d="M233.327 404.62V391.775C235.014 391.773 236.686 392.104 238.245 392.748C239.805 393.393 241.222 394.339 242.415 395.533C243.608 396.726 244.554 398.143 245.199 399.702C245.844 401.262 246.174 402.933 246.172 404.62C246.185 405.97 245.974 407.313 245.549 408.594L233.327 404.62Z" fill="#263238" stroke="#263238" stroke-width="0.5" stroke-miterlimit="10"/>
<path d="M235.852 521.238H224.606V525.043H235.852V521.238Z" fill="#ECFFA6" stroke="#263238" stroke-width="0.75" stroke-linecap="round" stroke-linejoin="round"/>
<path d="M223.36 502.231H212.114V525.043H223.36V502.231Z" fill="#263238" stroke="#263238" stroke-width="0.75" stroke-linecap="round" stroke-linejoin="round"/>
<path d="M210.885 510.43H199.639V525.06H210.885V510.43Z" fill="white" stroke="#263238" stroke-width="0.75" stroke-linecap="round" stroke-linejoin="round"/>
<path d="M198.394 499.016H187.148V525.043H198.394V499.016Z" fill="#ECFFA6" stroke="#263238" stroke-width="0.75" stroke-linecap="round" stroke-linejoin="round"/>
<path d="M185.902 518.326H174.656V525.06H185.902V518.326Z" fill="#263238" stroke="#263238" stroke-width="0.75" stroke-linecap="round" stroke-linejoin="round"/>
<path d="M173.41 516.272H162.164V525.043H173.41V516.272Z" fill="white" stroke="#263238" stroke-width="0.75" stroke-linecap="round" stroke-linejoin="round"/>
<path d="M160.918 507.501H149.672V525.06H160.918V507.501Z" fill="#ECFFA6" stroke="#263238" stroke-width="0.75" stroke-linecap="round" stroke-linejoin="round"/>
<path d="M148.427 522.131H137.181V525.06H148.427V522.131Z" fill="#263238" stroke="#263238" stroke-width="0.75" stroke-linecap="round" stroke-linejoin="round"/>
<path d="M135.935 502.231H124.689V525.043H135.935V502.231Z" fill="white" stroke="#263238" stroke-width="0.75" stroke-linecap="round" stroke-linejoin="round"/>
<path d="M123.443 506.625H112.197V525.06H123.443V506.625Z" fill="#ECFFA6" stroke="#263238" stroke-width="0.75" stroke-linecap="round" stroke-linejoin="round"/>
<path d="M110.968 524.168H99.722V525.043H110.968V524.168Z" fill="#263238" stroke="#263238" stroke-width="0.75" stroke-linecap="round" stroke-linejoin="round"/>
<path d="M98.4762 523.882H87.2303V525.043H98.4762V523.882Z" fill="white" stroke="#263238" stroke-width="0.75" stroke-linecap="round" stroke-linejoin="round"/>
<path d="M85.9845 510.43H74.7386V525.06H85.9845V510.43Z" fill="#ECFFA6" stroke="#263238" stroke-width="0.75" stroke-linecap="round" stroke-linejoin="round"/>
<path d="M73.4927 522.131H62.2468V525.06H73.4927V522.131Z" fill="#263238" stroke="#263238" stroke-width="0.75" stroke-linecap="round" stroke-linejoin="round"/>
<path d="M61.001 519.201H49.755V525.06H61.001V519.201Z" fill="white" stroke="#263238" stroke-width="0.75" stroke-linecap="round" stroke-linejoin="round"/>
<path opacity="0.2" d="M539.645 240.594H318.48C310.53 240.594 304.086 247.039 304.086 254.988V414.587C304.086 422.537 310.53 428.981 318.48 428.981H539.645C547.594 428.981 554.039 422.537 554.039 414.587V254.988C554.039 247.039 547.594 240.594 539.645 240.594Z" fill="black"/>
<path d="M530.975 230.695H309.81C301.86 230.695 295.415 237.14 295.415 245.089V404.688C295.415 412.637 301.86 419.082 309.81 419.082H530.975C538.924 419.082 545.369 412.637 545.369 404.688V245.089C545.369 237.14 538.924 230.695 530.975 230.695Z" fill="white" stroke="#263238" stroke-linecap="round" stroke-linejoin="round"/>
<path d="M529.628 378.088H516.665V392.465H529.628V378.088Z" fill="#ECFFA6" stroke="#263238" stroke-width="0.75" stroke-linecap="round" stroke-linejoin="round"/>
<path d="M515.217 306.201H502.254V392.449H515.217V306.201Z" fill="#263238" stroke="#263238" stroke-width="0.75" stroke-linecap="round" stroke-linejoin="round"/>
<path d="M500.806 337.178H487.843V392.465H500.806V337.178Z" fill="white" stroke="#263238" stroke-width="0.75" stroke-linecap="round" stroke-linejoin="round"/>
<path d="M486.412 294.046H473.448V392.465H486.412V294.046Z" fill="#ECFFA6" stroke="#263238" stroke-width="0.75" stroke-linecap="round" stroke-linejoin="round"/>
<path d="M472.001 367.027H459.037V392.465H472.001V367.027Z" fill="#263238" stroke="#263238" stroke-width="0.75" stroke-linecap="round" stroke-linejoin="round"/>
<path d="M457.59 359.283H444.626V392.449H457.59V359.283Z" fill="white" stroke="#263238" stroke-width="0.75" stroke-linecap="round" stroke-linejoin="round"/>
<path d="M443.195 326.118H430.232V392.465H443.195V326.118Z" fill="#ECFFA6" stroke="#263238" stroke-width="0.75" stroke-linecap="round" stroke-linejoin="round"/>
<path d="M428.784 381.405H415.821V392.465H428.784V381.405Z" fill="#263238" stroke="#263238" stroke-width="0.75" stroke-linecap="round" stroke-linejoin="round"/>
<path d="M414.373 306.201H401.41V392.449H414.373V306.201Z" fill="white" stroke="#263238" stroke-width="0.75" stroke-linecap="round" stroke-linejoin="round"/>
<path d="M399.979 322.801H387.016V392.465H399.979V322.801Z" fill="#ECFFA6" stroke="#263238" stroke-width="0.75" stroke-linecap="round" stroke-linejoin="round"/>
<path d="M385.568 389.132H372.605V392.449H385.568V389.132Z" fill="#263238" stroke="#263238" stroke-width="0.75" stroke-linecap="round" stroke-linejoin="round"/>
<path d="M371.157 388.038H358.194V392.465H371.157V388.038Z" fill="white" stroke="#263238" stroke-width="0.75" stroke-linecap="round" stroke-linejoin="round"/>
<path d="M356.746 337.178H343.783V392.465H356.746V337.178Z" fill="#ECFFA6" stroke="#263238" stroke-width="0.75" stroke-linecap="round" stroke-linejoin="round"/>
<path d="M342.352 381.405H329.389V392.465H342.352V381.405Z" fill="#263238" stroke="#263238" stroke-width="0.75" stroke-linecap="round" stroke-linejoin="round"/>
<path d="M327.941 370.344H314.978V392.465H327.941V370.344Z" fill="white" stroke="#263238" stroke-width="0.75" stroke-linecap="round" stroke-linejoin="round"/>
<path d="M530.47 270.056H316.661V280.999H530.47V270.056Z" fill="#ECFFA6" stroke="#263238" stroke-miterlimit="10"/>
<path d="M407.673 270.847H372.992V280.191H407.673V270.847Z" fill="#263238" stroke="#263238" stroke-miterlimit="10"/>
<path d="M474.206 270.847H409.07V280.191H474.206V270.847Z" fill="white" stroke="#263238" stroke-miterlimit="10"/>
<path opacity="0.2" d="M512.372 37.0726H338.901C330.951 37.0726 324.507 43.5171 324.507 51.4668V175.122C324.507 183.072 330.951 189.516 338.901 189.516H512.372C520.321 189.516 526.766 183.072 526.766 175.122V51.4668C526.766 43.5171 520.321 37.0726 512.372 37.0726Z" fill="black"/>
<path d="M504.93 27.1735H331.46C323.51 27.1735 317.066 33.6179 317.066 41.5676V165.223C317.066 173.172 323.51 179.617 331.46 179.617H504.93C512.88 179.617 519.325 173.172 519.325 165.223V41.5676C519.325 33.6179 512.88 27.1735 504.93 27.1735Z" fill="white" stroke="#263238" stroke-linecap="round" stroke-linejoin="round"/>
<path d="M326.46 165.341H516.362" stroke="#263238" stroke-width="0.5" stroke-miterlimit="10"/>
<path d="M326.46 165.341V168.152" stroke="#263238" stroke-width="0.5" stroke-miterlimit="10"/>
<path d="M339.12 165.341V168.152" stroke="#263238" stroke-width="0.5" stroke-miterlimit="10"/>
<path d="M351.78 165.341V168.152" stroke="#263238" stroke-width="0.5" stroke-miterlimit="10"/>
<path d="M364.44 165.341V168.152" stroke="#263238" stroke-width="0.5" stroke-miterlimit="10"/>
<path d="M377.1 165.341V168.152" stroke="#263238" stroke-width="0.5" stroke-miterlimit="10"/>
<path d="M389.76 165.341V168.152" stroke="#263238" stroke-width="0.5" stroke-miterlimit="10"/>
<path d="M402.42 165.341V168.152" stroke="#263238" stroke-width="0.5" stroke-miterlimit="10"/>
<path d="M415.081 165.341V168.152" stroke="#263238" stroke-width="0.5" stroke-miterlimit="10"/>
<path d="M427.741 165.341V168.152" stroke="#263238" stroke-width="0.5" stroke-miterlimit="10"/>
<path d="M440.401 165.341V168.152" stroke="#263238" stroke-width="0.5" stroke-miterlimit="10"/>
<path d="M453.061 165.341V168.152" stroke="#263238" stroke-width="0.5" stroke-miterlimit="10"/>
<path d="M465.721 165.341V168.152" stroke="#263238" stroke-width="0.5" stroke-miterlimit="10"/>
<path d="M478.381 165.341V168.152" stroke="#263238" stroke-width="0.5" stroke-miterlimit="10"/>
<path d="M491.041 165.341V168.152" stroke="#263238" stroke-width="0.5" stroke-miterlimit="10"/>
<path d="M503.701 165.341V168.152" stroke="#263238" stroke-width="0.5" stroke-miterlimit="10"/>
<path d="M516.362 165.341V168.152" stroke="#263238" stroke-width="0.5" stroke-miterlimit="10"/>
<path d="M332.79 163.051H510.031V138.556L497.489 114.313C497.408 114.142 497.351 113.961 497.321 113.774L486.176 41.8707C486.176 41.5135 486.034 41.1709 485.781 40.9183C485.529 40.6658 485.186 40.5239 484.829 40.5239C484.472 40.5239 484.129 40.6658 483.877 40.9183C483.624 41.1709 483.482 41.5135 483.482 41.8707L472.135 129.65C472.082 130.07 471.871 130.455 471.546 130.727L460.62 139.145C460.462 139.262 460.28 139.341 460.087 139.377C459.894 139.412 459.695 139.402 459.506 139.349C459.318 139.295 459.144 139.199 458.998 139.067C458.853 138.935 458.739 138.772 458.667 138.589L447.657 115.879C447.576 115.665 447.438 115.478 447.259 115.337C447.08 115.196 446.866 115.106 446.64 115.077C446.413 115.047 446.184 115.08 445.974 115.17C445.765 115.261 445.584 115.407 445.451 115.592L434.071 130.323L421.411 146.653L408.75 130.323L397.589 115.929C397.442 115.728 397.24 115.574 397.008 115.486C396.775 115.398 396.522 115.379 396.279 115.433C396.036 115.486 395.814 115.61 395.64 115.787C395.466 115.965 395.347 116.19 395.299 116.434L383.514 153.186L370.854 87.6795L358.194 159.718L345.534 149.92L335.433 121.468C334.86 119.784 332.807 120.323 332.807 122.074L332.79 163.051Z" fill="#ECFFA6"/>
<path d="M510.031 163.102H332.79V142.108L345.315 121.266C345.403 121.122 345.46 120.961 345.483 120.794L356.628 58.9585C356.689 58.6438 356.858 58.3602 357.105 58.1563C357.353 57.9523 357.663 57.8408 357.984 57.8408C358.304 57.8408 358.615 57.9523 358.862 58.1563C359.109 58.3602 359.278 58.6438 359.339 58.9585L370.669 134.448C370.74 134.825 370.958 135.158 371.275 135.374L382.201 142.647C382.358 142.752 382.535 142.823 382.721 142.857C382.907 142.89 383.098 142.884 383.281 142.84C383.465 142.796 383.637 142.714 383.787 142.599C383.938 142.485 384.063 142.34 384.154 142.175L395.148 122.646C395.254 122.458 395.405 122.297 395.586 122.178C395.767 122.059 395.974 121.985 396.19 121.962C396.405 121.939 396.623 121.967 396.826 122.045C397.028 122.123 397.209 122.249 397.353 122.411L408.75 135.037L421.411 149.078L434.071 135.037L445.216 122.663C445.375 122.49 445.575 122.36 445.798 122.286C446.021 122.212 446.26 122.196 446.491 122.24C446.722 122.283 446.938 122.386 447.118 122.536C447.299 122.687 447.438 122.881 447.522 123.101L459.307 154.701H471.967L484.627 160.324L497.287 151.906L507.388 127.444C507.5 127.139 507.717 126.884 508 126.725C508.283 126.565 508.614 126.513 508.933 126.575C509.252 126.638 509.538 126.813 509.739 127.068C509.94 127.323 510.044 127.642 510.031 127.966V163.102Z" fill="#263238"/>
<path d="M428.768 47.4937H467.994" stroke="#263238" stroke-linecap="round" stroke-linejoin="round"/>
<path d="M428.768 56.6857H467.994" stroke="#263238" stroke-linecap="round" stroke-linejoin="round"/>
<path d="M428.768 65.861H467.994" stroke="#263238" stroke-linecap="round" stroke-linejoin="round"/>
<path d="M428.768 75.053H467.994" stroke="#263238" stroke-linecap="round" stroke-linejoin="round"/>
<path d="M428.768 84.2283H467.994" stroke="#263238" stroke-linecap="round" stroke-linejoin="round"/>
<path d="M428.768 93.4203H467.994" stroke="#263238" stroke-linecap="round" stroke-linejoin="round"/>
<path d="M419.845 47.4937H424.761" stroke="#263238" stroke-linecap="round" stroke-linejoin="round"/>
<path d="M419.845 56.6857H424.761" stroke="#263238" stroke-linecap="round" stroke-linejoin="round"/>
<path d="M419.845 65.861H424.761" stroke="#263238" stroke-linecap="round" stroke-linejoin="round"/>
<path d="M419.845 75.053H424.761" stroke="#263238" stroke-linecap="round" stroke-linejoin="round"/>
<path d="M419.845 84.2283H424.761" stroke="#263238" stroke-linecap="round" stroke-linejoin="round"/>
<path d="M419.845 93.4203H424.761" stroke="#263238" stroke-linecap="round" stroke-linejoin="round"/>
<path d="M274.573 674.103C329.84 674.103 374.642 651.867 374.642 624.439C374.642 597.01 329.84 574.775 274.573 574.775C219.307 574.775 174.504 597.01 174.504 624.439C174.504 651.867 219.307 674.103 274.573 674.103Z" fill="#C6FF00"/>
<path d="M274.573 674.103C329.84 674.103 374.642 651.867 374.642 624.439C374.642 597.01 329.84 574.775 274.573 574.775C219.307 574.775 174.504 597.01 174.504 624.439C174.504 651.867 219.307 674.103 274.573 674.103Z" fill="#ECFFA6"/>
<path d="M240.953 250.056C240.953 250.056 215.263 341.69 215.263 348.744C215.263 354.754 223.68 366.758 232.973 361.943C242.266 357.128 244.371 342.145 244.371 342.145L240.953 250.056Z" fill="white" stroke="#263238" stroke-linecap="round" stroke-linejoin="round"/>
<path d="M309.675 625.415C309.675 625.415 296.527 643.176 295.533 650.668C294.54 658.16 304.708 658.749 309.187 655.264C313.665 651.779 322.992 629.052 322.992 629.052L309.675 625.415Z" fill="white" stroke="#263238" stroke-linecap="round" stroke-linejoin="round"/>
<path d="M237.923 582.654C237.923 582.654 215.414 592.115 215.414 597.519C215.414 602.923 227.115 601.56 235.616 598.411C244.118 595.263 257.671 589.859 257.671 589.859C257.671 589.859 244.674 581.307 237.923 582.654Z" fill="white" stroke="#263238" stroke-linecap="round" stroke-linejoin="round"/>
<path d="M244.977 368.845L244.219 398.105C244.219 398.105 238.377 451.675 235.667 480.497C232.956 509.319 241.526 575.482 241.526 575.482L237.468 579.522V583.579L257.671 589.876C258.571 585.721 259.173 581.507 259.472 577.266V570.532L280.634 444.049C280.634 444.049 297.284 571.896 299.995 586.744C302.705 601.593 306.729 617.351 306.729 617.351L305.382 621.846L307.166 629.961L321.123 633.563C323.482 629.92 324.878 625.738 325.18 621.408C326.072 613.294 326.527 594.388 326.527 594.388C326.527 594.388 325.635 528.73 328.783 484.117C330.657 456.677 330.353 429.133 327.874 401.742L325.635 372.044C299.306 381.177 270.5 380.035 244.977 368.845Z" fill="#263238" stroke="#263238" stroke-linecap="round" stroke-linejoin="round"/>
<path d="M312.2 385.058C312.2 385.058 305.887 396.758 322.992 402.163" stroke="white" stroke-linecap="round" stroke-linejoin="round"/>
<path d="M322.992 407.567V615.516" stroke="white" stroke-linecap="round" stroke-linejoin="round"/>
<path d="M275.297 238.372C275.297 238.372 241.542 248.254 240.953 250.056C240.364 251.857 244.977 368.846 244.977 368.846C244.977 368.846 253.984 382.65 278.647 384.755C303.311 386.859 326.662 373.947 326.662 373.947L342.756 267.43C342.756 267.43 304.035 241.015 301.341 240.409C298.648 239.803 282.806 236.268 275.297 238.372Z" fill="white" stroke="#263238" stroke-linecap="round" stroke-linejoin="round"/>
<path d="M272.974 260.864L280.987 280.528L294.691 265.006C294.691 265.006 293.664 255.174 284.59 254.147C282.176 253.756 279.702 254.211 277.585 255.435C275.468 256.659 273.839 258.577 272.974 260.864Z" fill="#263238" stroke="#263238" stroke-linecap="round" stroke-linejoin="round"/>
<path d="M275.297 238.372L261.071 260.864C261.071 260.864 269.354 258.793 273.226 262.16C277.099 265.527 281.509 269.147 281.509 269.147C281.509 269.147 288.244 263.709 293.665 265.527C297.377 266.893 300.862 268.812 304.001 271.218C304.001 271.218 307.368 248.978 302.974 238.894C298.58 228.81 284.607 225.173 275.297 238.372Z" fill="white" stroke="#263238" stroke-linecap="round" stroke-linejoin="round"/>
<path d="M278.917 240.948C278.484 247.493 278.4 254.057 278.664 260.612C279.169 268.895 281.762 270.713 284.86 265.275C287.957 259.837 294.961 243.288 294.961 238.625C294.971 235.688 295.14 232.755 295.466 229.837C295.466 229.837 284.607 241.436 278.917 240.948Z" fill="white" stroke="#263238" stroke-linecap="round" stroke-linejoin="round"/>
<path d="M280.988 280.528L267.536 349.064L276.593 371.825L287.722 353.206L280.988 280.528Z" fill="#263238" stroke="#263238" stroke-linecap="round" stroke-linejoin="round"/>
<path d="M307.402 343.037C307.402 343.037 277.099 324.737 274.405 322.346C271.711 319.956 271.694 321.74 269.59 322.936C267.486 324.131 259.691 333.441 258.193 336.404C256.694 339.367 254.287 343.609 257.3 344.215C260.314 344.821 262.704 339.165 262.704 338.205C262.704 337.246 267.199 332.212 267.199 332.212C267.199 332.212 262.704 343.003 264.203 343.912C265.701 344.821 275.903 348.963 278.008 348.963C280.112 348.963 281.594 345.057 281.594 345.057C281.594 345.057 284.607 348.963 287.604 348.66C289.405 348.461 291.134 347.844 292.654 346.859L302.857 354.956L307.402 343.037Z" fill="white" stroke="#263238" stroke-linecap="round" stroke-linejoin="round"/>
<path d="M307.402 343.037C307.402 343.037 303.631 340.764 298.648 337.717L294.203 348.138L302.907 355.041L307.402 343.037Z" fill="white" stroke="#263238" stroke-linecap="round" stroke-linejoin="round"/>
<path d="M268.075 346.051C268.075 346.051 268.984 336.438 272.89 331.033" stroke="#263238" stroke-linecap="round" stroke-linejoin="round"/>
<path d="M273.176 347.246C273.176 347.246 275.28 338.828 279.489 334.047" stroke="#263238" stroke-linecap="round" stroke-linejoin="round"/>
<path d="M330.197 272.834C322.998 279.199 318.05 287.72 316.089 297.127L334.995 350.865C334.995 350.865 312.486 341.556 309.742 341.269C306.998 340.983 297.436 354.165 300.146 357.162C302.857 360.158 355.702 389.873 358.952 385.967C362.201 382.061 345.483 275.847 343.648 271.942C341.813 268.036 343.059 265.948 336.746 265.039" fill="white"/>
<path d="M330.197 272.834C322.998 279.199 318.05 287.72 316.089 297.127L334.995 350.865C334.995 350.865 312.486 341.556 309.742 341.269C306.998 340.983 297.436 354.165 300.146 357.162C302.857 360.158 355.702 389.873 358.952 385.967C362.201 382.061 345.483 275.847 343.648 271.942C341.813 268.036 343.059 265.948 336.746 265.039" stroke="#263238" stroke-linecap="round" stroke-linejoin="round"/>
<path d="M334.995 350.865C334.995 350.865 345.803 353.273 348.8 358.963L334.995 350.865Z" fill="white"/>
<path d="M334.995 350.865C334.995 350.865 345.803 353.273 348.8 358.963" stroke="#263238" stroke-linecap="round" stroke-linejoin="round"/>
<path d="M214.185 306.605L238.293 360.478C238.544 361.013 238.981 361.438 239.522 361.674L274.018 375.815C274.43 375.992 274.885 376.045 275.327 375.967C275.769 375.889 276.179 375.683 276.506 375.376C276.833 375.069 277.063 374.673 277.169 374.236C277.274 373.8 277.25 373.342 277.099 372.92L257.789 320.73C257.45 319.814 256.916 318.983 256.224 318.294C255.532 317.605 254.699 317.075 253.782 316.74L217.114 303.457C216.683 303.285 216.209 303.248 215.755 303.35C215.301 303.452 214.889 303.688 214.572 304.029C214.256 304.369 214.049 304.797 213.98 305.257C213.911 305.717 213.982 306.187 214.185 306.605Z" fill="#ECFFA6" stroke="#263238" stroke-linecap="round" stroke-linejoin="round"/>
<path d="M223.226 335.326C222.889 335.257 222.54 335.267 222.208 335.356C221.875 335.445 221.568 335.611 221.311 335.84C221.054 336.069 220.855 336.355 220.728 336.675C220.602 336.995 220.552 337.341 220.583 337.683C220.575 338.46 220.871 339.209 221.408 339.771C222.737 340.714 232.721 341.454 232.334 339.569C232.081 338.104 226.929 336.05 223.226 335.326Z" fill="white" stroke="#263238" stroke-linecap="round" stroke-linejoin="round"/>
<path d="M220.111 331.69C219.711 331.607 219.297 331.619 218.902 331.725C218.507 331.83 218.142 332.027 217.836 332.298C217.531 332.569 217.292 332.908 217.141 333.288C216.989 333.668 216.928 334.077 216.963 334.485C216.955 335.408 217.312 336.298 217.956 336.96C219.522 338.071 231.424 338.963 230.919 336.724C230.566 334.99 224.455 332.549 220.111 331.69Z" fill="white" stroke="#263238" stroke-linecap="round" stroke-linejoin="round"/>
<path d="M219.168 326.336C218.736 326.257 218.292 326.279 217.87 326.399C217.448 326.519 217.059 326.735 216.733 327.03C216.408 327.324 216.155 327.69 215.993 328.098C215.831 328.506 215.766 328.946 215.801 329.384C215.794 330.388 216.181 331.355 216.879 332.077C218.562 333.289 231.458 334.266 230.97 331.842C230.549 329.939 223.899 327.296 219.168 326.336Z" fill="white" stroke="#263238" stroke-linecap="round" stroke-linejoin="round"/>
<path d="M217.232 321.235C216.8 321.156 216.356 321.178 215.934 321.298C215.512 321.418 215.123 321.634 214.797 321.929C214.472 322.223 214.219 322.589 214.057 322.997C213.895 323.405 213.83 323.845 213.865 324.283C213.853 324.781 213.943 325.277 214.128 325.74C214.313 326.203 214.59 326.623 214.943 326.976C216.626 328.188 229.522 329.165 229.034 326.74C228.596 324.838 221.963 322.245 217.232 321.235Z" fill="white" stroke="#263238" stroke-linecap="round" stroke-linejoin="round"/>
<path d="M262.502 202.042C262.502 202.042 264.523 222.648 269.035 232.194C273.546 241.739 275.062 246.251 279.59 246.251C284.119 246.251 292.654 239.719 296.661 233.692C298.669 230.781 300.518 227.763 302.2 224.651L303.193 222.143C303.193 222.143 310.23 217.092 311.746 213.607C313.261 210.123 310.23 207.58 304.708 210.594C304.708 210.594 306.712 195.021 302.688 185.476C298.665 175.93 268.041 184.971 262.502 202.042Z" fill="white" stroke="#263238" stroke-miterlimit="10"/>
<path d="M257.031 209.87L290.971 216.789C290.971 216.789 291.207 222.059 287.604 223.725C285.834 224.483 283.886 224.727 281.983 224.43C280.08 224.132 278.3 223.304 276.846 222.042C274.22 219.651 274.22 215.106 274.22 215.106C274.22 215.106 272.065 213.422 271.829 215.106C271.587 216.674 270.778 218.099 269.556 219.11C268.333 220.122 266.782 220.65 265.196 220.594C263.612 220.517 262.088 219.969 260.816 219.022C259.545 218.074 258.585 216.77 258.058 215.274C257.472 213.527 257.127 211.709 257.031 209.87Z" fill="white" stroke="#263238" stroke-linecap="round" stroke-linejoin="round"/>
<path d="M290.971 216.789L305.079 209.382" stroke="#263238" stroke-linecap="round" stroke-linejoin="round"/>
<path d="M257.031 209.87L262.519 207.715" stroke="#263238" stroke-linecap="round" stroke-linejoin="round"/>
<path d="M272.082 216.553L269.691 225.409L272.57 226.116L273.277 233.052L277.822 231.857" fill="white"/>
<path d="M272.082 216.553L269.691 225.409L272.57 226.116L273.277 233.052L277.822 231.857" stroke="#263238" stroke-linecap="round" stroke-linejoin="round"/>
<path d="M277.099 168.893C277.099 168.893 256.997 184.465 254.994 194.011C252.99 203.557 266.038 207.58 274.59 206.065C283.142 204.55 295.617 196.52 295.617 196.52C295.617 196.52 288.58 207.58 294.102 208.069C296.603 208.43 299.143 208.43 301.644 208.069C301.644 208.069 298.631 214.112 301.139 214.112C303.648 214.112 304.658 210.594 304.658 210.594C304.658 210.594 311.695 194.011 309.708 178.944C307.722 163.876 289.136 159.347 277.099 168.893Z" fill="#263238" stroke="#263238" stroke-miterlimit="10"/>
</svg>
