<svg width="240" height="72" viewBox="0 0 240 72" fill="none" xmlns="http://www.w3.org/2000/svg">
<rect width="239.5" height="71.5" rx="5" fill="#161B23"/>
<path d="M35.5575 41.975C33.4575 41.975 31.8375 41.045 30.6975 39.185L31.98 38.0825C32.49 38.8475 33.015 39.4175 33.555 39.7925C34.11 40.1525 34.785 40.3325 35.58 40.3325C36.495 40.3325 37.2375 40.01 37.8075 39.365C38.3775 38.705 38.6625 37.7675 38.6625 36.5525V26H40.4625V36.53C40.4625 38.33 39.9825 39.71 39.0225 40.67C38.1225 41.54 36.9675 41.975 35.5575 41.975ZM54.024 40.2425C52.854 41.4275 51.4065 42.02 49.6815 42.02C47.9565 42.02 46.5165 41.4275 45.3615 40.2425C44.2215 39.0575 43.6515 37.625 43.6515 35.945C43.6515 34.28 44.229 32.855 45.384 31.67C46.554 30.47 48.0015 29.87 49.7265 29.87C51.4515 29.87 52.8915 30.4625 54.0465 31.6475C55.2015 32.8325 55.779 34.265 55.779 35.945C55.779 37.61 55.194 39.0425 54.024 40.2425ZM49.7265 40.4675C50.9715 40.4675 51.9915 40.0325 52.7865 39.1625C53.5965 38.2925 54.0015 37.22 54.0015 35.945C54.0015 34.685 53.5815 33.6125 52.7415 32.7275C51.9165 31.8425 50.8965 31.4 49.6815 31.4C48.4365 31.4 47.4165 31.8425 46.6215 32.7275C45.8265 33.5975 45.429 34.67 45.429 35.945C45.429 37.205 45.8415 38.2775 46.6665 39.1625C47.4915 40.0325 48.5115 40.4675 49.7265 40.4675ZM58.9624 27.575V25.6625H60.9424V27.575H58.9624ZM59.0749 41.75V30.1175H60.8074V41.75H59.0749ZM64.8281 41.75V30.1175H66.5606V32.1425C67.4756 30.6275 68.8031 29.87 70.5431 29.87C71.9231 29.87 73.0106 30.2975 73.8056 31.1525C74.6006 31.9925 74.9981 33.1175 74.9981 34.5275V41.75H73.2656V34.955C73.2656 33.86 72.9806 33.005 72.4106 32.39C71.8556 31.76 71.0681 31.445 70.0481 31.445C69.0431 31.445 68.2106 31.7825 67.5506 32.4575C66.8906 33.1325 66.5606 34.01 66.5606 35.09V41.75H64.8281ZM90.1409 41.8625L84.5159 26H86.4509L90.9509 39.1175L95.2709 25.955H96.7334L101.053 39.1175L105.553 26H107.421L101.796 41.8625H100.288L95.9684 29.0825L91.6259 41.8625H90.1409ZM112.238 41.9975C111.053 41.9975 110.033 41.675 109.178 41.03C108.323 40.385 107.896 39.485 107.896 38.33C107.896 37.115 108.346 36.1775 109.246 35.5175C110.146 34.8575 111.353 34.5275 112.868 34.5275C114.068 34.5275 115.253 34.6925 116.423 35.0225V34.6625C116.423 33.6425 116.123 32.8625 115.523 32.3225C114.923 31.7825 114.076 31.5125 112.981 31.5125C111.841 31.5125 110.663 31.79 109.448 32.345L108.931 30.9275C110.371 30.2675 111.781 29.9375 113.161 29.9375C114.811 29.9375 116.063 30.365 116.918 31.22C117.728 32.03 118.133 33.17 118.133 34.64V41.75H116.423V40.0175C115.388 41.3375 113.993 41.9975 112.238 41.9975ZM112.576 40.6025C113.656 40.6025 114.571 40.31 115.321 39.725C116.071 39.14 116.446 38.39 116.446 37.475V36.395C115.306 36.065 114.173 35.9 113.048 35.9C111.983 35.9 111.151 36.1175 110.551 36.5525C109.951 36.9725 109.651 37.55 109.651 38.285C109.651 38.99 109.928 39.5525 110.483 39.9725C111.053 40.3925 111.751 40.6025 112.576 40.6025ZM121.848 27.575V25.6625H123.828V27.575H121.848ZM121.961 41.75V30.1175H123.693V41.75H121.961ZM131.606 41.9525C130.601 41.9525 129.799 41.69 129.199 41.165C128.614 40.625 128.321 39.7925 128.321 38.6675V31.6475H126.701V30.1175H128.321V26.6075H130.054V30.1175H133.744V31.6475H130.054V38.4425C130.054 39.7325 130.706 40.3775 132.011 40.3775C132.581 40.3775 133.144 40.2425 133.699 39.9725V41.4575C133.069 41.7875 132.371 41.9525 131.606 41.9525ZM136.968 41.75V25.325H138.7V41.75H136.968ZM142.766 27.575V25.6625H144.746V27.575H142.766ZM142.879 41.75V30.1175H144.611V41.75H142.879ZM152.479 41.975C151.639 41.975 150.784 41.825 149.914 41.525C149.059 41.21 148.309 40.79 147.664 40.265L148.542 39.0275C149.862 40.0175 151.204 40.5125 152.569 40.5125C153.274 40.5125 153.852 40.34 154.302 39.995C154.752 39.65 154.977 39.1925 154.977 38.6225C154.977 38.0975 154.729 37.6925 154.234 37.4075C153.754 37.1225 153.034 36.845 152.074 36.575C151.489 36.41 151.024 36.26 150.679 36.125C150.334 35.99 149.944 35.8025 149.509 35.5625C149.074 35.3075 148.752 34.9925 148.542 34.6175C148.332 34.2275 148.227 33.77 148.227 33.245C148.227 32.255 148.594 31.4525 149.329 30.8375C150.079 30.2225 151.032 29.915 152.187 29.915C153.687 29.915 155.082 30.3425 156.372 31.1975L155.584 32.5025C154.429 31.7525 153.282 31.3775 152.142 31.3775C151.467 31.3775 150.919 31.5425 150.499 31.8725C150.094 32.1875 149.892 32.6 149.892 33.11C149.892 33.32 149.952 33.515 150.072 33.695C150.192 33.875 150.327 34.025 150.477 34.145C150.627 34.265 150.859 34.3925 151.174 34.5275C151.504 34.6625 151.767 34.76 151.962 34.82C152.157 34.88 152.464 34.9775 152.884 35.1125C153.439 35.2775 153.897 35.435 154.257 35.585C154.617 35.735 154.999 35.9375 155.404 36.1925C155.809 36.4475 156.109 36.77 156.304 37.16C156.514 37.535 156.619 37.9775 156.619 38.4875C156.619 39.5675 156.229 40.4225 155.449 41.0525C154.669 41.6675 153.679 41.975 152.479 41.975ZM163.511 41.9525C162.506 41.9525 161.703 41.69 161.103 41.165C160.518 40.625 160.226 39.7925 160.226 38.6675V31.6475H158.606V30.1175H160.226V26.6075H161.958V30.1175H165.648V31.6475H161.958V38.4425C161.958 39.7325 162.611 40.3775 163.916 40.3775C164.486 40.3775 165.048 40.2425 165.603 39.9725V41.4575C164.973 41.7875 164.276 41.9525 163.511 41.9525Z" fill="#C8F05A"/>
<path d="M187 43.25L202 28.25M202 28.25H192M202 28.25V38.25" stroke="#C8F05A" stroke-width="2.5" stroke-linecap="round" stroke-linejoin="round"/>
</svg>
