<svg width="192" height="57" viewBox="0 0 192 57" fill="none" xmlns="http://www.w3.org/2000/svg">
<rect width="192" height="57" rx="4" fill="#C8F05A"/>
<path d="M28.446 34.18C26.766 34.18 25.47 33.436 24.558 31.948L25.584 31.066C25.992 31.678 26.412 32.134 26.844 32.434C27.288 32.722 27.828 32.866 28.464 32.866C29.196 32.866 29.79 32.608 30.246 32.092C30.702 31.564 30.93 30.814 30.93 29.842V21.4H32.37V29.824C32.37 31.264 31.986 32.368 31.218 33.136C30.498 33.832 29.574 34.18 28.446 34.18ZM43.2192 32.794C42.2832 33.742 41.1252 34.216 39.7452 34.216C38.3652 34.216 37.2132 33.742 36.2892 32.794C35.3772 31.846 34.9212 30.7 34.9212 29.356C34.9212 28.024 35.3832 26.884 36.3072 25.936C37.2432 24.976 38.4012 24.496 39.7812 24.496C41.1612 24.496 42.3132 24.97 43.2372 25.918C44.1612 26.866 44.6232 28.012 44.6232 29.356C44.6232 30.688 44.1552 31.834 43.2192 32.794ZM39.7812 32.974C40.7772 32.974 41.5932 32.626 42.2292 31.93C42.8772 31.234 43.2012 30.376 43.2012 29.356C43.2012 28.348 42.8652 27.49 42.1932 26.782C41.5332 26.074 40.7172 25.72 39.7452 25.72C38.7492 25.72 37.9332 26.074 37.2972 26.782C36.6612 27.478 36.3432 28.336 36.3432 29.356C36.3432 30.364 36.6732 31.222 37.3332 31.93C37.9932 32.626 38.8092 32.974 39.7812 32.974ZM47.1699 22.66V21.13H48.7539V22.66H47.1699ZM47.2599 34V24.694H48.6459V34H47.2599ZM51.8625 34V24.694H53.2485V26.314C53.9805 25.102 55.0425 24.496 56.4345 24.496C57.5385 24.496 58.4085 24.838 59.0445 25.522C59.6805 26.194 59.9985 27.094 59.9985 28.222V34H58.6125V28.564C58.6125 27.688 58.3845 27.004 57.9285 26.512C57.4845 26.008 56.8545 25.756 56.0385 25.756C55.2345 25.756 54.5685 26.026 54.0405 26.566C53.5125 27.106 53.2485 27.808 53.2485 28.672V34H51.8625ZM72.1127 34.09L67.6127 21.4H69.1607L72.7607 31.894L76.2167 21.364H77.3867L80.8427 31.894L84.4427 21.4H85.9367L81.4367 34.09H80.2307L76.7747 23.866L73.3007 34.09H72.1127ZM89.7907 34.198C88.8427 34.198 88.0267 33.94 87.3427 33.424C86.6587 32.908 86.3167 32.188 86.3167 31.264C86.3167 30.292 86.6767 29.542 87.3967 29.014C88.1167 28.486 89.0827 28.222 90.2947 28.222C91.2547 28.222 92.2027 28.354 93.1387 28.618V28.33C93.1387 27.514 92.8987 26.89 92.4187 26.458C91.9387 26.026 91.2607 25.81 90.3847 25.81C89.4727 25.81 88.5307 26.032 87.5587 26.476L87.1447 25.342C88.2967 24.814 89.4247 24.55 90.5287 24.55C91.8487 24.55 92.8507 24.892 93.5347 25.576C94.1827 26.224 94.5067 27.136 94.5067 28.312V34H93.1387V32.614C92.3107 33.67 91.1947 34.198 89.7907 34.198ZM90.0607 33.082C90.9247 33.082 91.6567 32.848 92.2567 32.38C92.8567 31.912 93.1567 31.312 93.1567 30.58V29.716C92.2447 29.452 91.3387 29.32 90.4387 29.32C89.5867 29.32 88.9207 29.494 88.4407 29.842C87.9607 30.178 87.7207 30.64 87.7207 31.228C87.7207 31.792 87.9427 32.242 88.3867 32.578C88.8427 32.914 89.4007 33.082 90.0607 33.082ZM97.4785 22.66V21.13H99.0625V22.66H97.4785ZM97.5685 34V24.694H98.9545V34H97.5685ZM105.285 34.162C104.481 34.162 103.839 33.952 103.359 33.532C102.891 33.1 102.657 32.434 102.657 31.534V25.918H101.361V24.694H102.657V21.886H104.043V24.694H106.995V25.918H104.043V31.354C104.043 32.386 104.565 32.902 105.609 32.902C106.065 32.902 106.515 32.794 106.959 32.578V33.766C106.455 34.03 105.897 34.162 105.285 34.162ZM109.574 34V20.86H110.96V34H109.574ZM114.213 22.66V21.13H115.797V22.66H114.213ZM114.303 34V24.694H115.689V34H114.303ZM121.983 34.18C121.311 34.18 120.627 34.06 119.931 33.82C119.247 33.568 118.647 33.232 118.131 32.812L118.833 31.822C119.889 32.614 120.963 33.01 122.055 33.01C122.619 33.01 123.081 32.872 123.441 32.596C123.801 32.32 123.981 31.954 123.981 31.498C123.981 31.078 123.783 30.754 123.387 30.526C123.003 30.298 122.427 30.076 121.659 29.86C121.191 29.728 120.819 29.608 120.543 29.5C120.267 29.392 119.955 29.242 119.607 29.05C119.259 28.846 119.001 28.594 118.833 28.294C118.665 27.982 118.581 27.616 118.581 27.196C118.581 26.404 118.875 25.762 119.463 25.27C120.063 24.778 120.825 24.532 121.749 24.532C122.949 24.532 124.065 24.874 125.097 25.558L124.467 26.602C123.543 26.002 122.625 25.702 121.713 25.702C121.173 25.702 120.735 25.834 120.399 26.098C120.075 26.35 119.913 26.68 119.913 27.088C119.913 27.256 119.961 27.412 120.057 27.556C120.153 27.7 120.261 27.82 120.381 27.916C120.501 28.012 120.687 28.114 120.939 28.222C121.203 28.33 121.413 28.408 121.569 28.456C121.725 28.504 121.971 28.582 122.307 28.69C122.751 28.822 123.117 28.948 123.405 29.068C123.693 29.188 123.999 29.35 124.323 29.554C124.647 29.758 124.887 30.016 125.043 30.328C125.211 30.628 125.295 30.982 125.295 31.39C125.295 32.254 124.983 32.938 124.359 33.442C123.735 33.934 122.943 34.18 121.983 34.18ZM130.808 34.162C130.004 34.162 129.362 33.952 128.882 33.532C128.414 33.1 128.18 32.434 128.18 31.534V25.918H126.884V24.694H128.18V21.886H129.566V24.694H132.518V25.918H129.566V31.354C129.566 32.386 130.088 32.902 131.132 32.902C131.588 32.902 132.038 32.794 132.482 32.578V33.766C131.978 34.03 131.42 34.162 130.808 34.162Z" fill="#161B23"/>
<path d="M150 34.5L162 22.5M162 22.5H154M162 22.5V30.5" stroke="black" stroke-width="2" stroke-linecap="round" stroke-linejoin="round"/>
</svg>
