<svg width="268" height="73" viewBox="0 0 268 73" fill="none" xmlns="http://www.w3.org/2000/svg">
<path d="M243.784 24.2653V13.8144L7.67823 13.6831L0 21.2793V72.8121L245.72 72.6973L253.021 64.6909V24.2653H243.784Z" fill="#282828"/>
<path d="M16.4229 56.5365C15.139 55.0496 14.4961 53.1148 14.6346 51.1552V35.2409C14.5718 34.2672 14.7018 33.2906 15.0171 32.3671C15.3324 31.4437 15.8269 30.5916 16.4721 29.8596C17.9697 28.6276 19.8487 27.9541 21.7878 27.9541C23.727 27.9541 25.606 28.6276 27.1035 29.8596C27.7488 30.5916 28.2433 31.4437 28.5586 32.3671C28.8739 33.2906 29.0039 34.2672 28.9411 35.2409V38.3745H24.3473V34.9456C24.3473 33.1081 23.5433 32.1893 21.9191 32.1893C20.2949 32.1893 19.4909 33.1081 19.4909 34.9456V51.4997C19.4909 53.3045 20.2949 54.2068 21.9191 54.2068C23.5433 54.2068 24.3473 53.3045 24.3473 51.4997V46.9223H28.9411V51.106C29.0661 53.0724 28.4052 55.0081 27.1035 56.4873C25.606 57.7193 23.727 58.3928 21.7878 58.3928C19.8487 58.3928 17.9697 57.7193 16.4721 56.4873L16.4229 56.5365Z" fill="white"/>
<path d="M33.9778 56.4875C33.3105 55.7443 32.7984 54.8753 32.4716 53.9314C32.1448 52.9876 32.0098 51.988 32.0747 50.9913V35.4379C32.0098 34.4412 32.1448 33.4416 32.4716 32.4978C32.7984 31.5539 33.3105 30.6849 33.9778 29.9417C35.522 28.6797 37.455 27.9902 39.4494 27.9902C41.4437 27.9902 43.3767 28.6797 44.9209 29.9417C45.5852 30.6869 46.0953 31.5563 46.422 32.4996C46.7486 33.4429 46.8853 34.4415 46.8241 35.4379V51.0241C46.8853 52.0205 46.7486 53.0191 46.422 53.9624C46.0953 54.9058 45.5852 55.7751 44.9209 56.5203C43.3767 57.7824 41.4437 58.4718 39.4494 58.4718C37.455 58.4718 35.522 57.7824 33.9778 56.5203V56.4875ZM41.9678 51.2866V35.1098C41.9678 33.1574 41.1146 32.1894 39.4412 32.1894C37.7677 32.1894 36.931 33.1574 36.931 35.1098V51.2866C36.931 53.239 37.7677 54.207 39.4412 54.207C41.1146 54.207 41.9678 53.239 41.9678 51.2866Z" fill="white"/>
<path d="M50.614 28.3833H57.554L60.5728 49.5969L63.8541 28.3833H70.7448V58.0134H66.1674V35.5694H66.0689L62.5415 58.0134H58.4727L54.9453 35.5694V58.0134H50.614V28.3833Z" fill="white"/>
<path d="M74.8957 28.3834H82.0489C83.035 28.3083 84.026 28.4339 84.9622 28.7526C85.8984 29.0712 86.7603 29.5763 87.4959 30.2374C88.7905 31.7514 89.4387 33.7134 89.3006 35.7007V38.6211C89.4387 40.6084 88.7905 42.5704 87.4959 44.0845C86.7633 44.7509 85.9022 45.2605 84.9655 45.5822C84.0289 45.9038 83.0363 46.0306 82.0489 45.9548H79.7684V58.0136H74.8464L74.8957 28.3834ZM82.0489 41.7219C82.3753 41.7479 82.7035 41.7043 83.0117 41.594C83.32 41.4837 83.6014 41.3092 83.8372 41.0821C84.3049 40.4623 84.5217 39.689 84.4442 38.9164V35.4382C84.5217 34.6657 84.3049 33.8923 83.8372 33.2726C83.5982 33.0509 83.316 32.8811 83.0083 32.7738C82.7005 32.6665 82.3738 32.6241 82.0489 32.6491H79.7684V41.7547L82.0489 41.7219Z" fill="white"/>
<path d="M94.6819 28.3833H101.244L106.281 58.0134H101.359L100.473 52.1235V52.2219H95.0264L94.1404 58.0134H89.6287L94.6819 28.3833ZM99.9483 48.1859L97.7827 33.5514L95.6663 48.1859H99.9483Z" fill="white"/>
<path d="M109.169 28.383H116.355C118.32 28.2011 120.279 28.7893 121.818 30.0237C122.424 30.7244 122.882 31.5407 123.164 32.4233C123.446 33.3059 123.546 34.2365 123.459 35.1589V37.0785C123.459 40.1629 122.409 42.0988 120.292 42.9192V43.0176C120.836 43.1533 121.343 43.4095 121.775 43.7673C122.206 44.1251 122.552 44.5754 122.786 45.0848C123.316 46.4138 123.562 47.8388 123.508 49.2685V54.4858C123.508 55.3225 123.508 56.0116 123.59 56.5366C123.659 57.0701 123.808 57.5901 124.033 58.0788H119.111C118.946 57.6437 118.825 57.1929 118.75 56.7334C118.685 55.9696 118.657 55.2031 118.668 54.4365V49.0224C118.766 48.0256 118.523 47.0251 117.979 46.1841C117.668 45.8857 117.295 45.6592 116.887 45.5203C116.479 45.3814 116.045 45.3336 115.617 45.3801H113.976V58.0788H109.054L109.169 28.383ZM115.731 41.0817C116.138 41.1208 116.548 41.0769 116.937 40.9528C117.327 40.8288 117.687 40.627 117.995 40.3598C118.269 40.0251 118.473 39.6397 118.597 39.2259C118.721 38.812 118.762 38.3777 118.717 37.948V35.6675C118.79 34.8465 118.582 34.0252 118.127 33.3378C117.892 33.0809 117.601 32.882 117.277 32.7568C116.952 32.6315 116.603 32.5833 116.256 32.6159H114.042V41.0817H115.731Z" fill="white"/>
<path d="M127.495 28.3833H140.735V32.6162H132.351V40.4421H139.012V44.675H132.351V53.7805H140.735V58.0134H127.495V28.3833Z" fill="white"/>
<path d="M147.15 56.1433C146.508 55.413 146.017 54.5632 145.704 53.6425C145.392 52.7219 145.264 51.7485 145.329 50.7784V49.1378H149.922V51.1229C149.922 52.9769 150.776 53.912 152.449 53.912C152.79 53.9351 153.133 53.8873 153.455 53.7715C153.776 53.6558 154.071 53.4746 154.319 53.2394C154.801 52.6128 155.029 51.828 154.959 51.0409C154.982 49.9109 154.674 48.7988 154.073 47.8416C153.152 46.5883 152.045 45.482 150.792 44.5603C149.158 43.3173 147.743 41.8088 146.608 40.0978C145.798 38.7341 145.384 37.1719 145.411 35.586C145.317 34.6163 145.441 33.638 145.773 32.7221C146.105 31.8062 146.636 30.9757 147.329 30.2908C148.022 29.6059 148.858 29.0838 149.778 28.7624C150.698 28.4411 151.677 28.3284 152.646 28.4328C153.608 28.3631 154.574 28.4934 155.483 28.8153C156.392 29.1371 157.225 29.6437 157.929 30.3031C159.209 31.7859 159.851 33.7139 159.717 35.668V36.8657H155.123V35.3891C155.188 34.6152 154.966 33.8445 154.5 33.2235C154.266 32.9874 153.983 32.805 153.671 32.6888C153.36 32.5727 153.027 32.5256 152.695 32.5508C151.054 32.5508 150.267 33.4696 150.267 35.3071C150.265 36.3494 150.58 37.3677 151.169 38.2274C152.108 39.4659 153.212 40.57 154.451 41.5087C156.102 42.7391 157.519 44.2562 158.634 45.9877C159.43 47.4387 159.826 49.0749 159.783 50.7292C159.847 51.7132 159.714 52.7001 159.393 53.6324C159.072 54.5648 158.569 55.4239 157.912 56.1598C157.176 56.8271 156.313 57.3384 155.374 57.6627C154.435 57.987 153.44 58.1175 152.449 58.0465C151.482 58.1091 150.513 57.9725 149.602 57.6451C148.69 57.3178 147.856 56.8066 147.15 56.1433Z" fill="#C1DE00"/>
<path d="M163.753 28.3833H170.677L173.778 49.5969H173.86L176.961 28.3833H183.884V58.0134H179.29V35.5694H179.208L175.664 58.0134H171.612L168.085 35.5694H167.986V58.0134H163.753V28.3833Z" fill="#C1DE00"/>
<path d="M192.415 28.4326H198.978L203.998 57.9643H199.076L198.207 52.1072V52.1892H192.678L191.792 57.9643H187.297L192.415 28.4326ZM197.715 48.1204L195.549 33.5186H195.451L193.334 48.1204H197.715Z" fill="#C1DE00"/>
<path d="M207.509 28.3833H214.794C216.758 28.21 218.714 28.7973 220.257 30.024C220.878 30.7216 221.35 31.5379 221.646 32.4233C221.942 33.3088 222.056 34.2451 221.98 35.1756V37.0788C221.98 40.1632 220.93 42.0991 218.813 42.9195V43.0015C219.355 43.1425 219.859 43.4007 220.29 43.7579C220.721 44.1151 221.068 44.5626 221.307 45.0687C221.837 46.3976 222.083 47.8227 222.029 49.2524V54.4532C222.029 55.3064 222.029 55.9954 222.029 56.504C222.096 57.038 222.245 57.5583 222.472 58.0463H217.55C217.382 57.6119 217.261 57.1609 217.189 56.7009C217.151 55.9413 217.151 55.1801 217.189 54.4204V49.0063C217.284 48.0097 217.042 47.01 216.5 46.1679C216.186 45.8733 215.813 45.6491 215.406 45.5104C214.998 45.3718 214.566 45.3219 214.138 45.364H212.497V58.0463H207.575L207.509 28.3833ZM214.072 41.0655C214.866 41.122 215.65 40.8626 216.254 40.3437C216.527 40.009 216.732 39.6236 216.855 39.2098C216.979 38.7959 217.02 38.3616 216.976 37.9319V35.6514C217.046 34.8306 216.838 34.0101 216.385 33.3217C216.148 33.0678 215.857 32.8709 215.533 32.7459C215.209 32.6209 214.861 32.5709 214.515 32.5998H212.3V41.0655H214.072Z" fill="#C1DE00"/>
<path d="M230.167 32.6491H225.081V28.4326H240.093V32.6491H235.023V57.9643H230.101L230.167 32.6491Z" fill="#C1DE00"/>
<path d="M268 0H246.803V21.1972H268V0Z" fill="#C1DE00"/>
<path d="M252.315 14.1099V16.538H250.035V14.1099H252.315Z" fill="#282828"/>
<path d="M256.532 4.44678V6.64524H254.333V4.44678H256.532ZM254.333 8.25307H256.532V16.4563H254.333V8.25307Z" fill="#282828"/>
<path d="M263.062 16.2265C262.727 16.4484 262.348 16.5969 261.952 16.6624C261.555 16.7279 261.149 16.709 260.761 16.6067C260.372 16.5045 260.009 16.3214 259.696 16.0693C259.383 15.8171 259.127 15.5018 258.944 15.1437C258.722 14.625 258.605 14.0674 258.599 13.5031V7.54752C258.594 7.04566 258.696 6.54851 258.9 6.08987C259.104 5.63124 259.404 5.22188 259.781 4.88968C260.248 4.53054 260.834 4.36066 261.421 4.41387C261.944 4.38683 262.463 4.51997 262.909 4.79552C263.355 5.07107 263.706 5.47593 263.915 5.95609C264.125 6.43838 264.242 6.95612 264.26 7.4819V13.6015C264.273 14.1014 264.172 14.5978 263.965 15.0527C263.757 15.5077 263.448 15.9092 263.062 16.2265ZM260.732 7.54752V13.5359C260.732 14.1429 260.88 14.7336 261.47 14.7336C262.061 14.7336 262.291 14.1429 262.242 13.5359V7.54752C262.242 6.94048 262.094 6.33343 261.47 6.33343C260.847 6.33343 260.617 6.9897 260.732 7.54752Z" fill="#282828"/>
</svg>
