<svg width="224" height="212" viewBox="0 0 224 212" fill="none" xmlns="http://www.w3.org/2000/svg">
<g clip-path="url(#clip0_2836_8494)">
<path opacity="0.63" d="M211.605 52.5903C211.605 52.5903 176.782 10.9812 122.798 1.42921C68.8136 -8.12274 58.2717 32.4535 40.1707 56.3412C22.0697 80.2289 1.60225 89.0817 0.557462 123.528C-0.487328 157.975 13.539 175.696 40.5155 187.992C67.4919 200.288 95.1632 206.773 122.145 210.503C149.127 214.233 170.639 212.203 181.228 190.037C191.817 167.871 187.053 157.656 199.324 147.061C211.595 136.466 239.292 88.3984 211.605 52.5903Z" fill="#ECFFA6"/>
<path d="M55.4455 162.06L52.0029 137.984L68.6203 139.93L131.663 189.422L95.1266 193.459L55.4455 162.06Z" fill="#C8F05A" stroke="#263238" stroke-width="0.36" stroke-linecap="round" stroke-linejoin="round"/>
<path d="M55.4454 162.06L88.8369 159.968L75.3591 177.762L55.4454 162.06Z" fill="white" stroke="#263238" stroke-linecap="round" stroke-linejoin="round"/>
<path d="M88.8369 159.968L86.5906 132.454L63.5321 161.611L88.8369 159.968Z" fill="#C8F05A" stroke="#263238" stroke-width="0.36" stroke-linecap="round" stroke-linejoin="round"/>
<path d="M86.5906 132.454L95.1266 193.46L75.3591 177.762L88.8369 159.968L86.5906 132.454Z" fill="white" stroke="#263238" stroke-linecap="round" stroke-linejoin="round"/>
<path d="M86.5907 132.454L135.403 126.622L93.1885 179.317L86.5907 132.454Z" fill="#C8F05A" stroke="#263238" stroke-width="0.36" stroke-linecap="round" stroke-linejoin="round"/>
<path d="M52.0029 137.984L48.7379 149.774L53.3141 147.661L52.0029 137.984Z" fill="white" stroke="#263238" stroke-linecap="round" stroke-linejoin="round"/>
<path d="M86.5907 132.454L94.4423 177.147L93.1885 179.317L86.5907 132.454Z" fill="#263238" stroke="#263238" stroke-linecap="round" stroke-linejoin="round"/>
<path d="M102.936 167.146L93.1885 179.317L93.6795 181.45L103.819 167.652L102.936 167.146Z" fill="#263238" stroke="#263238" stroke-linecap="round" stroke-linejoin="round"/>
<path d="M163.707 89.5046L157.715 104.592L176.176 120.153L163.707 89.5046Z" fill="#263238" stroke="#263238" stroke-width="1.12" stroke-linecap="round" stroke-linejoin="round"/>
<path d="M126.784 59.5759L166.345 98.1227L130.858 50.4778L126.784 59.5759Z" fill="#263238" stroke="#263238" stroke-width="1.12" stroke-linecap="round" stroke-linejoin="round"/>
<path d="M129.903 41.6196L113.839 60.0558H136.375L129.903 41.6196Z" fill="#C8F05A" stroke="#263238" stroke-width="0.4" stroke-linecap="round" stroke-linejoin="round"/>
<path d="M131.339 57.1814L173.058 106.266L171.861 61.7304L131.339 57.1814Z" fill="#C8F05A" stroke="#263238" stroke-width="0.4" stroke-linecap="round" stroke-linejoin="round"/>
<path d="M129.903 41.6196L131.339 57.1813L171.861 61.7304L129.903 41.6196Z" fill="#C8F05A" stroke="#263238" stroke-width="0.4" stroke-linecap="round" stroke-linejoin="round"/>
<path d="M131.339 57.1813L174.74 21.7437L171.861 61.7304L131.339 57.1813Z" fill="#C8F05A" stroke="#263238" stroke-width="0.4" stroke-linecap="round" stroke-linejoin="round"/>
<path d="M174.74 21.7437L212.138 28.2073L171.861 61.7304L174.74 21.7437Z" fill="#C8F05A" stroke="#263238" stroke-width="0.4" stroke-linecap="round" stroke-linejoin="round"/>
<path d="M171.861 61.7305L163.707 102.197L176.176 120.153L171.861 61.7305Z" fill="#C8F05A" stroke="#263238" stroke-width="0.4" stroke-linecap="round" stroke-linejoin="round"/>
<path d="M129.903 41.6196L129.85 57.9534L131.82 59.9149H133.622L131.339 57.1813L129.903 41.6196Z" fill="#263238" stroke="#263238" stroke-width="1.12" stroke-linecap="round" stroke-linejoin="round"/>
<path d="M72.2144 62.3095L22.3674 23.0427L43.9998 58.3917L72.2144 62.3095Z" fill="#263238" stroke="#263238" stroke-linecap="round" stroke-linejoin="round"/>
<path d="M83.331 24.1277L73.1808 63.0241L22.9316 89.0872L83.331 24.1277Z" fill="#263238" stroke="#263238" stroke-linecap="round" stroke-linejoin="round"/>
<path d="M83.3309 24.1277L72.2143 62.3094L14.1971 94.0536L41.9833 60.0923L52.6506 47.212L71.1016 27.456L83.3309 24.1277Z" fill="#C8F05A" stroke="#263238" stroke-width="0.36" stroke-linecap="round" stroke-linejoin="round"/>
<path d="M83.331 24.1277L97.5558 34.3369L81.2257 31.4468L83.331 24.1277Z" fill="#C8F05A" stroke="#263238" stroke-width="0.36" stroke-linecap="round" stroke-linejoin="round"/>
<path d="M72.2144 62.3095L18.1987 23.0166L41.9834 60.0923L72.2144 62.3095Z" fill="#C8F05A" stroke="#263238" stroke-width="0.36" stroke-linecap="round" stroke-linejoin="round"/>
</g>
<defs>
<clipPath id="clip0_2836_8494">
<rect width="223" height="212" fill="white" transform="translate(0.5)"/>
</clipPath>
</defs>
</svg>
