<svg width="436" height="57" viewBox="0 0 436 57" fill="none" xmlns="http://www.w3.org/2000/svg">
<rect width="436" height="57" rx="4" fill="#C8F05A"/>
<path d="M165.102 34.18C163.17 34.18 161.454 33.508 159.954 32.164L160.836 31.12C161.508 31.732 162.18 32.182 162.852 32.47C163.536 32.758 164.304 32.902 165.156 32.902C165.996 32.902 166.674 32.704 167.19 32.308C167.706 31.9 167.964 31.372 167.964 30.724C167.964 30.112 167.736 29.626 167.28 29.266C166.824 28.906 165.96 28.594 164.688 28.33C163.188 28.006 162.108 27.568 161.448 27.016C160.788 26.464 160.458 25.678 160.458 24.658C160.458 23.662 160.848 22.84 161.628 22.192C162.408 21.544 163.398 21.22 164.598 21.22C166.266 21.22 167.742 21.736 169.026 22.768L168.198 23.866C167.082 22.954 165.87 22.498 164.562 22.498C163.758 22.498 163.11 22.696 162.618 23.092C162.126 23.476 161.88 23.968 161.88 24.568C161.88 25.192 162.114 25.684 162.582 26.044C163.062 26.404 163.968 26.728 165.3 27.016C166.728 27.328 167.766 27.766 168.414 28.33C169.074 28.882 169.404 29.644 169.404 30.616C169.404 31.684 169.002 32.548 168.198 33.208C167.394 33.856 166.362 34.18 165.102 34.18ZM172.89 29.914C172.986 30.862 173.34 31.618 173.952 32.182C174.576 32.734 175.314 33.01 176.166 33.01C177.282 33.01 178.26 32.572 179.1 31.696L179.964 32.47C178.92 33.634 177.642 34.216 176.13 34.216C174.822 34.216 173.718 33.766 172.818 32.866C171.93 31.954 171.486 30.784 171.486 29.356C171.486 28 171.912 26.854 172.764 25.918C173.616 24.97 174.678 24.496 175.95 24.496C177.282 24.496 178.338 24.964 179.118 25.9C179.898 26.836 180.288 28.012 180.288 29.428C180.288 29.608 180.282 29.77 180.27 29.914H172.89ZM172.89 28.798H178.884C178.8 27.898 178.5 27.154 177.984 26.566C177.48 25.966 176.79 25.666 175.914 25.666C175.122 25.666 174.444 25.96 173.88 26.548C173.316 27.136 172.986 27.886 172.89 28.798ZM182.714 34V24.694H184.1V26.314C184.832 25.102 185.894 24.496 187.286 24.496C188.39 24.496 189.26 24.838 189.896 25.522C190.532 26.194 190.85 27.094 190.85 28.222V34H189.464V28.564C189.464 27.688 189.236 27.004 188.78 26.512C188.336 26.008 187.706 25.756 186.89 25.756C186.086 25.756 185.42 26.026 184.892 26.566C184.364 27.106 184.1 27.808 184.1 28.672V34H182.714ZM197.712 34.198C196.524 34.198 195.486 33.76 194.598 32.884C193.71 31.996 193.266 30.814 193.266 29.338C193.266 27.886 193.71 26.716 194.598 25.828C195.486 24.94 196.524 24.496 197.712 24.496C199.176 24.496 200.364 25.156 201.276 26.476V20.86H202.662V34H201.276V32.128C200.34 33.508 199.152 34.198 197.712 34.198ZM197.964 32.956C198.864 32.956 199.65 32.614 200.322 31.93C200.994 31.246 201.33 30.376 201.33 29.32C201.33 28.288 200.994 27.436 200.322 26.764C199.65 26.08 198.864 25.738 197.964 25.738C197.028 25.738 196.248 26.068 195.624 26.728C195 27.376 194.688 28.252 194.688 29.356C194.688 30.424 195.006 31.294 195.642 31.966C196.278 32.626 197.052 32.956 197.964 32.956ZM211.155 34V24.694H212.541V27.124C212.901 26.32 213.411 25.678 214.071 25.198C214.731 24.718 215.487 24.496 216.339 24.532V26.026H216.231C215.163 26.026 214.281 26.398 213.585 27.142C212.889 27.886 212.541 28.936 212.541 30.292V34H211.155ZM218.874 29.914C218.97 30.862 219.324 31.618 219.936 32.182C220.56 32.734 221.298 33.01 222.15 33.01C223.266 33.01 224.244 32.572 225.084 31.696L225.948 32.47C224.904 33.634 223.626 34.216 222.114 34.216C220.806 34.216 219.702 33.766 218.802 32.866C217.914 31.954 217.47 30.784 217.47 29.356C217.47 28 217.896 26.854 218.748 25.918C219.6 24.97 220.662 24.496 221.934 24.496C223.266 24.496 224.322 24.964 225.102 25.9C225.882 26.836 226.272 28.012 226.272 29.428C226.272 29.608 226.266 29.77 226.254 29.914H218.874ZM218.874 28.798H224.868C224.784 27.898 224.484 27.154 223.968 26.566C223.464 25.966 222.774 25.666 221.898 25.666C221.106 25.666 220.428 25.96 219.864 26.548C219.3 27.136 218.97 27.886 218.874 28.798ZM236.168 36.88V32.128C235.232 33.508 234.044 34.198 232.604 34.198C231.416 34.198 230.378 33.76 229.49 32.884C228.602 31.996 228.158 30.814 228.158 29.338C228.158 27.886 228.602 26.716 229.49 25.828C230.378 24.94 231.416 24.496 232.604 24.496C234.068 24.496 235.256 25.156 236.168 26.476V24.694H237.554V36.88H236.168ZM232.856 32.956C233.756 32.956 234.542 32.614 235.214 31.93C235.886 31.246 236.222 30.376 236.222 29.32C236.222 28.288 235.886 27.436 235.214 26.764C234.542 26.08 233.756 25.738 232.856 25.738C231.92 25.738 231.14 26.068 230.516 26.728C229.892 27.376 229.58 28.252 229.58 29.356C229.58 30.424 229.898 31.294 230.534 31.966C231.17 32.626 231.944 32.956 232.856 32.956ZM244.072 34.198C242.968 34.198 242.098 33.862 241.462 33.19C240.826 32.506 240.508 31.6 240.508 30.472V24.694H241.894V30.13C241.894 31.006 242.116 31.696 242.56 32.2C243.016 32.692 243.652 32.938 244.468 32.938C245.272 32.938 245.938 32.668 246.466 32.128C246.994 31.588 247.258 30.886 247.258 30.022V24.694H248.626V34H247.258V32.38C246.502 33.592 245.44 34.198 244.072 34.198ZM252.571 29.914C252.667 30.862 253.021 31.618 253.633 32.182C254.257 32.734 254.995 33.01 255.847 33.01C256.963 33.01 257.941 32.572 258.781 31.696L259.645 32.47C258.601 33.634 257.323 34.216 255.811 34.216C254.503 34.216 253.399 33.766 252.499 32.866C251.611 31.954 251.167 30.784 251.167 29.356C251.167 28 251.593 26.854 252.445 25.918C253.297 24.97 254.359 24.496 255.631 24.496C256.963 24.496 258.019 24.964 258.799 25.9C259.579 26.836 259.969 28.012 259.969 29.428C259.969 29.608 259.963 29.77 259.951 29.914H252.571ZM252.571 28.798H258.565C258.481 27.898 258.181 27.154 257.665 26.566C257.161 25.966 256.471 25.666 255.595 25.666C254.803 25.666 254.125 25.96 253.561 26.548C252.997 27.136 252.667 27.886 252.571 28.798ZM265.474 34.18C264.802 34.18 264.118 34.06 263.422 33.82C262.738 33.568 262.138 33.232 261.622 32.812L262.324 31.822C263.38 32.614 264.454 33.01 265.546 33.01C266.11 33.01 266.572 32.872 266.932 32.596C267.292 32.32 267.472 31.954 267.472 31.498C267.472 31.078 267.274 30.754 266.878 30.526C266.494 30.298 265.918 30.076 265.15 29.86C264.682 29.728 264.31 29.608 264.034 29.5C263.758 29.392 263.446 29.242 263.098 29.05C262.75 28.846 262.492 28.594 262.324 28.294C262.156 27.982 262.072 27.616 262.072 27.196C262.072 26.404 262.366 25.762 262.954 25.27C263.554 24.778 264.316 24.532 265.24 24.532C266.44 24.532 267.556 24.874 268.588 25.558L267.958 26.602C267.034 26.002 266.116 25.702 265.204 25.702C264.664 25.702 264.226 25.834 263.89 26.098C263.566 26.35 263.404 26.68 263.404 27.088C263.404 27.256 263.452 27.412 263.548 27.556C263.644 27.7 263.752 27.82 263.872 27.916C263.992 28.012 264.178 28.114 264.43 28.222C264.694 28.33 264.904 28.408 265.06 28.456C265.216 28.504 265.462 28.582 265.798 28.69C266.242 28.822 266.608 28.948 266.896 29.068C267.184 29.188 267.49 29.35 267.814 29.554C268.138 29.758 268.378 30.016 268.534 30.328C268.702 30.628 268.786 30.982 268.786 31.39C268.786 32.254 268.474 32.938 267.85 33.442C267.226 33.934 266.434 34.18 265.474 34.18ZM274.299 34.162C273.495 34.162 272.853 33.952 272.373 33.532C271.905 33.1 271.671 32.434 271.671 31.534V25.918H270.375V24.694H271.671V21.886H273.057V24.694H276.009V25.918H273.057V31.354C273.057 32.386 273.579 32.902 274.623 32.902C275.079 32.902 275.529 32.794 275.973 32.578V33.766C275.469 34.03 274.911 34.162 274.299 34.162Z" fill="#161B23"/>
</svg>
